<?xml version="1.0" encoding="UTF-8" standalone="no"?>
<!-- Created with Inkscape (http://www.inkscape.org/) -->
<svg
   xmlns:dc="http://purl.org/dc/elements/1.1/"
   xmlns:cc="http://creativecommons.org/ns#"
   xmlns:rdf="http://www.w3.org/1999/02/22-rdf-syntax-ns#"
   xmlns:svg="http://www.w3.org/2000/svg"
   xmlns="http://www.w3.org/2000/svg"
   xmlns:sodipodi="http://sodipodi.sourceforge.net/DTD/sodipodi-0.dtd"
   xmlns:inkscape="http://www.inkscape.org/namespaces/inkscape"
   width="775.6214"
   height="498.19418"
   id="svg3783"
   sodipodi:version="0.32"
   inkscape:version="0.46"
   sodipodi:docbase="/Users/Adam/Desktop/Work/Shyla The Cat"
   sodipodi:docname="adam_lowe_Blue_Kite_ok.svg"
   inkscape:output_extension="org.inkscape.output.svg.inkscape"
   version="1.0"
   inkscape:export-filename="C:\joanna\Gfx\drawings_vector\admin\adam_lowe_Blue_Kite_ok.png"
   inkscape:export-xdpi="36.087193"
   inkscape:export-ydpi="36.087193">
  <defs
     id="defs3785">
    <inkscape:perspective
       sodipodi:type="inkscape:persp3d"
       inkscape:vp_x="0 : 526.18109 : 1"
       inkscape:vp_y="0 : 1000 : 0"
       inkscape:vp_z="744.09448 : 526.18109 : 1"
       inkscape:persp3d-origin="372.04724 : 350.78739 : 1"
       id="perspective22" />
  </defs>
  <sodipodi:namedview
     id="base"
     pagecolor="#ffffff"
     bordercolor="#000000"
     borderopacity="1"
     inkscape:pageopacity="0.0"
     inkscape:pageshadow="0"
     inkscape:zoom="0.20102221"
     inkscape:cx="514.16131"
     inkscape:cy="-1.352846"
     inkscape:document-units="px"
     inkscape:current-layer="layer1"
     inkscape:window-width="697"
     inkscape:window-height="667"
     inkscape:window-x="194"
     inkscape:window-y="124"
     showgrid="false" />
  <metadata
     id="metadata3788">
    <rdf:RDF>
      <cc:Work
         rdf:about="">
        <dc:format>image/svg+xml</dc:format>
        <dc:type
           rdf:resource="http://purl.org/dc/dcmitype/StillImage" />
      </cc:Work>
    </rdf:RDF>
  </metadata>
  <g
     inkscape:label="Layer 1"
     inkscape:groupmode="layer"
     id="layer1"
     transform="translate(673.60827,94.734905)">
    <g
       id="g2394"
       transform="matrix(0.3869707,0,0,0.3869707,-412.94159,-58.075271)">
      <path
         sodipodi:nodetypes="czc"
         inkscape:transform-center-y="565.55363"
         inkscape:transform-center-x="926.85895"
         id="path3856"
         d="M 1178.8388,62.264908 C 1178.8388,62.264908 768.46854,574.56099 305.60676,856.91626 C -157.25501,1139.2715 -672.6083,1191.686 -672.6083,1191.686"
         style="fill:none;fill-rule:evenodd;stroke:#000000;stroke-width:2;stroke-linecap:round;stroke-linejoin:miter;stroke-miterlimit:4;stroke-opacity:1" />
      <g
         transform="translate(571.067,-223.176)"
         id="g3837">
        <path
           style="opacity:1;fill:#0000ff;fill-opacity:1;fill-rule:nonzero;stroke:none;stroke-width:5;stroke-linecap:round;stroke-linejoin:bevel;stroke-miterlimit:4;stroke-dasharray:none;stroke-dashoffset:0;stroke-opacity:1"
           id="path3809"
           d="M -53.031248,831.2915 C -49.676438,813.22939 -40.914658,797.06718 -31.373178,781.59975 C -1.3315085,736.51266 43.290862,713.03536 89.647172,687.55378 C 136.40311,667.5299 187.37407,663.51333 237.53421,660.36755 C 281.46515,660.44013 320.86512,646.57429 358.95344,626.04208 C 323.78288,648.83985 379.70543,606.9295 388.9906,598.92988 L 425.94134,583.88354 C 396.46952,608.40709 366.12487,631.33122 331.30956,648.25689 C 293.21762,667.9769 253.80706,680.96171 210.30283,680.39816 C 160.25651,683.1519 109.57237,687.69347 63.322392,708.65674 C 72.679502,701.64534 11.950581,743.84721 3.3872014,766.2297 C -5.2673885,780.49441 -13.467178,795.36782 -15.540178,812.18885 L -53.031248,831.2915 z" />
        <path
           style="opacity:1;fill:#0000ff;fill-opacity:1;fill-rule:nonzero;stroke:none;stroke-width:6;stroke-linecap:round;stroke-linejoin:bevel;stroke-miterlimit:4;stroke-dasharray:none;stroke-dashoffset:0;stroke-opacity:1"
           d="M 705.39026,128.44109 L 451.9386,180.89766 L 450.13643,179.71378 L 448.77257,180.53775 L 448.60633,181.58763 L 448.00047,181.71308 L 448.35889,183.44413 L 386.77046,613.46069 L 756.88794,386.19828 L 758.70554,385.82193 L 758.57113,385.17279 L 759.45152,384.62944 L 759.66617,383.05052 L 757.89012,381.88379 L 705.39026,128.44109 z"
           id="rect3795" />
        <path
           style="fill:none;fill-rule:evenodd;stroke:#222caf;stroke-width:5;stroke-linecap:round;stroke-linejoin:miter;stroke-miterlimit:4;stroke-dasharray:none;stroke-opacity:1"
           d="M 700,135.21933 L 391.42857,603.79075"
           id="path3805" />
        <path
           style="fill:none;fill-rule:evenodd;stroke:#222caf;stroke-width:5;stroke-linecap:round;stroke-linejoin:miter;stroke-miterlimit:4;stroke-dasharray:none;stroke-opacity:1"
           d="M 748.57143,378.07647 L 451.42857,189.50504"
           id="path3807" />
        <g
           transform="matrix(0.578634,0.376936,-0.376936,0.578634,663.603,474.409)"
           id="g3819">
          <path
             sodipodi:type="star"
             style="opacity:1;fill:#000080;fill-opacity:1;fill-rule:nonzero;stroke:none;stroke-width:5;stroke-linecap:round;stroke-linejoin:bevel;stroke-miterlimit:4;stroke-dasharray:none;stroke-dashoffset:0;stroke-opacity:1"
             id="path3821"
             sodipodi:sides="3"
             sodipodi:cx="-288.57144"
             sodipodi:cy="440.93362"
             sodipodi:r1="93.590508"
             sodipodi:r2="55.218399"
             sodipodi:arg1="-1.0251413"
             sodipodi:arg2="0.022056251"
             inkscape:flatsided="false"
             inkscape:rounded="0.14"
             inkscape:randomized="0"
             d="M -240.00002,360.93363 C -230.2483,366.85431 -233.11487,430.74585 -233.36647,442.15144 C -233.61808,453.55702 -233.5718,517.51282 -243.57512,522.99771 C -253.57845,528.48261 -307.47686,494.05431 -317.22858,488.13362 C -326.9803,482.21294 -382.39079,450.27512 -382.13919,438.86954 C -381.88758,427.46395 -325.1226,398.00071 -315.11927,392.51581 C -305.11594,387.03092 -249.75174,355.01294 -240.00002,360.93363 z"
             transform="matrix(0.276339,0.464054,-0.464054,0.276339,-49.3357,502.193)" />
          <path
             transform="matrix(-0.276339,0.464054,0.464054,0.276339,-511.744,502.193)"
             d="M -240.00002,360.93363 C -230.2483,366.85431 -233.11487,430.74585 -233.36647,442.15144 C -233.61808,453.55702 -233.5718,517.51282 -243.57512,522.99771 C -253.57845,528.48261 -307.47686,494.05431 -317.22858,488.13362 C -326.9803,482.21294 -382.39079,450.27512 -382.13919,438.86954 C -381.88758,427.46395 -325.1226,398.00071 -315.11927,392.51581 C -305.11594,387.03092 -249.75174,355.01294 -240.00002,360.93363 z"
             inkscape:randomized="0"
             inkscape:rounded="0.14"
             inkscape:flatsided="false"
             sodipodi:arg2="0.022056251"
             sodipodi:arg1="-1.0251413"
             sodipodi:r2="55.218399"
             sodipodi:r1="93.590508"
             sodipodi:cy="440.93362"
             sodipodi:cx="-288.57144"
             sodipodi:sides="3"
             id="path3823"
             style="opacity:1;fill:#000080;fill-opacity:1;fill-rule:nonzero;stroke:none;stroke-width:5;stroke-linecap:round;stroke-linejoin:bevel;stroke-miterlimit:4;stroke-dasharray:none;stroke-dashoffset:0;stroke-opacity:1"
             sodipodi:type="star" />
        </g>
        <g
           transform="matrix(0.469681,0.506259,-0.506259,0.469681,584.967,584.068)"
           id="g3825">
          <path
             sodipodi:type="star"
             style="opacity:1;fill:#000080;fill-opacity:1;fill-rule:nonzero;stroke:none;stroke-width:5;stroke-linecap:round;stroke-linejoin:bevel;stroke-miterlimit:4;stroke-dasharray:none;stroke-dashoffset:0;stroke-opacity:1"
             id="path3827"
             sodipodi:sides="3"
             sodipodi:cx="-288.57144"
             sodipodi:cy="440.93362"
             sodipodi:r1="93.590508"
             sodipodi:r2="55.218399"
             sodipodi:arg1="-1.0251413"
             sodipodi:arg2="0.022056251"
             inkscape:flatsided="false"
             inkscape:rounded="0.14"
             inkscape:randomized="0"
             d="M -240.00002,360.93363 C -230.2483,366.85431 -233.11487,430.74585 -233.36647,442.15144 C -233.61808,453.55702 -233.5718,517.51282 -243.57512,522.99771 C -253.57845,528.48261 -307.47686,494.05431 -317.22858,488.13362 C -326.9803,482.21294 -382.39079,450.27512 -382.13919,438.86954 C -381.88758,427.46395 -325.1226,398.00071 -315.11927,392.51581 C -305.11594,387.03092 -249.75174,355.01294 -240.00002,360.93363 z"
             transform="matrix(0.276339,0.464054,-0.464054,0.276339,-49.3357,502.193)" />
          <path
             transform="matrix(-0.276339,0.464054,0.464054,0.276339,-511.744,502.193)"
             d="M -240.00002,360.93363 C -230.2483,366.85431 -233.11487,430.74585 -233.36647,442.15144 C -233.61808,453.55702 -233.5718,517.51282 -243.57512,522.99771 C -253.57845,528.48261 -307.47686,494.05431 -317.22858,488.13362 C -326.9803,482.21294 -382.39079,450.27512 -382.13919,438.86954 C -381.88758,427.46395 -325.1226,398.00071 -315.11927,392.51581 C -305.11594,387.03092 -249.75174,355.01294 -240.00002,360.93363 z"
             inkscape:randomized="0"
             inkscape:rounded="0.14"
             inkscape:flatsided="false"
             sodipodi:arg2="0.022056251"
             sodipodi:arg1="-1.0251413"
             sodipodi:r2="55.218399"
             sodipodi:r1="93.590508"
             sodipodi:cy="440.93362"
             sodipodi:cx="-288.57144"
             sodipodi:sides="3"
             id="path3829"
             style="opacity:1;fill:#000080;fill-opacity:1;fill-rule:nonzero;stroke:none;stroke-width:5;stroke-linecap:round;stroke-linejoin:bevel;stroke-miterlimit:4;stroke-dasharray:none;stroke-dashoffset:0;stroke-opacity:1"
             sodipodi:type="star" />
        </g>
        <g
           id="g3831"
           transform="matrix(0.589287,0.360053,-0.360053,0.589287,407.432,516.094)">
          <path
             transform="matrix(0.276339,0.464054,-0.464054,0.276339,-49.3357,502.193)"
             d="M -240.00002,360.93363 C -230.2483,366.85431 -233.11487,430.74585 -233.36647,442.15144 C -233.61808,453.55702 -233.5718,517.51282 -243.57512,522.99771 C -253.57845,528.48261 -307.47686,494.05431 -317.22858,488.13362 C -326.9803,482.21294 -382.39079,450.27512 -382.13919,438.86954 C -381.88758,427.46395 -325.1226,398.00071 -315.11927,392.51581 C -305.11594,387.03092 -249.75174,355.01294 -240.00002,360.93363 z"
             inkscape:randomized="0"
             inkscape:rounded="0.14"
             inkscape:flatsided="false"
             sodipodi:arg2="0.022056251"
             sodipodi:arg1="-1.0251413"
             sodipodi:r2="55.218399"
             sodipodi:r1="93.590508"
             sodipodi:cy="440.93362"
             sodipodi:cx="-288.57144"
             sodipodi:sides="3"
             id="path3833"
             style="opacity:1;fill:#000080;fill-opacity:1;fill-rule:nonzero;stroke:none;stroke-width:5;stroke-linecap:round;stroke-linejoin:bevel;stroke-miterlimit:4;stroke-dasharray:none;stroke-dashoffset:0;stroke-opacity:1"
             sodipodi:type="star" />
          <path
             sodipodi:type="star"
             style="opacity:1;fill:#000080;fill-opacity:1;fill-rule:nonzero;stroke:none;stroke-width:5;stroke-linecap:round;stroke-linejoin:bevel;stroke-miterlimit:4;stroke-dasharray:none;stroke-dashoffset:0;stroke-opacity:1"
             id="path3835"
             sodipodi:sides="3"
             sodipodi:cx="-288.57144"
             sodipodi:cy="440.93362"
             sodipodi:r1="93.590508"
             sodipodi:r2="55.218399"
             sodipodi:arg1="-1.0251413"
             sodipodi:arg2="0.022056251"
             inkscape:flatsided="false"
             inkscape:rounded="0.14"
             inkscape:randomized="0"
             d="M -240.00002,360.93363 C -230.2483,366.85431 -233.11487,430.74585 -233.36647,442.15144 C -233.61808,453.55702 -233.5718,517.51282 -243.57512,522.99771 C -253.57845,528.48261 -307.47686,494.05431 -317.22858,488.13362 C -326.9803,482.21294 -382.39079,450.27512 -382.13919,438.86954 C -381.88758,427.46395 -325.1226,398.00071 -315.11927,392.51581 C -305.11594,387.03092 -249.75174,355.01294 -240.00002,360.93363 z"
             transform="matrix(-0.276339,0.464054,0.464054,0.276339,-511.744,502.193)" />
        </g>
      </g>
    </g>
  </g>
</svg>
