<?xml version="1.0" encoding="UTF-8" standalone="no"?>
<!-- Created with Inkscape (http://www.inkscape.org/) -->
<svg
   xmlns:svg="http://www.w3.org/2000/svg"
   xmlns="http://www.w3.org/2000/svg"
   xmlns:xlink="http://www.w3.org/1999/xlink"
   xmlns:inkscape="http://www.inkscape.org/namespaces/inkscape"
   version="1.0"
   width="1606"
   height="1098"
   id="svg2832">
  <defs
     id="defs2834">
    <linearGradient
       id="linearGradient2409">
      <stop
         style="stop-color:#174c99;stop-opacity:1"
         offset="0"
         id="stop2411" />
      <stop
         style="stop-color:#174c99;stop-opacity:0"
         offset="1"
         id="stop2413" />
    </linearGradient>
    <linearGradient
       id="linearGradient3393">
      <stop
         style="stop-color:#ffffff;stop-opacity:1"
         offset="0"
         id="stop3395" />
      <stop
         style="stop-color:#ffffff;stop-opacity:0"
         offset="1"
         id="stop3397" />
    </linearGradient>
    <linearGradient
       id="linearGradient3377">
      <stop
         style="stop-color:#ffffff;stop-opacity:1"
         offset="0"
         id="stop3379" />
      <stop
         style="stop-color:#ffffff;stop-opacity:0"
         offset="1"
         id="stop3381" />
    </linearGradient>
    <linearGradient
       id="linearGradient5487">
      <stop
         style="stop-color:#ffffff;stop-opacity:1"
         offset="0"
         id="stop5489" />
      <stop
         style="stop-color:#ffffff;stop-opacity:0"
         offset="1"
         id="stop5491" />
    </linearGradient>
    <linearGradient
       id="linearGradient5447">
      <stop
         style="stop-color:#ffffff;stop-opacity:1"
         offset="0"
         id="stop5449" />
      <stop
         style="stop-color:#ffffff;stop-opacity:0"
         offset="1"
         id="stop5451" />
    </linearGradient>
    <linearGradient
       id="linearGradient5301">
      <stop
         style="stop-color:#618ce6;stop-opacity:1"
         offset="0"
         id="stop5303" />
      <stop
         style="stop-color:#4270cc;stop-opacity:1"
         offset="0.12308191"
         id="stop5305" />
      <stop
         style="stop-color:#335eb5;stop-opacity:1"
         offset="0.23778275"
         id="stop5307" />
      <stop
         style="stop-color:#153b88;stop-opacity:1"
         offset="0.58812571"
         id="stop2375" />
      <stop
         style="stop-color:#04215c;stop-opacity:1"
         offset="1"
         id="stop5309" />
    </linearGradient>
    <linearGradient
       id="linearGradient5233">
      <stop
         style="stop-color:#ffffff;stop-opacity:1"
         offset="0"
         id="stop5235" />
      <stop
         style="stop-color:#ffffff;stop-opacity:0"
         offset="1"
         id="stop5237" />
    </linearGradient>
    <linearGradient
       id="linearGradient5201">
      <stop
         style="stop-color:#bab5cc;stop-opacity:1"
         offset="0"
         id="stop5203" />
      <stop
         style="stop-color:#9fa2b3;stop-opacity:1"
         offset="0.15245232"
         id="stop5205" />
      <stop
         style="stop-color:#5b7bad;stop-opacity:0"
         offset="1"
         id="stop5209" />
    </linearGradient>
    <linearGradient
       id="linearGradient5107">
      <stop
         style="stop-color:#ffffff;stop-opacity:1"
         offset="0"
         id="stop5109" />
      <stop
         style="stop-color:#ffffff;stop-opacity:0"
         offset="1"
         id="stop5111" />
    </linearGradient>
    <linearGradient
       id="linearGradient5041">
      <stop
         style="stop-color:#ffffff;stop-opacity:1"
         offset="0"
         id="stop5043" />
      <stop
         style="stop-color:#ffffff;stop-opacity:0"
         offset="1"
         id="stop5045" />
    </linearGradient>
    <linearGradient
       id="linearGradient4989">
      <stop
         style="stop-color:#90b2f2;stop-opacity:1"
         offset="0"
         id="stop4991" />
      <stop
         style="stop-color:#5a83d4;stop-opacity:1"
         offset="0.16017057"
         id="stop4993" />
      <stop
         style="stop-color:#1b589d;stop-opacity:1"
         offset="0.46802819"
         id="stop4995" />
      <stop
         style="stop-color:#133d6d;stop-opacity:1"
         offset="1"
         id="stop4997" />
    </linearGradient>
    <linearGradient
       id="linearGradient4973">
      <stop
         style="stop-color:#417fd9;stop-opacity:1"
         offset="0"
         id="stop4975" />
      <stop
         style="stop-color:#215aa5;stop-opacity:1"
         offset="0.31859529"
         id="stop4981" />
      <stop
         style="stop-color:#002a7d;stop-opacity:1"
         offset="1"
         id="stop4977" />
    </linearGradient>
    <radialGradient
       cx="1980.41"
       cy="722.58002"
       r="803"
       fx="1980.41"
       fy="722.58002"
       id="radialGradient4979"
       xlink:href="#linearGradient4973"
       gradientUnits="userSpaceOnUse"
       gradientTransform="matrix(2.4402082,4.7661074e-7,0,0.9366494,-4654.8578,168.19947)" />
    <radialGradient
       cx="1954.2"
       cy="1056.48"
       r="803"
       fx="1954.2"
       fy="1056.48"
       id="radialGradient4987"
       xlink:href="#linearGradient4989"
       gradientUnits="userSpaceOnUse"
       gradientTransform="matrix(3.5496732,0,1.044317e-7,0.4774804,-5055.4693,376.0211)" />
    <radialGradient
       cx="1406.0699"
       cy="734.75"
       r="230"
       fx="1442.26"
       fy="842.62"
       id="radialGradient5047"
       xlink:href="#linearGradient5041"
       gradientUnits="userSpaceOnUse"
       gradientTransform="matrix(0.169966,0.6343216,-1.4075184,0.3771435,3996.1972,-423.0061)" />
    <radialGradient
       cx="2441.22"
       cy="515.88"
       r="221.84"
       fx="2441.22"
       fy="515.88"
       id="radialGradient5113"
       xlink:href="#linearGradient5107"
       gradientUnits="userSpaceOnUse"
       gradientTransform="matrix(1.8021193,-3.7931425e-6,-1.2729438e-6,0.9671375,-1591.902,160.29857)" />
    <filter
       height="1.25"
       id="filter5159"
       width="1.13"
       x="-0.059999999"
       y="-0.13">
      <feGaussianBlur
         id="feGaussianBlur5161"
         inkscape:collect="always"
         stdDeviation="14.569472" />
    </filter>
    <radialGradient
       cx="1965"
       cy="1154.4301"
       r="803"
       fx="1965"
       fy="1154.4301"
       id="radialGradient5199"
       xlink:href="#linearGradient5201"
       gradientUnits="userSpaceOnUse"
       gradientTransform="matrix(2.2538815,4.2926804e-7,0,0.348159,-4303.8492,-1263.9259)" />
    <linearGradient
       x1="2202.23"
       y1="900.42999"
       x2="2202.23"
       y2="880.41998"
       id="linearGradient5245"
       xlink:href="#linearGradient5233"
       gradientUnits="userSpaceOnUse" />
    <mask
       id="mask5241">
      <rect
         width="1606"
         height="323.53"
         rx="1.2778198"
         ry="1.2780105"
         x="1778.15"
         y="880.46997"
         style="fill:url(#linearGradient5245);fill-opacity:1"
         id="rect5243" />
    </mask>
    <filter
       height="1.27"
       id="filter5481"
       width="1.0700001"
       x="-0.039999999"
       y="-0.13">
      <feGaussianBlur
         id="feGaussianBlur5483"
         inkscape:collect="always"
         stdDeviation="13.997528" />
    </filter>
    <filter
       height="1.23"
       id="filter5507"
       width="1.09"
       x="-0.039999999"
       y="-0.11">
      <feGaussianBlur
         id="feGaussianBlur5509"
         inkscape:collect="always"
         stdDeviation="17.769381" />
    </filter>
    <radialGradient
       cx="354.73001"
       cy="849.72998"
       r="403.85999"
       fx="354.73001"
       fy="849.72998"
       id="radialGradient5515"
       xlink:href="#linearGradient5487"
       gradientUnits="userSpaceOnUse"
       gradientTransform="matrix(1.8860709,-0.1112438,2.4240389e-2,0.410981,-237.70606,592.95123)" />
    <radialGradient
       cx="503.01001"
       cy="747.15997"
       r="377.23999"
       fx="503.01001"
       fy="747.15997"
       id="radialGradient5517"
       xlink:href="#linearGradient5447"
       gradientUnits="userSpaceOnUse"
       gradientTransform="matrix(1.3859663,-0.1599394,4.9536909e-2,0.4292653,-277.02692,696.70747)" />
    <filter
       id="filter7590">
      <feGaussianBlur
         id="feGaussianBlur7592"
         inkscape:collect="always"
         stdDeviation="11.704211" />
    </filter>
    <radialGradient
       cx="2519.96"
       cy="-116.02"
       r="807"
       fx="2519.96"
       fy="-116.02"
       id="radialGradient2390"
       xlink:href="#linearGradient5301"
       gradientUnits="userSpaceOnUse"
       gradientTransform="matrix(-2.4051002,0,0,0.3611873,6250.8035,869.33967)" />
    <radialGradient
       cx="2053.6699"
       cy="358.26001"
       r="807"
       fx="2053.6699"
       fy="358.26001"
       id="radialGradient2393"
       xlink:href="#linearGradient5301"
       gradientUnits="userSpaceOnUse"
       gradientTransform="matrix(2.48757,0,0,0.2838373,-4848.8912,781.56713)" />
    <radialGradient
       cx="225.28999"
       cy="703.75"
       r="374.01001"
       fx="225.28999"
       fy="703.75"
       id="radialGradient4499"
       xlink:href="#linearGradient3377"
       gradientUnits="userSpaceOnUse"
       gradientTransform="matrix(2.3579602,8.0847352e-2,-2.2500928e-2,0.3213706,-291.32075,697.28538)" />
    <radialGradient
       cx="198.53"
       cy="625.16998"
       r="410.20999"
       fx="136.82001"
       fy="613.53998"
       id="radialGradient4549"
       xlink:href="#linearGradient3377"
       gradientUnits="userSpaceOnUse"
       gradientTransform="matrix(3.2425109,0.3792917,-4.1633046e-2,0.3186236,-111.27016,698.78251)" />
    <filter
       height="1.33"
       id="filter4680"
       width="1.08"
       x="-0.039999999"
       y="-0.16">
      <feGaussianBlur
         id="feGaussianBlur4682"
         inkscape:collect="always"
         stdDeviation="10.406224" />
    </filter>
    <radialGradient
       cx="179.75"
       cy="848.37"
       r="284.62"
       fx="179.75"
       fy="848.37"
       id="radialGradient4748"
       xlink:href="#linearGradient3393"
       gradientUnits="userSpaceOnUse"
       gradientTransform="matrix(2.101171,2.8705477e-5,0,0.4150813,-197.83559,610.32492)" />
    <filter
       id="filter4791">
      <feGaussianBlur
         id="feGaussianBlur4793"
         inkscape:collect="always"
         stdDeviation="10.205342" />
    </filter>
    <filter
       height="1.2"
       id="filter4795"
       width="1.05"
       x="-0.029999999"
       y="-0.1">
      <feGaussianBlur
         id="feGaussianBlur4797"
         inkscape:collect="always"
         stdDeviation="10.047438" />
    </filter>
    <radialGradient
       cx="79.599998"
       cy="2188.04"
       r="807"
       fx="79.599998"
       fy="2188.04"
       id="radialGradient2415"
       xlink:href="#linearGradient2409"
       gradientUnits="userSpaceOnUse"
       gradientTransform="matrix(0,-0.3668613,1.5865274,0,-3134.751,1386.0627)" />
  </defs>
  <g
     transform="translate(-1.9005991,-242)"
     id="layer1">
    <rect
       width="1606"
       height="1098"
       rx="1.2778198"
       ry="1.2780105"
       x="1.9"
       y="242"
       style="fill:url(#radialGradient4979);fill-opacity:1"
       id="rect4911" />
    <rect
       width="1606"
       height="439.53"
       rx="1.2778198"
       ry="0"
       x="1.9"
       y="-890"
       transform="scale(1,-1)"
       style="fill:url(#radialGradient5199);fill-opacity:1"
       id="rect5197" />
    <rect
       width="1606"
       height="323.53"
       rx="1.2778198"
       ry="1.1966393"
       x="1778.15"
       y="880.46997"
       transform="matrix(1,0,0,1.0679998,-1776.2522,-83.871692)"
       style="fill:url(#radialGradient4987);fill-opacity:1"
       mask="url(#mask5241)"
       id="rect4985" />
    <g
       transform="matrix(0.7285767,0,0,0.7285767,321.32188,222.09769)"
       style="opacity:0.55026455"
       id="g5511">
      <path
         d="M 65.05,1010.5 C 69.8,1003.15 71.86,968.6 79.2,953.93 C 85.9,940.53 115.39,966.03 118.79,968.07 C 137.55,979.32 148.7,983.42 164.05,968.07 C 175.97,956.14 192.68,959.58 209.3,959.58 C 213.56,959.58 207.9,921.04 223.45,917.16 C 242.67,912.35 259.14,922.81 277.19,922.81 C 302.98,922.81 297.26,950 308.3,905.84 C 313.01,887 320.65,887.2 336.58,883.22 C 347.37,880.52 373.12,911.27 381.84,919.99 C 396.6,934.74 403.14,939.78 424.26,939.78 C 455.6,939.78 454.47,935.09 480.83,948.27 C 507.51,961.61 500.45,985.88 531.74,962.41 C 551.07,947.92 562.39,939.47 577,919.99 C 587.04,906.6 584.81,889.78 593.97,877.56 C 604.57,863.43 629.76,870.03 644.88,866.25 C 666,860.97 670.34,843.71 670.34,823.82 C 670.34,804.56 707.88,809.68 721.25,809.68 C 733.86,809.68 758.24,835.36 763.68,840.79 C 775.14,852.26 781.92,863.23 794.79,880.39 C 807.18,896.91 812,908.05 823.07,922.81 C 828.12,929.55 858.48,935.14 868.33,948.27 C 880.32,964.26 865.5,982.21 854.18,993.52 C 835.5,1012.21 789.22,987.78 766.5,1010.5 C 748.75,1028.25 728.81,1031.52 712.76,1052.92 C 699.83,1070.17 688.78,1083.96 675.99,1101.01 C 660.46,1121.72 641,1120.8 616.6,1120.8 C 572.23,1120.8 513.39,1092.17 469.52,1081.21 C 441.79,1074.27 408,1078.38 379.01,1078.38 C 346.01,1078.38 313.01,1078.38 280.01,1078.38 C 247.05,1078.38 206.13,1083.24 175.36,1075.55 C 151.36,1069.55 139.39,1064.36 124.45,1044.44 C 115.12,1031.99 95.27,1025.12 82.02,1021.81 C 68.96,1018.54 69.66,1028.91 65.05,1010.5 z"
         transform="matrix(0.6568303,0,0,0.6568303,808.62724,221.42388)"
         style="opacity:0.62433861;fill:url(#radialGradient5515);fill-opacity:1;stroke:none;stroke-width:2;stroke-linecap:round;stroke-linejoin:round;filter:url(#filter5507)"
         id="path5485" />
      <path
         d="M 98.99,1089.69 C 120.88,1047.92 172.7,1063.94 203.42,1027.86 C 223.88,1003.84 202.6,974.48 254.56,970.9 C 293.57,968.21 310.09,947.57 339.51,989.16 C 378.18,1043.84 428.41,973.49 463.44,943.96 C 510.67,904.13 503.72,1024.14 575.46,1007.67 C 613.52,998.93 579.53,944.15 620.01,984.78 C 654.61,1019.51 750.28,983.32 754.47,1024.65 C 760.9,1088.03 854.68,1086.37 840.83,1121.38 C 819.56,1175.13 182.05,1122.31 114.29,1117.98 C 82.74,1115.96 86.3,1113.91 98.99,1089.69 z"
         transform="matrix(-0.6559976,2.6173182e-2,3.3064371e-2,0.5192763,1381.232,338.13924)"
         style="opacity:0.51322752;fill:url(#radialGradient5517);stroke:none;stroke-width:2;stroke-linecap:round;stroke-linejoin:round;filter:url(#filter5481)"
         id="path4473" />
    </g>
    <path
       d="M 3000,880 C 3008,862 3026,842 3048,848 C 3070,854 3074,848 3080,840 C 3086,832 3088,814 3096,812 C 3104,810 3138,814 3138,814 C 3138,814 3134,794 3140,782 C 3146,770 3170,766 3188,766 C 3206,766 3226,738 3236,732 C 3246,726 3262,728 3276,728 C 3290,728 3312,736 3320,726 C 3328,716 3344,698 3352,692 C 3360,686 3390,672 3394,680 C 3398,688 3400,712 3408,722 C 3416,732 3430,772 3430,772 L 3428,908 L 2972,902 L 3000,880 z"
       transform="matrix(1.0173605,0,0,1.0173605,-1843.555,-15.763372)"
       style="opacity:0.55026455;fill:url(#radialGradient5047);fill-opacity:1;stroke:none;stroke-width:2;filter:url(#filter5159)"
       id="path5031" />
    <path
       d="M -2.1,859.25 C 14.65,849.5 53.9,897.25 64.9,899.25 C 75.9,901.25 116.9,906.25 122.9,908.25 C 128.9,910.25 156.9,895.25 162.9,895.25 C 168.9,895.25 180.9,891.25 184.9,889.25 C 188.9,887.25 191.9,878.75 201.9,878.25 C 211.9,877.75 213.9,886.25 224.9,887.25 C 235.9,888.25 251.99,889.7 264.9,894.25 C 273.05,897.13 271.86,900.03 275.9,902.66 C 282.33,906.84 279.9,891.25 288.9,895.25 C 297.9,899.25 291.65,903.25 304.9,898.25 C 318.15,893.25 332.9,876.25 341.9,875.25 C 350.9,874.25 371.9,886.25 379.9,887.25 C 387.9,888.25 419.9,873.25 428.9,873.25 C 437.9,873.25 454.65,878 474.9,877.25 C 495.15,876.5 499.9,867.25 509.9,870.25 C 519.9,873.25 525.15,876.75 534.9,879.25 C 544.65,881.75 553.4,877.25 554.4,883.25 C 555.4,889.25 568.65,892 580.9,893.25 C 593.15,894.5 590.9,883.25 597.9,885.25 C 604.9,887.25 634.9,905.25 643.9,904.25 C 652.9,903.25 648.9,895.25 657.9,897.25 C 666.9,899.25 668.9,906.25 677.9,907.25 C 686.9,908.25 701.9,902.25 712.9,902.25 C 723.9,902.25 739.9,894.25 744.9,890.25 C 749.9,886.25 790.9,875.25 798.9,874.25 C 806.9,873.25 843.9,869.25 858.9,864.25 C 873.9,859.25 933.69,846.01 946.42,848.84 C 958.83,851.6 984.9,889.25 1004.9,890.25 C 1024.9,891.25 1073.9,894.25 1081.9,888.25 C 1089.9,882.25 1150.9,867.25 1158.9,874.25 C 1166.9,881.25 1210.9,866.25 1215.9,865.25 C 1217.79,864.88 1253.24,867.18 1258.06,879.3 C 1264.34,895.11 1304.79,908.11 1336.28,910.75 C 1361.72,912.88 1394.18,930.14 1453.88,912.11 C 1462.75,909.44 1505.58,894.41 1533.88,899.51 C 1551.03,902.6 1599.17,898 1611.9,904.53 L 1611.9,1206.25 L -2.1,1206.25 L -2.1,859.25 z"
       style="fill:url(#radialGradient2393);fill-opacity:1"
       id="path2952" />
    <path
       d="M 1611.9,934.72 C 1595.15,927.26 1555.9,963.8 1544.9,965.33 C 1533.9,966.86 1492.9,970.68 1486.9,972.21 C 1480.9,973.75 1452.9,962.27 1446.9,962.27 C 1440.9,962.27 1428.9,959.21 1424.9,957.68 C 1420.9,956.14 1417.9,949.64 1407.9,949.26 C 1397.9,948.87 1395.9,955.38 1384.9,956.14 C 1373.9,956.91 1357.81,958.01 1344.9,961.5 C 1336.75,963.7 1337.95,965.92 1333.9,967.93 C 1327.47,971.13 1329.9,959.21 1320.9,962.27 C 1311.9,965.33 1318.15,968.39 1304.9,964.56 C 1291.65,960.74 1276.9,947.73 1267.9,946.96 C 1258.9,946.2 1237.9,955.38 1229.9,956.14 C 1221.9,956.91 1189.9,945.43 1180.9,945.43 C 1171.9,945.43 1155.15,949.07 1134.9,948.49 C 1114.65,947.92 1109.9,940.84 1099.9,943.14 C 1089.9,945.43 1084.65,948.11 1074.9,950.02 C 1065.15,951.94 1056.4,948.49 1055.4,953.08 C 1054.4,957.68 1041.15,959.78 1028.9,960.74 C 1016.65,961.69 1018.9,953.08 1011.9,954.61 C 1004.9,956.14 974.9,969.92 965.9,969.15 C 956.9,968.39 960.9,962.27 951.9,963.8 C 942.9,965.33 940.9,970.68 931.9,971.45 C 922.9,972.21 907.9,967.62 896.9,967.62 C 885.9,967.62 869.9,961.5 864.9,958.44 C 859.9,955.38 818.9,946.96 810.9,946.2 C 802.9,945.43 765.9,942.37 750.9,938.54 C 735.9,934.72 676.11,924.59 663.39,926.75 C 650.97,928.86 624.9,957.68 604.9,958.44 C 584.9,959.21 535.9,961.5 527.9,956.91 C 519.9,952.32 458.9,940.84 450.9,946.2 C 442.9,951.55 398.9,940.07 393.9,939.31 C 392.01,939.02 356.56,940.78 351.74,950.06 C 345.46,962.16 305.01,972.1 273.52,974.12 C 248.08,975.75 215.62,988.96 155.92,975.17 C 147.05,973.12 104.22,961.62 75.92,965.52 C 58.77,967.89 10.63,964.37 -2.1,969.37 L -2.1,1356.86 L 1611.9,1356.86 L 1611.9,934.72 z"
       style="fill:url(#radialGradient2390);fill-opacity:1"
       id="path5521" />
    <path
       d="M 2706,842 C 2710,828 2727.51,824.73 2733.51,806.73 C 2750.05,771.39 2791.57,778.29 2820.24,786.1 C 2834.24,790.1 2860,794 2872,784 C 2884,774 2934,792 2936,758 C 2938,724 2940,690 2962,690 C 2984,690 3000,674 3008,652 C 3016,630 3034,622 3052,636 C 3070,650 3090,680 3096,696 C 3102,712 3090,866 3090,866 L 2654,864 C 2654,864 2686,846 2706,842 z"
       transform="matrix(0.7192698,0,0,0.7192698,-633.26983,268.83453)"
       style="opacity:0.55026455;fill:url(#radialGradient5113);fill-opacity:1;stroke:none;stroke-width:2;filter:url(#filter7590)"
       id="path5077" />
    <path
       d="M 1611.9,926.59 C 1092.12,988.7 541.25,881.36 -2.1,950.55 L -2.1,1356.86 L 1611.9,1356.86 L 1611.9,926.59 z"
       style="fill:url(#radialGradient2415);fill-opacity:1"
       id="path2393" />
    <g
       transform="matrix(-1.4379873,0,0,0.9848663,335.25299,-5.205834)"
       style="opacity:0.67841276"
       id="g4488">
      <path
         d="M 60.63,938 C 60.63,823.32 184.83,923.17 211.69,993.99 C 240.3,936.66 310.65,924.23 338.2,974.8 C 380.45,974.24 390.98,1060.84 420.58,993.27 C 466.04,929.36 510.27,1026.45 520.16,1063.36 C 549.52,1066.02 573.25,1032.67 592.54,1071.1 C 625.21,1038.32 650.32,1091.34 687.34,1072.07 C 716.98,1109.95 777.03,1086.65 779.79,1135.65 C 824.62,1143.76 875.04,1136.68 875.04,1183.37 L 56.63,1183.37 C -81.83,1139.92 -83.26,1030.75 60.63,938 z"
         transform="matrix(-0.8490074,0,0,0.8709329,326.40978,136.66583)"
         style="opacity:0.6931217;fill:url(#radialGradient4549);fill-opacity:1;stroke-width:2;stroke-linecap:round;stroke-linejoin:round;filter:url(#filter4791)"
         id="path3370" />
      <path
         d="M 47.2,969.57 C 69.23,952.74 87.74,999.98 93.7,955.62 C 128.06,964.69 156.42,1037.78 192.96,979.2 C 223.69,948.78 268.71,958.9 290.41,979.5 C 331.6,979.29 370.2,1026.37 405.33,998.24 C 444.31,1037.27 506.06,1063.53 548.66,1057.64 C 576.37,1094.67 632.16,1011.46 648.63,1071.29 C 709.92,1051.32 701.69,1150.45 740.57,1150.27 C 684.62,1162.01 646.78,1105.33 593.24,1096.99 C 534.74,1075.89 469.35,1077.74 412.58,1103.34 C 331.89,1117.5 250.35,1093.31 169.01,1099.19 C -187.82,1162.94 -39.51,921.52 47.2,969.57 z"
         transform="matrix(0.8399438,0,0,1.1885986,-76.591624,-156.46368)"
         style="opacity:1;fill:url(#radialGradient4499);fill-opacity:1;stroke-width:2;stroke-linecap:round;stroke-linejoin:round;filter:url(#filter4795)"
         id="path3373" />
      <path
         d="M -57.94,1078.31 C -30.99,1024.77 38.42,1012.92 92.39,1022.53 C 133.13,1016.95 172.28,985.01 218.48,1002.64 C 257.95,1014.05 291.37,1037.91 332.98,1018.51 C 392.52,1013.09 455.22,1033.54 496.72,1077.34 C 500.47,1115.17 451.47,1115.49 425.27,1111.5 C 376.16,1106.32 327.34,1093.58 277.71,1097.88 C 176.17,1086.47 77.42,1131.54 -23.9,1119.73 C -38.55,1117.35 -52.93,1113.02 -66.26,1106.44"
         transform="matrix(0.5086658,0,0,0.7737333,-160.61189,275.68972)"
         style="opacity:1;fill:url(#radialGradient4748);fill-opacity:1;stroke-width:2;stroke-linecap:round;stroke-linejoin:round;filter:url(#filter4680)"
         id="path3375" />
    </g>
  </g>
</svg>
