<?xml version="1.0" encoding="UTF-8" standalone="no"?>
<!-- Created with Inkscape (http://www.inkscape.org/) -->

<svg
   xmlns:dc="http://purl.org/dc/elements/1.1/"
   xmlns:cc="http://creativecommons.org/ns#"
   xmlns:rdf="http://www.w3.org/1999/02/22-rdf-syntax-ns#"
   xmlns:svg="http://www.w3.org/2000/svg"
   xmlns="http://www.w3.org/2000/svg"
   xmlns:xlink="http://www.w3.org/1999/xlink"
   xmlns:sodipodi="http://sodipodi.sourceforge.net/DTD/sodipodi-0.dtd"
   xmlns:inkscape="http://www.inkscape.org/namespaces/inkscape"
   width="671.4375"
   height="980.86102"
   id="svg2"
   version="1.1"
   inkscape:version="0.47pre4 r22446"
   sodipodi:docname="clouds_dark.svg">
  <defs
     id="defs4">
    <linearGradient
       inkscape:collect="always"
       id="linearGradient3810">
      <stop
         style="stop-color:#ffffff;stop-opacity:1"
         offset="0"
         id="stop3812" />
      <stop
         id="stop3814"
         offset="0.48905578"
         style="stop-color:#d3d7cf;stop-opacity:1" />
      <stop
         style="stop-color:#00484d;stop-opacity:1"
         offset="1"
         id="stop3816" />
    </linearGradient>
    <linearGradient
       id="linearGradient3802"
       inkscape:collect="always">
      <stop
         id="stop3804"
         offset="0"
         style="stop-color:#ffffff;stop-opacity:1" />
      <stop
         style="stop-color:#d3d7cf;stop-opacity:1"
         offset="0.69438225"
         id="stop3806" />
      <stop
         id="stop3808"
         offset="1"
         style="stop-color:#00484d;stop-opacity:1" />
    </linearGradient>
    <linearGradient
       inkscape:collect="always"
       id="linearGradient3794">
      <stop
         style="stop-color:#ffffff;stop-opacity:1"
         offset="0"
         id="stop3796" />
      <stop
         id="stop3798"
         offset="0.48905578"
         style="stop-color:#d3d7cf;stop-opacity:1" />
      <stop
         style="stop-color:#00484d;stop-opacity:1"
         offset="1"
         id="stop3800" />
    </linearGradient>
    <linearGradient
       inkscape:collect="always"
       id="linearGradient3786">
      <stop
         style="stop-color:#00a7b3;stop-opacity:1"
         offset="0"
         id="stop3788" />
      <stop
         style="stop-color:#00484d;stop-opacity:1"
         offset="1"
         id="stop3790" />
    </linearGradient>
    <inkscape:path-effect
       fuse_tolerance="0"
       vertical_pattern="false"
       prop_units="false"
       tang_offset="0"
       normal_offset="0"
       spacing="0"
       scale_y_rel="false"
       prop_scale="1"
       copytype="single_stretched"
       pattern="m 36,26 0,10 10,-5 z"
       is_visible="true"
       id="path-effect3816"
       effect="skeletal" />
    <inkscape:path-effect
       effect="skeletal"
       id="path-effect3810"
       is_visible="true"
       pattern="m 124,-32 0,10 10,-5 z"
       copytype="single_stretched"
       prop_scale="1"
       scale_y_rel="false"
       spacing="0"
       normal_offset="0"
       tang_offset="0"
       prop_units="false"
       vertical_pattern="false"
       fuse_tolerance="0" />
    <linearGradient
       inkscape:collect="always"
       id="linearGradient3753">
      <stop
         style="stop-color:#ffffff;stop-opacity:1"
         offset="0"
         id="stop3755" />
      <stop
         id="stop3757"
         offset="0.69438225"
         style="stop-color:#d3d7cf;stop-opacity:1" />
      <stop
         style="stop-color:#60d7db;stop-opacity:1"
         offset="1"
         id="stop3759" />
    </linearGradient>
    <linearGradient
       id="linearGradient3745"
       inkscape:collect="always">
      <stop
         id="stop3747"
         offset="0"
         style="stop-color:#ffffff;stop-opacity:1" />
      <stop
         style="stop-color:#d3d7cf;stop-opacity:1"
         offset="0.48905578"
         id="stop3751" />
      <stop
         id="stop3749"
         offset="1"
         style="stop-color:#60d7db;stop-opacity:1" />
    </linearGradient>
    <inkscape:perspective
       sodipodi:type="inkscape:persp3d"
       inkscape:vp_x="0 : 526.18109 : 1"
       inkscape:vp_y="0 : 1000 : 0"
       inkscape:vp_z="744.09448 : 526.18109 : 1"
       inkscape:persp3d-origin="372.04724 : 350.78739 : 1"
       id="perspective10" />
    <linearGradient
       inkscape:collect="always"
       xlink:href="#linearGradient3753"
       id="linearGradient2902"
       x1="351.42856"
       y1="349.50504"
       x2="372.85938"
       y2="648.93359"
       gradientUnits="userSpaceOnUse"
       gradientTransform="translate(-21.202265,278)" />
    <linearGradient
       inkscape:collect="always"
       xlink:href="#linearGradient3745"
       id="linearGradient2906"
       gradientUnits="userSpaceOnUse"
       x1="351.42856"
       y1="349.50504"
       x2="416.85938"
       y2="696.93359"
       gradientTransform="matrix(-1,0,0,1,724.51649,29.42857)" />
    <linearGradient
       inkscape:collect="always"
       xlink:href="#linearGradient3745"
       id="linearGradient2914"
       x1="314.28571"
       y1="885.82812"
       x2="314.28571"
       y2="1083.7908"
       gradientUnits="userSpaceOnUse"
       gradientTransform="translate(-21.202265,-1.71429)" />
    <linearGradient
       inkscape:collect="always"
       xlink:href="#linearGradient3745"
       id="linearGradient3791"
       gradientUnits="userSpaceOnUse"
       gradientTransform="matrix(-0.58194595,0.07377399,0.07377399,0.58194595,334.74316,-21.157268)"
       x1="351.42856"
       y1="349.50504"
       x2="416.85938"
       y2="696.93359" />
    <linearGradient
       inkscape:collect="always"
       xlink:href="#linearGradient3794"
       id="linearGradient3780"
       gradientUnits="userSpaceOnUse"
       gradientTransform="matrix(-1,0,0,1,724.51649,29.42857)"
       x1="351.42856"
       y1="349.50504"
       x2="416.85938"
       y2="696.93359" />
    <linearGradient
       inkscape:collect="always"
       xlink:href="#linearGradient3802"
       id="linearGradient3782"
       gradientUnits="userSpaceOnUse"
       gradientTransform="translate(-21.202265,278)"
       x1="351.42856"
       y1="349.50504"
       x2="372.85938"
       y2="648.93359" />
    <linearGradient
       inkscape:collect="always"
       xlink:href="#linearGradient3810"
       id="linearGradient3784"
       gradientUnits="userSpaceOnUse"
       gradientTransform="translate(-21.202265,-1.71429)"
       x1="314.28571"
       y1="885.82812"
       x2="314.28571"
       y2="1083.7908" />
    <linearGradient
       inkscape:collect="always"
       xlink:href="#linearGradient3786"
       id="linearGradient3792"
       x1="297.95398"
       y1="-33.9235"
       x2="351.66827"
       y2="618.07648"
       gradientUnits="userSpaceOnUse" />
    <linearGradient
       inkscape:collect="always"
       xlink:href="#linearGradient3786"
       id="linearGradient7110"
       gradientUnits="userSpaceOnUse"
       x1="297.95398"
       y1="-33.9235"
       x2="351.66827"
       y2="618.07648" />
  </defs>
  <sodipodi:namedview
     id="base"
     pagecolor="#ffffff"
     bordercolor="#666666"
     borderopacity="1.0"
     inkscape:pageopacity="0.0"
     inkscape:pageshadow="2"
     inkscape:zoom="0.5"
     inkscape:cx="499.58643"
     inkscape:cy="320.81544"
     inkscape:document-units="px"
     inkscape:current-layer="layer1"
     showgrid="false"
     inkscape:window-width="1272"
     inkscape:window-height="953"
     inkscape:window-x="0"
     inkscape:window-y="0"
     inkscape:window-maximized="1" />
  <metadata
     id="metadata7">
    <rdf:RDF>
      <cc:Work
         rdf:about="">
        <dc:format>image/svg+xml</dc:format>
        <dc:type
           rdf:resource="http://purl.org/dc/dcmitype/StillImage" />
        <dc:title></dc:title>
      </cc:Work>
    </rdf:RDF>
  </metadata>
  <g
     inkscape:label="Capa 1"
     inkscape:groupmode="layer"
     id="layer1"
     transform="translate(-15.953985,-38.0765)">
    <g
       id="g3774"
       transform="matrix(1,0,0,-1,0,1057.014)">
      <rect
         ry="6.0316992"
         y="38.076469"
         x="15.953985"
         height="980"
         width="671.42859"
         id="rect2827"
         style="fill:url(#linearGradient7110);fill-opacity:1;stroke:none" />
      <path
         id="path2904"
         d="m 523.48524,278.75 c -31.13572,0 -57.48211,20.04316 -66.375,47.6875 -19.842,-17.91238 -46.33438,-28.84375 -75.4375,-28.84375 -58.17481,0 -105.94997,43.72172 -111,99.46875 -17.37527,0.93748 -33.47813,6.50322 -47.09375,15.4375 -23.86535,-46.97852 -73.3324,-79.28125 -130.500005,-79.28125 -28.32814,0 -54.75315,7.94116 -77.125,21.65625 l 0,383.6875 c 23.89773,19.83743 54.80155,31.8125 88.562505,31.8125 40.28608,0 76.50309,-17.03879 101.59375,-44.15625 22.22421,15.21362 49.24445,24.15625 78.40625,24.15625 44.23433,0 83.57845,-20.53331 108.65625,-52.40625 13.46184,4.32934 27.84263,6.6875 42.78125,6.6875 20.08396,0 39.15384,-4.23885 56.34375,-11.84375 24.6546,23.26175 58.14307,37.5625 95.0625,37.5625 39.43019,0 74.97883,-16.31486 100,-42.4375 l 0,-298.0625 c -8.26976,-2.42325 -17.0204,-3.71875 -26.09375,-3.71875 -5.9948,0 -11.85907,0.57311 -17.53125,1.65625 -4.17377,-24.21374 -25.13688,-42.82148 -50.75,-43.90625 -1.64031,-36.25814 -32.11216,-65.15625 -69.5,-65.15625 z"
         style="fill:url(#linearGradient3780);fill-opacity:1;stroke:none" />
      <path
         id="path2841"
         d="m 321.64149,546.15625 c -38.76143,0 -72.88166,19.40376 -92.84375,48.84375 -13.86991,-7.8677 -29.97954,-12.375 -47.15625,-12.375 -42.78005,0 -78.87518,27.94162 -90.406255,66.21875 -14.182805,-8.94441 -31.07063,-14.125 -49.1875,-14.125 -9.073355,0 -17.823987,1.2955 -26.09375,3.71875 l 0,298.0625 c 25.021172,26.12264 60.569808,42.4375 100.000005,42.4375 36.91943,0 70.4079,-14.30075 95.0625,-37.5625 17.18991,7.6049 36.25979,11.84375 56.34375,11.84375 14.93862,0 29.31941,-2.35816 42.78125,-6.6875 25.0778,31.87294 64.42192,52.40625 108.65625,52.40625 29.1618,0 56.18204,-8.94263 78.40625,-24.15625 25.09066,27.11745 61.30767,44.15625 101.59375,44.15625 33.76095,0 64.66477,-11.9751 88.5625,-31.8125 l 0,-383.6875 c -22.37185,-13.71509 -48.79686,-21.65625 -77.125,-21.65625 -57.1676,0 -106.63465,32.30273 -130.5,79.28125 -13.61562,-8.93428 -29.71848,-14.50002 -47.09375,-15.4375 -5.05003,-55.74703 -52.82519,-99.46875 -111,-99.46875 z"
         style="fill:url(#linearGradient3782);fill-opacity:1;stroke:none" />
      <path
         id="rect2863"
         d="m 687.36024,751.87946 c -58.99135,5.9866 -106.88238,48.64239 -119.5625,104.3125 -7.58415,-1.19449 -15.35357,-1.84375 -23.28125,-1.84375 -65.16214,0 -120.331,41.93747 -138.96875,99.78125 -6.35319,-2.05852 -13.00412,-3.46545 -19.875,-4.15625 1.12138,-6.21769 1.6875,-12.59182 1.6875,-19.125 0,-60.33363 -49.86595,-109.25 -111.40625,-109.25 -58.14802,0 -105.91298,43.66474 -111,99.375 -1.09648,-0.037 -2.20682,-0.0625 -3.3125,-0.0625 -11.90993,0 -23.28995,2.17461 -33.78125,6.125 -16.66931,-20.72159 -42.523725,-34.03125 -71.531255,-34.03125 -14.501988,0 -28.206558,3.33489 -40.375,9.25 l 0,108.06244 c 0,3.3416 2.689689,6.0313 6.03125,6.0313 l 659.343755,0 c 3.34156,0 6.03125,-2.6897 6.03125,-6.0313 l 0,-258.43744 z"
         style="fill:url(#linearGradient3784);fill-opacity:1;stroke:none" />
      <g
         id="g4012"
         transform="matrix(0.17750932,0,0,0.65086706,-748.88487,213.79972)" />
      <path
         style="opacity:0.7;fill:#ffffff;fill-opacity:1;stroke:none"
         d="m 20,0.875 2.75,35.6875 c 0.167164,2.168479 1.171458,3.833143 2.25,3.75 1.078542,-0.08314 1.792164,-1.894021 1.625,-4.0625 L 23.90625,0.875 20,0.875 z m 22.6875,0 L 44,17.90625 c 0.167164,2.168479 1.171458,3.833143 2.25,3.75 1.078542,-0.08314 1.792164,-1.894021 1.625,-4.0625 L 46.59375,0.875 l -3.90625,0 z m 19.4375,0 1.1875,15.53125 c 0.167164,2.168479 1.171458,3.833143 2.25,3.75 1.078542,-0.08314 1.823414,-1.894021 1.65625,-4.0625 L 66.03125,0.875 l -3.90625,0 z m 22.6875,0 2.375,30.71875 c 0.167164,2.168479 1.171458,3.833143 2.25,3.75 1.078542,-0.08314 1.792164,-1.894021 1.625,-4.0625 L 88.71875,0.875 l -3.90625,0 z m 107.15625,0 5.53125,71.6875 c 0.16716,2.168479 1.17146,3.833143 2.25,3.75 1.07854,-0.08314 1.82341,-1.894021 1.65625,-4.0625 L 195.875,0.875 l -3.90625,0 z m 22.6875,0 4.09375,53.03125 c 0.16716,2.168479 1.17146,3.833143 2.25,3.75 1.07854,-0.08314 1.82341,-1.894021 1.65625,-4.0625 l -4.0625,-52.71875 -3.9375,0 z m 17.4375,0 5.28125,68.625 c 0.16716,2.168479 1.17146,3.833143 2.25,3.75 1.07854,-0.08314 1.82341,-1.894021 1.65625,-4.0625 l -5.25,-68.3125 -3.9375,0 z m 22.6875,0 3.84375,49.9375 c 0.16716,2.168479 1.17146,3.864393 2.25,3.78125 1.07854,-0.08314 1.82341,-1.894021 1.65625,-4.0625 l -3.8125,-49.65625 -3.9375,0 z m 17.25,0 c -1.00651,0.1965595 -1.69878,1.7007927 -1.5625,3.46875 l 5.1875,67.3125 c 0.14221,1.844825 1.14021,3.270643 2.21875,3.1875 1.07854,-0.08314 1.82971,-1.655175 1.6875,-3.5 L 274.375,4.03125 C 274.25057,2.4170281 273.47801,1.1174335 272.5625,0.875 l -0.53125,0 z m 20.84375,0 4.03125,52.125 c 0.14221,1.844825 1.14021,3.270643 2.21875,3.1875 1.07854,-0.08314 1.82971,-1.655175 1.6875,-3.5 l -4,-51.8125 -3.9375,0 z m 19.4375,0 3.90625,50.625 c 0.14221,1.844825 1.14021,3.270643 2.21875,3.1875 1.07854,-0.08314 1.82971,-1.623925 1.6875,-3.46875 L 316.25,0.875 l -3.9375,0 z m 22.71875,0 5.0625,65.8125 c 0.14221,1.844825 1.14021,3.270643 2.21875,3.1875 1.07854,-0.08314 1.82971,-1.655175 1.6875,-3.5 l -5.0625,-65.5 -3.90625,0 z m 15.40625,0 3.28125,42.625 c 0.16716,2.168479 1.17146,3.833143 2.25,3.75 1.07854,-0.08314 1.82341,-1.894021 1.65625,-4.0625 l -3.25,-42.3125 -3.9375,0 z m 22.71875,0 4.4375,57.8125 c 0.16716,2.168479 1.17146,3.833143 2.25,3.75 1.07854,-0.08314 1.82341,-1.894021 1.65625,-4.0625 l -4.4375,-57.5 -3.90625,0 z m 17.40625,0 3.0625,39.53125 c 0.16716,2.168479 1.14021,3.864393 2.21875,3.78125 1.07854,-0.08314 1.82341,-1.894021 1.65625,-4.0625 l -3.03125,-39.25 -3.90625,0 z m 22.6875,0 4.21875,54.71875 c 0.16716,2.168479 1.17146,3.864393 2.25,3.78125 1.07854,-0.08314 1.82341,-1.894021 1.65625,-4.0625 l -4.1875,-54.4375 -3.9375,0 z m 22.40625,0 2.25,29.25 c 0.16716,2.168479 1.17146,3.864393 2.25,3.78125 1.07854,-0.08314 1.82341,-1.894021 1.65625,-4.0625 L 439.59375,0.875 l -3.9375,0 z m 22.71875,0 0.8125,10.59375 c 0.16716,2.168479 1.14021,3.864393 2.21875,3.78125 1.07854,-0.08314 1.82341,-1.894021 1.65625,-4.0625 l -0.78125,-10.3125 -3.90625,0 z m 17.40625,0 2.03125,26.1875 c 0.16716,2.168479 1.14021,3.833143 2.21875,3.75 1.07854,-0.08314 1.82341,-1.894021 1.65625,-4.0625 l -2,-25.875 -3.90625,0 z m 22.6875,0 0.59375,7.53125 c 0.16716,2.168479 1.17146,3.833143 2.25,3.75 1.07854,-0.08314 1.79216,-1.894021 1.625,-4.0625 L 502.375,0.875 l -3.90625,0 z m 15.40625,0 2.1875,28.34375 c 0.14221,1.844825 1.14021,3.270643 2.21875,3.1875 1.07854,-0.08314 1.82971,-1.623925 1.6875,-3.46875 L 517.8125,0.875 l -3.9375,0 z m 22.71875,0 0.75,9.6875 c 0.14221,1.844825 1.10896,3.270643 2.1875,3.1875 1.07854,-0.08314 1.82971,-1.623925 1.6875,-3.46875 L 540.5,0.875 l -3.90625,0 z m 19.4375,0 0.625,8.21875 c 0.14221,1.844825 1.10896,3.239393 2.1875,3.15625 1.07854,-0.08314 1.82971,-1.623925 1.6875,-3.46875 L 559.9375,0.875 l -3.90625,0 z m 22.65625,0 1.8125,23.375 c 0.14221,1.844825 1.14021,3.270643 2.21875,3.1875 1.07854,-0.08314 1.82971,-1.623925 1.6875,-3.46875 L 582.625,0.875 l -3.9375,0 z m 15.46875,0 0,0.1875 c 0.16716,2.1684786 1.17146,3.8643928 2.25,3.78125 1.06239,-0.081898 1.76378,-1.8435998 1.625,-3.96875 l -3.875,0 z m 22.65625,0 L 618,16.25 c 0.16716,2.168479 1.17146,3.833143 2.25,3.75 1.07854,-0.08314 1.82341,-1.894021 1.65625,-4.0625 L 620.75,0.875 l -3.9375,0 z m 18.125,0 c 0.38745,0.5652958 0.85458,0.9127092 1.34375,0.875 0.43816,-0.033777 0.81063,-0.3627991 1.09375,-0.875 l -2.4375,0 z m 22.03125,0 0.9375,12.3125 c 0.16716,2.168479 1.14021,3.833143 2.21875,3.75 1.07854,-0.08314 1.82341,-1.894021 1.65625,-4.0625 l -0.9375,-12 -3.875,0 z m -513.875,10.09375 c -1.07854,0.08314 -1.82341,1.894021 -1.65625,4.0625 l 6.09375,79.125 c 0.16716,2.168479 1.17146,3.864393 2.25,3.78125 1.07854,-0.08314 1.82341,-1.894021 1.65625,-4.0625 l -6.09375,-79.15625 c -0.16716,-2.168479 -1.17146,-3.833143 -2.25,-3.75 z m -39.90625,3.0625 c -1.07854,0.08314 -1.79216,1.894021 -1.625,4.0625 L 107.65625,97.25 c 0.16716,2.168479 1.17146,3.83314 2.25,3.75 1.07854,-0.0831 1.82341,-1.894021 1.65625,-4.0625 l -6.125,-79.125 c -0.16716,-2.168479 -1.17146,-3.864393 -2.25,-3.78125 z m 534.1875,2 c -1.07854,0.08314 -1.82971,1.623925 -1.6875,3.46875 l 5.1875,67.34375 c 0.14221,1.844825 1.14021,3.239393 2.21875,3.15625 1.07854,-0.08314 1.82971,-1.623925 1.6875,-3.46875 l -5.1875,-67.3125 c -0.14221,-1.844825 -1.14021,-3.270643 -2.21875,-3.1875 z M 597.5,19.125 c -1.07854,0.08314 -1.82971,1.623925 -1.6875,3.46875 L 601,89.90625 c 0.14221,1.844825 1.10896,3.270643 2.1875,3.1875 1.07854,-0.08314 1.82971,-1.655175 1.6875,-3.5 l -5.1875,-67.3125 C 599.54529,20.436425 598.57854,19.041857 597.5,19.125 z M 8.125,21.375 c -1.0785419,0.08314 -1.823414,1.894021 -1.65625,4.0625 l 6.09375,79.125 c 0.167164,2.16848 1.171458,3.86439 2.25,3.78125 1.078542,-0.0831 1.823414,-1.92527 1.65625,-4.09375 l -6.125,-79.125 C 10.176586,22.956521 9.2035419,21.291857 8.125,21.375 z m 158.8125,4.78125 c -1.07854,0.08314 -1.79216,1.894021 -1.625,4.0625 l 6.09375,79.125 c 0.16716,2.16848 1.17146,3.83314 2.25,3.75 1.07854,-0.0831 1.79216,-1.89402 1.625,-4.0625 l -6.09375,-79.125 c -0.16716,-2.168479 -1.17146,-3.833143 -2.25,-3.75 z m 335.46875,0.28125 c -1.07854,0.08314 -1.82971,1.623925 -1.6875,3.46875 l 5.1875,67.34375 c 0.14221,1.844825 1.10896,3.23939 2.1875,3.15625 1.07854,-0.0831 1.82971,-1.623925 1.6875,-3.46875 l -5.1875,-67.3125 c -0.14221,-1.844825 -1.10896,-3.270643 -2.1875,-3.1875 z M 127.0625,29.21875 c -1.07854,0.08314 -1.82341,1.894021 -1.65625,4.0625 l 6.125,79.125 c 0.16716,2.16848 1.17146,3.86439 2.25,3.78125 1.07854,-0.0831 1.79216,-1.89402 1.625,-4.0625 L 129.3125,33 c -0.16716,-2.168479 -1.17146,-3.864393 -2.25,-3.78125 z M 462.53125,29.5 c -1.07854,0.08314 -1.82971,1.655175 -1.6875,3.5 l 5.1875,67.3125 c 0.14221,1.84483 1.10896,3.27064 2.1875,3.1875 1.07854,-0.0831 1.82971,-1.65517 1.6875,-3.5 l -5.1875,-67.3125 c -0.14221,-1.844825 -1.10896,-3.270643 -2.1875,-3.1875 z M 661.25,31.21875 c -1.07854,0.08314 -1.82971,1.623925 -1.6875,3.46875 l 5.1875,67.34375 c 0.14221,1.84483 1.10896,3.23939 2.1875,3.15625 1.07854,-0.0831 1.82971,-1.62392 1.6875,-3.46875 l -5.1875,-67.3125 c -0.14221,-1.844825 -1.10896,-3.270643 -2.1875,-3.1875 z m -39.90625,3.0625 c -1.07854,0.08314 -1.82971,1.655175 -1.6875,3.5 l 5.1875,67.3125 c 0.14221,1.84483 1.14021,3.27064 2.21875,3.1875 1.07854,-0.0831 1.82971,-1.65517 1.6875,-3.5 l -5.1875,-67.3125 c -0.14221,-1.844825 -1.14021,-3.270643 -2.21875,-3.1875 z M 66.65625,34.4375 c -1.078542,0.08314 -1.829714,1.655175 -1.6875,3.5 l 5.1875,67.3125 c 0.142214,1.84483 1.140208,3.27064 2.21875,3.1875 1.078542,-0.0831 1.829714,-1.65517 1.6875,-3.5 L 68.875,37.625 c -0.142214,-1.844825 -1.140208,-3.270643 -2.21875,-3.1875 z m -19.3125,1.5 c -1.078542,0.08314 -1.829714,1.623925 -1.6875,3.46875 l 5.1875,67.3125 c 0.142214,1.84483 1.140208,3.27064 2.21875,3.1875 1.078542,-0.0831 1.829714,-1.62392 1.6875,-3.46875 L 49.5625,39.125 c -0.142214,-1.844825 -1.140208,-3.270643 -2.21875,-3.1875 z m 514,8.78125 c -1.07854,0.08314 -1.82866,1.60634 -1.6875,3.4375 l 5.15625,66.8125 c 0.14116,1.83116 1.10896,3.23939 2.1875,3.15625 1.07854,-0.0831 1.85991,-1.60634 1.71875,-3.4375 L 563.5625,47.875 c -0.14116,-1.83116 -1.14021,-3.239393 -2.21875,-3.15625 z m -80.1875,0.375 c -1.07854,0.08314 -1.82971,1.655175 -1.6875,3.5 l 5.1875,67.3125 c 0.14221,1.84483 1.10896,3.27064 2.1875,3.1875 1.07854,-0.0831 1.82971,-1.65517 1.6875,-3.5 l -5.1875,-67.3125 c -0.14221,-1.844825 -1.10896,-3.270643 -2.1875,-3.1875 z m 60.875,1.09375 c -1.07854,0.08314 -1.82866,1.63759 -1.6875,3.46875 l 5.15625,66.8125 c 0.14116,1.83116 1.10896,3.23939 2.1875,3.15625 1.07854,-0.0831 1.85991,-1.63759 1.71875,-3.46875 L 544.25,49.34375 c -0.14116,-1.83116 -1.14021,-3.239393 -2.21875,-3.15625 z m -100.78125,2 c -1.07854,0.08314 -1.82971,1.623925 -1.6875,3.46875 l 5.1875,67.3125 c 0.14221,1.84483 1.14021,3.27064 2.21875,3.1875 1.07854,-0.0831 1.82971,-1.62392 1.6875,-3.46875 l -5.1875,-67.34375 C 443.32654,49.498925 442.32854,48.104357 441.25,48.1875 z M 90.53125,49.625 c -1.078542,0.08314 -1.829714,1.623925 -1.6875,3.46875 l 5.1875,67.34375 c 0.142214,1.84483 1.108958,3.23939 2.1875,3.15625 1.078542,-0.0831 1.829714,-1.62392 1.6875,-3.46875 l -5.1875,-67.3125 c -0.142214,-1.844825 -1.108958,-3.270643 -2.1875,-3.1875 z m -64.4375,4.96875 c -1.078542,0.08314 -1.829714,1.623925 -1.6875,3.46875 l 5.1875,67.34375 c 0.142214,1.84483 1.108958,3.23939 2.1875,3.15625 1.078542,-0.0831 1.829714,-1.62392 1.6875,-3.46875 l -5.1875,-67.3125 c -0.142214,-1.844825 -1.108958,-3.270643 -2.1875,-3.1875 z m 370.875,3.875 c -1.07854,0.08314 -1.82971,1.623925 -1.6875,3.46875 l 5.1875,67.3125 c 0.14221,1.84483 1.10896,3.27064 2.1875,3.1875 1.07854,-0.0831 1.82971,-1.62392 1.6875,-3.46875 l -5.1875,-67.3125 c -0.14221,-1.844825 -1.10896,-3.270643 -2.1875,-3.1875 z m 188.25,1.40625 c -1.07854,0.08314 -1.82866,1.63759 -1.6875,3.46875 l 5.15625,66.8125 c 0.14116,1.83116 1.10896,3.23939 2.1875,3.15625 1.07854,-0.0831 1.82866,-1.60634 1.6875,-3.4375 l -5.15625,-66.84375 c -0.14116,-1.83116 -1.10896,-3.239393 -2.1875,-3.15625 z M 357.0625,61.53125 c -1.07854,0.08314 -1.82971,1.655175 -1.6875,3.5 l 5.1875,67.3125 c 0.14221,1.84483 1.14021,3.23939 2.21875,3.15625 1.07854,-0.0831 1.82971,-1.62392 1.6875,-3.46875 l -5.1875,-67.3125 c -0.14221,-1.844825 -1.14021,-3.270643 -2.21875,-3.1875 z m 163.71875,3.3125 c -1.07854,0.08314 -1.82866,1.63759 -1.6875,3.46875 L 524.25,135.125 c 0.14116,1.83116 1.10896,3.23939 2.1875,3.15625 1.07854,-0.0831 1.82866,-1.60634 1.6875,-3.4375 L 523,68 c -0.14116,-1.83116 -1.14021,-3.239393 -2.21875,-3.15625 z M 262,68.875 c -1.07854,0.08314 -1.86096,1.623925 -1.71875,3.46875 l 5.21875,67.3125 c 0.14221,1.84483 1.10896,3.27064 2.1875,3.1875 1.07854,-0.0831 1.82971,-1.62392 1.6875,-3.46875 L 264.1875,72.03125 C 264.04529,70.186425 263.07854,68.791857 262,68.875 z m -39.90625,3.0625 c -1.07854,0.08314 -1.82971,1.623925 -1.6875,3.46875 l 5.1875,67.34375 c 0.14221,1.84483 1.14021,3.23939 2.21875,3.15625 1.07854,-0.0831 1.82971,-1.62392 1.6875,-3.46875 L 224.3125,75.125 c -0.14221,-1.844825 -1.14021,-3.270643 -2.21875,-3.1875 z m 198.71875,1.71875 c -1.07854,0.08314 -1.82971,1.623925 -1.6875,3.46875 l 5.1875,67.3125 c 0.14221,1.84483 1.14021,3.27064 2.21875,3.1875 1.07854,-0.0831 1.82971,-1.62392 1.6875,-3.46875 l -5.1875,-67.34375 c -0.14221,-1.844825 -1.14021,-3.239393 -2.21875,-3.15625 z m -39.875,3.0625 c -1.07854,0.08314 -1.82971,1.623925 -1.6875,3.46875 l 5.1875,67.34375 c 0.14221,1.84483 1.14021,3.23939 2.21875,3.15625 1.07854,-0.0831 1.82971,-1.62392 1.6875,-3.46875 l -5.1875,-67.3125 c -0.14221,-1.844825 -1.14021,-3.270643 -2.21875,-3.1875 z m -60,10.40625 c -1.07854,0.08314 -1.82866,1.63759 -1.6875,3.46875 l 5.15625,66.8125 c 0.14116,1.83116 1.10896,3.23939 2.1875,3.15625 1.07854,-0.0831 1.82866,-1.63759 1.6875,-3.46875 L 323.125,90.28125 c -0.14116,-1.83116 -1.10896,-3.239393 -2.1875,-3.15625 z m -80.21875,0.40625 c -1.07854,0.08314 -1.82971,1.623925 -1.6875,3.46875 l 5.1875,67.3125 c 0.14221,1.84483 1.14021,3.27064 2.21875,3.1875 1.07854,-0.0831 1.82971,-1.62392 1.6875,-3.46875 l -5.1875,-67.3125 c -0.14221,-1.844825 -1.14021,-3.270643 -2.21875,-3.1875 z M 301.625,88.625 c -1.07854,0.08314 -1.82866,1.60634 -1.6875,3.4375 l 5.15625,66.84375 c 0.14116,1.83116 1.10896,3.23939 2.1875,3.15625 1.07854,-0.0831 1.82866,-1.63759 1.6875,-3.46875 l -5.15625,-66.8125 c -0.14116,-1.83116 -1.10896,-3.239393 -2.1875,-3.15625 z m -100.78125,1.96875 c -1.07854,0.08314 -1.82971,1.655175 -1.6875,3.5 l 5.1875,67.3125 c 0.14221,1.84483 1.14021,3.27064 2.21875,3.1875 1.07854,-0.0831 1.82971,-1.65517 1.6875,-3.5 l -5.1875,-67.3125 c -0.14221,-1.844825 -1.14021,-3.270643 -2.21875,-3.1875 z M 344.8125,102.3125 c -1.07854,0.0831 -1.82866,1.63759 -1.6875,3.46875 l 5.125,66.8125 c 0.14116,1.83116 1.14021,3.23939 2.21875,3.15625 1.07854,-0.0831 1.82866,-1.63759 1.6875,-3.46875 L 347,105.46875 c -0.14116,-1.83116 -1.10896,-3.23939 -2.1875,-3.15625 z m -64.4375,4.96875 c -1.07854,0.0831 -1.82866,1.63759 -1.6875,3.46875 l 5.125,66.8125 c 0.14116,1.83116 1.14021,3.23939 2.21875,3.15625 1.07854,-0.0831 1.82866,-1.63759 1.6875,-3.46875 l -5.15625,-66.8125 c -0.14116,-1.83116 -1.10896,-3.23939 -2.1875,-3.15625 z m -129.5,4.90625 c -1.07854,0.0831 -1.82971,1.65517 -1.6875,3.5 L 154.375,183 c 0.14221,1.84483 1.14021,3.27064 2.21875,3.1875 1.07854,-0.0831 1.82971,-1.65517 1.6875,-3.5 l -5.1875,-67.3125 c -0.14221,-1.84483 -1.14021,-3.27064 -2.21875,-3.1875 z M 111,115.28125 c -1.07854,0.0831 -1.82971,1.62392 -1.6875,3.46875 l 5.1875,67.3125 c 0.14221,1.84483 1.14021,3.27064 2.21875,3.1875 1.07854,-0.0831 1.82971,-1.62392 1.6875,-3.46875 l -5.1875,-67.3125 c -0.14221,-1.84483 -1.14021,-3.27064 -2.21875,-3.1875 z m 534.59375,7.1875 c -1.07854,0.0831 -1.85991,1.60634 -1.71875,3.4375 l 5.15625,66.84375 c 0.14116,1.83116 1.14021,3.23939 2.21875,3.15625 1.07854,-0.0831 1.82866,-1.63759 1.6875,-3.46875 l -5.15625,-66.8125 c -0.14116,-1.83116 -1.10896,-3.23939 -2.1875,-3.15625 z m -629.6875,0.125 c -1.078542,0.0831 -1.829714,1.65517 -1.6875,3.5 l 5.1875,67.3125 c 0.142214,1.84483 1.140208,3.27064 2.21875,3.1875 1.078542,-0.0831 1.829714,-1.65517 1.6875,-3.5 l -5.1875,-67.3125 c -0.142214,-1.84483 -1.140208,-3.27064 -2.21875,-3.1875 z m 589.78125,2.9375 C 604.60896,125.61439 603.85884,127.16884 604,129 l 5.15625,66.8125 c 0.14116,1.83116 1.10896,3.23939 2.1875,3.15625 1.07854,-0.0831 1.85991,-1.63759 1.71875,-3.46875 l -5.15625,-66.8125 c -0.14116,-1.83116 -1.14021,-3.23939 -2.21875,-3.15625 z M 174.75,127.375 c -1.07854,0.0831 -1.82971,1.65517 -1.6875,3.5 l 5.1875,67.3125 c 0.14221,1.84483 1.14021,3.27064 2.21875,3.1875 1.07854,-0.0831 1.82971,-1.65517 1.6875,-3.5 l -5.1875,-67.3125 c -0.14221,-1.84483 -1.14021,-3.27064 -2.21875,-3.1875 z m 393.1875,2.8125 c -1.07854,0.0831 -1.83884,1.4109 -1.71875,2.96875 L 570.59375,190 c 0.12009,1.55785 1.07771,2.73939 2.15625,2.65625 1.07854,-0.0831 1.87009,-1.4109 1.75,-2.96875 l -4.40625,-56.84375 c -0.12009,-1.55785 -1.07771,-2.73939 -2.15625,-2.65625 z m -433.0625,0.28125 c -1.07854,0.0831 -1.82971,1.62392 -1.6875,3.46875 l 5.1875,67.3125 c 0.14221,1.84483 1.10896,3.27064 2.1875,3.1875 1.07854,-0.0831 1.82971,-1.62392 1.6875,-3.46875 L 137.0625,133.625 c -0.14221,-1.84483 -1.10896,-3.23939 -2.1875,-3.15625 z m 413.75,1.21875 c -1.07854,0.0831 -1.83884,1.4109 -1.71875,2.96875 l 4.375,56.84375 c 0.12009,1.55785 1.07771,2.73939 2.15625,2.65625 1.07854,-0.0831 1.87009,-1.4109 1.75,-2.96875 l -4.40625,-56.84375 c -0.12009,-1.55785 -1.07771,-2.73939 -2.15625,-2.65625 z m -38.03125,1.1875 c -1.07854,0.0831 -1.82866,1.60634 -1.6875,3.4375 l 5.15625,66.84375 c 0.14116,1.83116 1.14021,3.23939 2.21875,3.15625 1.07854,-0.0831 1.82866,-1.63759 1.6875,-3.46875 l -5.15625,-66.8125 c -0.14116,-1.83116 -1.14021,-3.23939 -2.21875,-3.15625 z m -39.875,3.0625 c -1.07854,0.0831 -1.82866,1.63759 -1.6875,3.46875 l 5.15625,66.8125 c 0.14116,1.83116 1.10896,3.23939 2.1875,3.15625 1.07854,-0.0831 1.85991,-1.63759 1.71875,-3.46875 l -5.15625,-66.8125 c -0.14116,-1.83116 -1.14021,-3.23939 -2.21875,-3.15625 z m 198.71875,1.71875 c -1.07854,0.0831 -1.82866,1.60634 -1.6875,3.4375 l 3.6875,47.78125 0,-49.21875 c -0.37805,-1.22973 -1.16413,-2.06443 -2,-2 z m -39.875,3.0625 c -1.07854,0.0831 -1.82866,1.63759 -1.6875,3.46875 L 633.03125,211 c 0.14116,1.83116 1.10896,3.23939 2.1875,3.15625 1.07854,-0.0831 1.82866,-1.63759 1.6875,-3.46875 L 631.75,143.875 c -0.14116,-1.83116 -1.10896,-3.23939 -2.1875,-3.15625 z M 74.875,140.875 c -1.078542,0.0831 -1.828661,1.60634 -1.6875,3.4375 l 5.125,66.84375 c 0.141161,1.83116 1.140208,3.23939 2.21875,3.15625 1.078542,-0.0831 1.828661,-1.63759 1.6875,-3.46875 l -5.15625,-66.8125 c -0.141161,-1.83116 -1.108958,-3.23939 -2.1875,-3.15625 z m -19.3125,1.5 c -1.078542,0.0831 -1.859911,1.60634 -1.71875,3.4375 L 59,212.625 c 0.141161,1.83116 1.140208,3.23939 2.21875,3.15625 1.078542,-0.0831 1.828661,-1.60634 1.6875,-3.4375 L 57.75,145.53125 c -0.141161,-1.83116 -1.108958,-3.23939 -2.1875,-3.15625 z m 536.25,3 c -1.07854,0.0831 -1.83884,1.4109 -1.71875,2.96875 l 4.375,56.84375 c 0.12009,1.55785 1.07771,2.73939 2.15625,2.65625 1.07854,-0.0831 1.83884,-1.4109 1.71875,-2.96875 l -4.375,-56.84375 c -0.12009,-1.55785 -1.07771,-2.73939 -2.15625,-2.65625 z m -64.4375,4.96875 c -1.07854,0.0831 -1.83884,1.4109 -1.71875,2.96875 l 4.375,56.84375 c 0.12009,1.55785 1.07771,2.73939 2.15625,2.65625 1.07854,-0.0831 1.83884,-1.4109 1.71875,-2.96875 L 529.53125,153 c -0.12009,-1.55785 -1.07771,-2.73939 -2.15625,-2.65625 z m -38.03125,1.1875 c -1.07854,0.0831 -1.82866,1.60634 -1.6875,3.4375 l 5.15625,66.84375 c 0.14116,1.83116 1.10896,3.23939 2.1875,3.15625 1.07854,-0.0831 1.85991,-1.63759 1.71875,-3.46875 l -5.15625,-66.8125 c -0.14116,-1.83116 -1.14021,-3.23939 -2.21875,-3.15625 z m -39.875,3.0625 c -1.07854,0.0831 -1.82866,1.63759 -1.6875,3.46875 l 5.15625,66.8125 c 0.14116,1.83116 1.10896,3.23939 2.1875,3.15625 1.07854,-0.0831 1.82866,-1.63759 1.6875,-3.46875 L 451.65625,157.75 c -0.14116,-1.83116 -1.10896,-3.23939 -2.1875,-3.15625 z m -350.75,1.46875 c -1.078542,0.0831 -1.828661,1.60634 -1.6875,3.4375 l 5.15625,66.84375 c 0.14116,1.83116 1.10896,3.20814 2.1875,3.125 1.07854,-0.0831 1.85991,-1.60634 1.71875,-3.4375 l -5.15625,-66.8125 c -0.14116,-1.83116 -1.140208,-3.23939 -2.21875,-3.15625 z m -64.4375,4.96875 c -1.078542,0.0831 -1.828661,1.60634 -1.6875,3.4375 l 5.15625,66.8125 c 0.141161,1.83116 1.140208,3.23939 2.21875,3.15625 1.078542,-0.0831 1.828661,-1.60634 1.6875,-3.4375 L 36.5,164.1875 c -0.141161,-1.83116 -1.140208,-3.23939 -2.21875,-3.15625 z m 370.875,3.84375 c -1.07854,0.0831 -1.82866,1.63759 -1.6875,3.46875 l 5.15625,66.8125 c 0.14116,1.83116 1.10896,3.23939 2.1875,3.15625 1.07854,-0.0831 1.85991,-1.60634 1.71875,-3.4375 L 407.375,168.03125 c -0.14116,-1.83116 -1.14021,-3.23939 -2.21875,-3.15625 z m -39.875,3.09375 c -1.07854,0.0831 -1.82866,1.60634 -1.6875,3.4375 L 368.75,238.25 c 0.14116,1.83116 1.10896,3.23939 2.1875,3.15625 1.07854,-0.0831 1.82866,-1.63759 1.6875,-3.46875 l -5.15625,-66.8125 c -0.14116,-1.83116 -1.10896,-3.23939 -2.1875,-3.15625 z m -37.75,4.65625 c -1.07854,0.0831 -1.83884,1.4109 -1.71875,2.96875 l 4.375,56.84375 c 0.12009,1.55785 1.07771,2.73939 2.15625,2.65625 1.07854,-0.0831 1.83884,-1.4109 1.71875,-2.96875 l -4.375,-56.84375 c -0.12009,-1.55785 -1.07771,-2.73939 -2.15625,-2.65625 z m -19.3125,1.46875 c -1.07854,0.0831 -1.87009,1.4109 -1.75,2.96875 l 4.40625,56.84375 c 0.12009,1.55785 1.07771,2.77064 2.15625,2.6875 1.07854,-0.0831 1.83884,-1.4109 1.71875,-2.96875 l -4.375,-56.84375 c -0.12009,-1.55785 -1.07771,-2.77064 -2.15625,-2.6875 z m -38.03125,1.1875 c -1.07854,0.0831 -1.82866,1.63759 -1.6875,3.46875 l 5.15625,66.8125 c 0.14116,1.83116 1.10896,3.23939 2.1875,3.15625 1.07854,-0.0831 1.82866,-1.60634 1.6875,-3.4375 l -5.125,-66.84375 c -0.14116,-1.83116 -1.14021,-3.23939 -2.21875,-3.15625 z m -39.875,3.09375 c -1.07854,0.0831 -1.82866,1.60634 -1.6875,3.4375 l 5.15625,66.84375 c 0.14116,1.83116 1.10896,3.23939 2.1875,3.15625 1.07854,-0.0831 1.82866,-1.63759 1.6875,-3.46875 L 232.5,181.53125 c -0.14116,-1.83116 -1.10896,-3.23939 -2.1875,-3.15625 z m 198.71875,1.6875 c -1.07854,0.0831 -1.82866,1.63759 -1.6875,3.46875 l 5.15625,66.8125 c 0.14116,1.83116 1.10896,3.23939 2.1875,3.15625 1.07854,-0.0831 1.82866,-1.63759 1.6875,-3.46875 l -5.15625,-66.8125 c -0.14116,-1.83116 -1.10896,-3.23939 -2.1875,-3.15625 z m -39.875,3.09375 c -1.07854,0.0831 -1.82866,1.60634 -1.6875,3.4375 l 5.125,66.8125 c 0.14116,1.83116 1.14021,3.23939 2.21875,3.15625 1.07854,-0.0831 1.82866,-1.60634 1.6875,-3.4375 l -5.15625,-66.8125 c -0.14116,-1.83116 -1.10896,-3.23939 -2.1875,-3.15625 z M 0,185 0,215.21875 c 0.12116862,0.0289 0.25049186,0.0409 0.375,0.0312 1.0785419,-0.0831 1.8297141,-1.65517 1.6875,-3.5 L 0,185 z m 351.40625,2.8125 c -1.07854,0.0831 -1.87009,1.37965 -1.75,2.9375 l 4.375,56.875 c 0.12009,1.55785 1.10896,2.73939 2.1875,2.65625 1.07854,-0.0831 1.83884,-1.4109 1.71875,-2.96875 l -4.375,-56.84375 c -0.12009,-1.55785 -1.07771,-2.73939 -2.15625,-2.65625 z m -64.4375,4.96875 c -1.07854,0.0831 -1.87009,1.37965 -1.75,2.9375 l 4.375,56.84375 c 0.12009,1.55785 1.10896,2.77064 2.1875,2.6875 1.07854,-0.0831 1.83884,-1.4109 1.71875,-2.96875 l -4.375,-56.84375 c -0.12009,-1.55785 -1.07771,-2.73939 -2.15625,-2.65625 z m -38.03125,1.15625 c -1.07854,0.0831 -1.82866,1.63759 -1.6875,3.46875 l 5.15625,66.8125 c 0.14116,1.83116 1.10896,3.23939 2.1875,3.15625 1.07854,-0.0831 1.82866,-1.60634 1.6875,-3.4375 L 251.125,197.09375 c -0.14116,-1.83116 -1.10896,-3.23939 -2.1875,-3.15625 z m -39.875,3.09375 c -1.07854,0.0831 -1.82866,1.60634 -1.6875,3.4375 l 5.125,66.84375 c 0.14116,1.83116 1.14021,3.23939 2.21875,3.15625 1.07854,-0.0831 1.82866,-1.63759 1.6875,-3.46875 L 211.25,200.1875 c -0.14116,-1.83116 -1.10896,-3.23939 -2.1875,-3.15625 z m 443.09375,10.90625 c -1.07854,0.0831 -1.83884,1.4109 -1.71875,2.96875 l 4.375,56.84375 c 0.12009,1.55785 1.10896,2.73939 2.1875,2.65625 1.07854,-0.0831 1.83884,-1.37965 1.71875,-2.9375 l -4.375,-56.84375 c -0.12009,-1.55785 -1.10896,-2.77064 -2.1875,-2.6875 z m -39.875,3.09375 c -1.07854,0.0831 -1.83884,1.4109 -1.71875,2.96875 l 4.375,56.84375 c 0.12009,1.55785 1.07771,2.73939 2.15625,2.65625 1.07854,-0.0831 1.87009,-1.4109 1.75,-2.96875 L 614.4375,213.6875 c -0.12009,-1.55785 -1.07771,-2.73939 -2.15625,-2.65625 z m -95.09375,7.3125 c -1.07854,0.0831 -1.83884,1.4109 -1.71875,2.96875 l 4.375,56.84375 c 0.12009,1.55785 1.07771,2.73939 2.15625,2.65625 1.07854,-0.0831 1.87009,-1.37965 1.75,-2.9375 L 519.375,221 c -0.12009,-1.55785 -1.10896,-2.73939 -2.1875,-2.65625 z M 159.09375,218.625 c -1.07854,0.0831 -1.82866,1.63759 -1.6875,3.46875 l 5.15625,66.8125 c 0.14116,1.83116 1.10896,3.23939 2.1875,3.15625 1.07854,-0.0831 1.82866,-1.63759 1.6875,-3.46875 l -5.15625,-66.8125 c -0.14116,-1.83116 -1.10896,-3.23939 -2.1875,-3.15625 z m 318.21875,2.8125 c -1.07854,0.0831 -1.83884,1.37965 -1.71875,2.9375 l 4.375,56.875 c 0.12009,1.55785 1.07771,2.73939 2.15625,2.65625 1.07854,-0.0831 1.87009,-1.4109 1.75,-2.96875 l -4.40625,-56.84375 c -0.12009,-1.55785 -1.07771,-2.73939 -2.15625,-2.65625 z m -358.09375,0.25 c -1.07854,0.0831 -1.82866,1.63759 -1.6875,3.46875 l 5.125,66.8125 c 0.14116,1.83116 1.14021,3.23939 2.21875,3.15625 1.07854,-0.0831 1.82866,-1.60634 1.6875,-3.4375 l -5.15625,-66.84375 c -0.14116,-1.83116 -1.10896,-3.23939 -2.1875,-3.15625 z m 516.9375,4.53125 c -1.07854,0.0831 -1.83884,1.37965 -1.71875,2.9375 L 638.8125,286 c 0.12009,1.55785 1.07771,2.77064 2.15625,2.6875 1.07854,-0.0831 1.83884,-1.4109 1.71875,-2.96875 l -4.375,-56.84375 c -0.12009,-1.55785 -1.07771,-2.73939 -2.15625,-2.65625 z m -554.6875,0.125 c -1.078542,0.0831 -1.870092,1.4109 -1.75,2.96875 l 4.375,56.84375 c 0.120092,1.55785 1.108958,2.77064 2.1875,2.6875 1.078542,-0.0831 1.838842,-1.4109 1.71875,-2.96875 l -4.375,-56.84375 c -0.120092,-1.55785 -1.077708,-2.77064 -2.15625,-2.6875 z m -19.34375,1.5 c -1.078542,0.0831 -1.838842,1.4109 -1.71875,2.96875 l 4.375,56.84375 c 0.120092,1.55785 1.108958,2.73939 2.1875,2.65625 1.078542,-0.0831 1.838842,-1.4109 1.71875,-2.96875 L 64.3125,230.5 c -0.120092,-1.55785 -1.108958,-2.73939 -2.1875,-2.65625 z m -38,1.1875 c -1.078542,0.0831 -1.828661,1.63759 -1.6875,3.46875 l 5.125,66.8125 c 0.141161,1.83116 1.140208,3.23939 2.21875,3.15625 1.078542,-0.0831 1.828661,-1.63759 1.6875,-3.46875 L 26.3125,232.1875 c -0.141161,-1.83116 -1.108958,-3.23939 -2.1875,-3.15625 z m 158.84375,4.78125 c -1.07854,0.0831 -1.85991,1.60634 -1.71875,3.4375 l 5.15625,66.84375 c 0.14116,1.83116 1.14021,3.23939 2.21875,3.15625 1.07854,-0.0831 1.82866,-1.63759 1.6875,-3.46875 l -5.15625,-66.8125 c -0.14116,-1.83116 -1.10896,-3.23939 -2.1875,-3.15625 z m -39.90625,3.0625 c -1.07854,0.0831 -1.82866,1.63759 -1.6875,3.46875 l 5.15625,66.8125 c 0.14116,1.83116 1.10896,3.23939 2.1875,3.15625 1.07854,-0.0831 1.85991,-1.60634 1.71875,-3.4375 l -5.15625,-66.84375 c -0.14116,-1.83116 -1.14021,-3.23939 -2.21875,-3.15625 z M 495.9375,237 c -1.07854,0.0831 -1.83884,1.4109 -1.71875,2.96875 l 4.375,56.84375 c 0.12009,1.55785 1.07771,2.77064 2.15625,2.6875 1.07854,-0.0831 1.87009,-1.4109 1.75,-2.96875 l -4.40625,-56.84375 c -0.12009,-1.55785 -1.07771,-2.77064 -2.15625,-2.6875 z m 103.09375,2 c -1.07854,0.0831 -1.841,1.4141 -1.71875,3 l 4.4375,57.875 c 0.12225,1.5859 1.10896,2.80189 2.1875,2.71875 1.07854,-0.0831 1.841,-1.44535 1.71875,-3.03125 l -4.46875,-57.84375 c -0.12225,-1.5859 -1.07771,-2.80189 -2.15625,-2.71875 z m -142.96875,1.09375 c -1.07854,0.0831 -1.83884,1.4109 -1.71875,2.96875 l 4.375,56.84375 c 0.12009,1.55785 1.07771,2.73939 2.15625,2.65625 1.07854,-0.0831 1.83884,-1.4109 1.71875,-2.96875 l -4.375,-56.84375 c -0.12009,-1.55785 -1.07771,-2.73939 -2.15625,-2.65625 z m -350.75,1.4375 c -1.07854,0.0831 -1.83884,1.4109 -1.71875,2.96875 l 4.375,56.84375 c 0.12009,1.55785 1.07771,2.73939 2.15625,2.65625 1.07854,-0.0831 1.87009,-1.37965 1.75,-2.9375 l -4.40625,-56.875 c -0.12009,-1.55785 -1.07771,-2.73939 -2.15625,-2.65625 z m 429.28125,2.4375 c -1.07854,0.0831 -1.841,1.4141 -1.71875,3 l 4.4375,57.875 c 0.12225,1.5859 1.10896,2.80189 2.1875,2.71875 1.07854,-0.0831 1.841,-1.44535 1.71875,-3.03125 L 536.75,246.6875 c -0.12225,-1.5859 -1.07771,-2.80189 -2.15625,-2.71875 z M 40.875,246.5 c -1.078542,0.0831 -1.838842,1.4109 -1.71875,2.96875 l 4.375,56.84375 c 0.120092,1.55785 1.077708,2.73939 2.15625,2.65625 1.078542,-0.0831 1.870092,-1.37965 1.75,-2.9375 l -4.375,-56.875 C 42.942408,247.5984 41.953542,246.41686 40.875,246.5 z m -38,1.1875 c -1.0785419,0.0831 -1.8599107,1.63759 -1.71875,3.46875 l 5.15625,66.8125 c 0.1411607,1.83116 1.1402081,3.23939 2.21875,3.15625 1.0785419,-0.0831 1.828661,-1.63759 1.6875,-3.46875 L 5.0625,250.84375 C 4.9213393,249.01259 3.9535419,247.60436 2.875,247.6875 z m 408.875,2.6875 c -1.07854,0.0831 -1.83884,1.4109 -1.71875,2.96875 l 4.375,56.84375 c 0.12009,1.55785 1.07771,2.73939 2.15625,2.65625 1.07854,-0.0831 1.87009,-1.4109 1.75,-2.96875 l -4.40625,-56.84375 c -0.12009,-1.55785 -1.07771,-2.73939 -2.15625,-2.65625 z m -39.875,3.0625 c -1.07854,0.0831 -1.83884,1.4109 -1.71875,2.96875 l 4.375,56.84375 c 0.12009,1.55785 1.07771,2.73939 2.15625,2.65625 1.07854,-0.0831 1.83884,-1.37965 1.71875,-2.9375 l -4.375,-56.84375 c -0.12009,-1.55785 -1.07771,-2.77064 -2.15625,-2.6875 z m -95.09375,7.34375 c -1.07854,0.0831 -1.83884,1.4109 -1.71875,2.96875 l 4.375,56.84375 c 0.12009,1.55785 1.07771,2.73939 2.15625,2.65625 1.07854,-0.0831 1.83884,-1.4109 1.71875,-2.96875 l -4.375,-56.84375 c -0.12009,-1.55785 -1.07771,-2.73939 -2.15625,-2.65625 z m -39.875,3.0625 c -1.07854,0.0831 -1.87009,1.4109 -1.75,2.96875 l 4.40625,56.84375 c 0.12009,1.55785 1.07771,2.73939 2.15625,2.65625 1.07854,-0.0831 1.83884,-1.37965 1.71875,-2.9375 l -4.375,-56.84375 c -0.12009,-1.55785 -1.07771,-2.77064 -2.15625,-2.6875 z M 435.625,265.5625 c -1.07854,0.0831 -1.87009,1.4109 -1.75,2.96875 l 4.40625,56.84375 c 0.12009,1.55785 1.07771,2.73939 2.15625,2.65625 1.07854,-0.0831 1.83884,-1.4109 1.71875,-2.96875 l -4.375,-56.84375 c -0.12009,-1.55785 -1.07771,-2.73939 -2.15625,-2.65625 z m -39.875,3.0625 c -1.07854,0.0831 -1.87009,1.4109 -1.75,2.96875 l 4.375,56.84375 c 0.12009,1.55785 1.10896,2.73939 2.1875,2.65625 1.07854,-0.0831 1.83884,-1.4109 1.71875,-2.96875 l -4.375,-56.84375 c -0.12009,-1.55785 -1.07771,-2.73939 -2.15625,-2.65625 z m -140.21875,10.8125 c -1.07854,0.0831 -1.87009,1.4109 -1.75,2.96875 L 258.1875,339.25 c 0.12009,1.55785 1.07771,2.73939 2.15625,2.65625 1.07854,-0.0831 1.83884,-1.4109 1.71875,-2.96875 l -4.375,-56.84375 c -0.12009,-1.55785 -1.07771,-2.73939 -2.15625,-2.65625 z m 103.09375,1.96875 c -1.07854,0.0831 -1.87225,1.44535 -1.75,3.03125 l 4.46875,57.875 c 0.12225,1.5859 1.07771,2.80189 2.15625,2.71875 1.07854,-0.0831 1.87225,-1.44535 1.75,-3.03125 l -4.46875,-57.875 c -0.12225,-1.5859 -1.07771,-2.80189 -2.15625,-2.71875 z M 215.65625,282.5 c -1.07854,0.0831 -1.87009,1.4109 -1.75,2.96875 l 4.375,56.84375 c 0.12009,1.55785 1.10896,2.77064 2.1875,2.6875 1.07854,-0.0831 1.83884,-1.4109 1.71875,-2.96875 l -4.375,-56.84375 c -0.12009,-1.55785 -1.07771,-2.77064 -2.15625,-2.6875 z m 78.53125,3.875 c -1.07854,0.0831 -1.87225,1.44535 -1.75,3.03125 l 4.46875,57.875 c 0.12225,1.5859 1.07771,2.77064 2.15625,2.6875 1.07854,-0.0831 1.87225,-1.4141 1.75,-3 l -4.46875,-57.875 c -0.12225,-1.5859 -1.07771,-2.80189 -2.15625,-2.71875 z m -128.5,17.75 c -1.07854,0.0831 -1.87009,1.37965 -1.75,2.9375 l 4.40625,56.875 c 0.12009,1.55785 1.07771,2.73939 2.15625,2.65625 1.07854,-0.0831 1.83884,-1.4109 1.71875,-2.96875 l -4.375,-56.84375 c -0.12009,-1.55785 -1.07771,-2.73939 -2.15625,-2.65625 z m -39.875,3.0625 c -1.07854,0.0831 -1.87009,1.4109 -1.75,2.96875 L 128.4375,367 c 0.12009,1.55785 1.10896,2.73939 2.1875,2.65625 1.07854,-0.0831 1.83884,-1.4109 1.71875,-2.96875 l -4.375,-56.84375 c -0.12009,-1.55785 -1.07771,-2.73939 -2.15625,-2.65625 z m -95.09375,7.34375 c -1.078542,0.0831 -1.870092,1.37965 -1.75,2.9375 l 4.40625,56.875 c 0.120092,1.55785 1.077708,2.73939 2.15625,2.65625 1.078542,-0.0831 1.838842,-1.4109 1.71875,-2.96875 L 32.875,317.1875 c -0.120092,-1.55785 -1.077708,-2.73939 -2.15625,-2.65625 z m 551.4375,0.125 c -1.07854,0.0831 -1.82971,1.65517 -1.6875,3.5 l 5.1875,67.3125 c 0.14221,1.84483 1.14021,3.27064 2.21875,3.1875 1.07854,-0.0831 1.82971,-1.65517 1.6875,-3.5 l -5.1875,-67.3125 c -0.14221,-1.84483 -1.14021,-3.27064 -2.21875,-3.1875 z m -19.3125,1.5 c -1.07854,0.0831 -1.82971,1.62392 -1.6875,3.46875 l 5.1875,67.34375 c 0.14221,1.84483 1.14021,3.23939 2.21875,3.15625 1.07854,-0.0831 1.82971,-1.62392 1.6875,-3.46875 l -5.1875,-67.3125 c -0.14221,-1.84483 -1.14021,-3.27064 -2.21875,-3.1875 z m -373.3125,3.125 c -1.07854,0.0831 -1.83884,1.4109 -1.71875,2.96875 l 4.375,56.84375 c 0.12009,1.55785 1.10896,2.77064 2.1875,2.6875 1.07854,-0.0831 1.83884,-1.4109 1.71875,-2.96875 l -4.375,-56.84375 c -0.12009,-1.55785 -1.10896,-2.77064 -2.1875,-2.6875 z M 643.375,319.8125 c -1.07854,0.0831 -1.841,1.44535 -1.71875,3.03125 l 4.4375,57.875 c 0.12225,1.5859 1.10896,2.77064 2.1875,2.6875 1.07854,-0.0831 1.841,-1.4141 1.71875,-3 l -4.46875,-57.875 c -0.12225,-1.5859 -1.07771,-2.80189 -2.15625,-2.71875 z m -493.71875,2.5625 c -1.07854,0.0831 -1.83884,1.4109 -1.71875,2.96875 l 4.375,56.84375 c 0.12009,1.55785 1.07771,2.73939 2.15625,2.65625 1.07854,-0.0831 1.87009,-1.4109 1.75,-2.96875 l -4.40625,-56.84375 c -0.12009,-1.55785 -1.07771,-2.73939 -2.15625,-2.65625 z m 456.375,7.46875 c -1.07854,0.0831 -1.82971,1.62392 -1.6875,3.46875 l 5.1875,67.34375 c 0.14221,1.84483 1.10896,3.23939 2.1875,3.15625 1.07854,-0.0831 1.86096,-1.62392 1.71875,-3.46875 l -5.21875,-67.3125 c -0.14221,-1.84483 -1.10896,-3.27064 -2.1875,-3.1875 z m -102.875,0.78125 c -1.07854,0.0831 -1.841,1.44535 -1.71875,3.03125 l 4.46875,57.875 c 0.12225,1.5859 1.07771,2.77064 2.15625,2.6875 1.07854,-0.0831 1.841,-1.4141 1.71875,-3 l -4.46875,-57.875 c -0.12225,-1.5859 -1.07771,-2.80189 -2.15625,-2.71875 z M 9.4375,333.1875 c -1.0785419,0.0831 -1.8388419,1.4109 -1.71875,2.96875 L 12.09375,393 c 0.120092,1.55785 1.108958,2.73939 2.1875,2.65625 1.078542,-0.0831 1.838842,-1.4109 1.71875,-2.96875 l -4.375,-56.84375 c -0.120092,-1.55785 -1.108958,-2.73939 -2.1875,-2.65625 z m 453.84375,0.53125 c -1.07854,0.0831 -1.841,1.4141 -1.71875,3 l 4.4375,57.875 c 0.12225,1.5859 1.10896,2.80189 2.1875,2.71875 1.07854,-0.0831 1.841,-1.44535 1.71875,-3.03125 l -4.46875,-57.875 c -0.12225,-1.5859 -1.07771,-2.77064 -2.15625,-2.6875 z m 78.3125,1.09375 c -1.07854,0.0831 -1.82971,1.62392 -1.6875,3.46875 l 5.1875,67.34375 c 0.14221,1.84483 1.10896,3.23939 2.1875,3.15625 1.07854,-0.0831 1.86096,-1.62392 1.71875,-3.46875 L 543.8125,338 c -0.14221,-1.84483 -1.14021,-3.27064 -2.21875,-3.1875 z m -429.0625,0.34375 c -1.07854,0.0831 -1.841,1.44535 -1.71875,3.03125 l 4.46875,57.84375 c 0.12225,1.5859 1.07771,2.80189 2.15625,2.71875 1.07854,-0.0831 1.841,-1.4141 1.71875,-3 l -4.4375,-57.875 c -0.12225,-1.5859 -1.10896,-2.80189 -2.1875,-2.71875 z m -64.4375,4.96875 c -1.078542,0.0831 -1.841004,1.44535 -1.71875,3.03125 L 50.84375,401 c 0.122254,1.5859 1.077708,2.80189 2.15625,2.71875 1.078542,-0.0831 1.841004,-1.4141 1.71875,-3 l -4.4375,-57.875 c -0.122254,-1.5859 -1.108958,-2.80189 -2.1875,-2.71875 z M 341.75,357.09375 c -1.07854,0.0831 -1.82971,1.62392 -1.6875,3.46875 l 5.1875,67.34375 c 0.14221,1.84483 1.10896,3.23939 2.1875,3.15625 1.07854,-0.0831 1.86096,-1.62392 1.71875,-3.46875 l -5.21875,-67.3125 c -0.14221,-1.84483 -1.10896,-3.27064 -2.1875,-3.1875 z m -19.3125,1.5 c -1.07854,0.0831 -1.82971,1.62392 -1.6875,3.46875 l 5.1875,67.3125 c 0.14221,1.84483 1.10896,3.27064 2.1875,3.1875 1.07854,-0.0831 1.82971,-1.62392 1.6875,-3.46875 L 324.625,361.75 c -0.14221,-1.84483 -1.10896,-3.23939 -2.1875,-3.15625 z m 120.40625,0.59375 c -1.07854,0.0831 -1.87225,1.4141 -1.75,3 l 4.46875,57.875 c 0.12225,1.5859 1.10896,2.80189 2.1875,2.71875 1.07854,-0.0831 1.841,-1.44535 1.71875,-3.03125 L 445,361.875 c -0.12225,-1.5859 -1.07771,-2.77064 -2.15625,-2.6875 z m -39.875,3.0625 c -1.07854,0.0831 -1.87225,1.4141 -1.75,3 l 4.46875,57.875 c 0.12225,1.5859 1.07771,2.80189 2.15625,2.71875 1.07854,-0.0831 1.87225,-1.4141 1.75,-3 l -4.46875,-57.875 c -0.12225,-1.5859 -1.07771,-2.80189 -2.15625,-2.71875 z M 365.625,372.28125 c -1.07854,0.0831 -1.82971,1.62392 -1.6875,3.46875 l 5.1875,67.3125 c 0.14221,1.84483 1.10896,3.27064 2.1875,3.1875 1.07854,-0.0831 1.82971,-1.62392 1.6875,-3.46875 l -5.1875,-67.34375 c -0.14221,-1.84483 -1.10896,-3.23939 -2.1875,-3.15625 z M 262.75,373.0625 c -1.07854,0.0831 -1.841,1.4141 -1.71875,3 l 4.4375,57.875 c 0.12225,1.5859 1.10896,2.80189 2.1875,2.71875 1.07854,-0.0831 1.841,-1.4141 1.71875,-3 l -4.46875,-57.875 c -0.12225,-1.5859 -1.07771,-2.80189 -2.15625,-2.71875 z m -39.875,3.0625 c -1.07854,0.0831 -1.87225,1.44535 -1.75,3.03125 l 4.46875,57.875 c 0.12225,1.5859 1.07771,2.77064 2.15625,2.6875 1.07854,-0.0831 1.87225,-1.4141 1.75,-3 l -4.46875,-57.875 c -0.12225,-1.5859 -1.07771,-2.80189 -2.15625,-2.71875 z m 78.3125,1.125 c -1.07854,0.0831 -1.82971,1.62392 -1.6875,3.46875 l 5.1875,67.3125 c 0.14221,1.84483 1.10896,3.27064 2.1875,3.1875 1.07854,-0.0831 1.82971,-1.62392 1.6875,-3.46875 l -5.1875,-67.34375 c -0.14221,-1.84483 -1.10896,-3.23939 -2.1875,-3.15625 z m 365.1875,15.15625 c -1.07854,0.0831 -1.82971,1.65517 -1.6875,3.5 l 5.1875,67.3125 c 0.11258,1.46049 0.76186,2.63678 1.5625,3.03125 l 0,-33.75 -2.84375,-36.90625 c -0.14221,-1.84483 -1.14021,-3.27064 -2.21875,-3.1875 z M 626.5,395.5 c -1.07854,0.0831 -1.82971,1.62392 -1.6875,3.46875 L 630,466.28125 c 0.14221,1.84483 1.14021,3.27064 2.21875,3.1875 1.07854,-0.0831 1.82971,-1.62392 1.6875,-3.46875 l -5.1875,-67.3125 C 628.57654,396.84267 627.57854,395.41686 626.5,395.5 z m -95.09375,7.3125 c -1.07854,0.0831 -1.82971,1.65517 -1.6875,3.5 l 5.1875,67.3125 c 0.14221,1.84483 1.14021,3.27064 2.21875,3.1875 1.07854,-0.0831 1.82971,-1.65517 1.6875,-3.5 L 533.625,406 c -0.14221,-1.84483 -1.14021,-3.27064 -2.21875,-3.1875 z m -39.875,3.09375 c -1.07854,0.0831 -1.82971,1.62392 -1.6875,3.46875 l 5.1875,67.3125 c 0.14221,1.84483 1.14021,3.27064 2.21875,3.1875 1.07854,-0.0831 1.82971,-1.62392 1.6875,-3.46875 l -5.1875,-67.3125 c -0.14221,-1.84483 -1.14021,-3.27064 -2.21875,-3.1875 z M 589.375,408.125 c -1.07854,0.0831 -1.82971,1.62392 -1.6875,3.46875 l 5.1875,67.3125 c 0.14221,1.84483 1.10896,3.27064 2.1875,3.1875 1.07854,-0.0831 1.82971,-1.62392 1.6875,-3.46875 l -5.1875,-67.34375 c -0.14221,-1.84483 -1.10896,-3.23939 -2.1875,-3.15625 z m -19.3125,1.46875 c -1.07854,0.0831 -1.82971,1.65517 -1.6875,3.5 l 5.1875,67.3125 c 0.14221,1.84483 1.10896,3.27064 2.1875,3.1875 1.07854,-0.0831 1.82971,-1.65517 1.6875,-3.5 l -5.1875,-67.3125 c -0.14221,-1.84483 -1.10896,-3.27064 -2.1875,-3.1875 z m 80.3125,1.09375 c -1.07854,0.0831 -1.82971,1.62392 -1.6875,3.46875 l 5.1875,67.3125 c 0.14221,1.84483 1.10896,3.27064 2.1875,3.1875 1.07854,-0.0831 1.86096,-1.62392 1.71875,-3.46875 l -5.21875,-67.34375 c -0.14221,-1.84483 -1.10896,-3.23939 -2.1875,-3.15625 z m -554.6875,0.15625 c -1.078542,0.0831 -1.829714,1.62392 -1.6875,3.46875 l 5.1875,67.3125 c 0.142214,1.84483 1.10896,3.27064 2.1875,3.1875 1.07854,-0.0831 1.82971,-1.62392 1.6875,-3.46875 L 97.875,414 c -0.142214,-1.84483 -1.108958,-3.23939 -2.1875,-3.15625 z M 76.375,412.3125 c -1.078542,0.0831 -1.860964,1.65517 -1.71875,3.5 L 79.875,483.125 c 0.142214,1.84483 1.108958,3.27064 2.1875,3.1875 1.078542,-0.0831 1.829714,-1.65517 1.6875,-3.5 L 78.5625,415.5 c -0.142214,-1.84483 -1.108958,-3.27064 -2.1875,-3.1875 z m 120.375,0.59375 c -1.07854,0.0831 -1.841,1.44535 -1.71875,3.03125 l 4.46875,57.875 c 0.12225,1.5859 1.07771,2.77064 2.15625,2.6875 1.07854,-0.0831 1.87225,-1.4141 1.75,-3 l -4.46875,-57.875 c -0.12225,-1.5859 -1.10896,-2.80189 -2.1875,-2.71875 z M 156.875,416 c -1.07854,0.0831 -1.841,1.4141 -1.71875,3 l 4.46875,57.875 c 0.12225,1.5859 1.07771,2.80189 2.15625,2.71875 1.07854,-0.0831 1.841,-1.44535 1.71875,-3.03125 l -4.4375,-57.84375 c -0.12225,-1.5859 -1.10896,-2.80189 -2.1875,-2.71875 z m 353.28125,5.5 c -1.07854,0.0831 -1.82971,1.62392 -1.6875,3.46875 l 5.1875,67.3125 c 0.14221,1.84483 1.14021,3.27064 2.21875,3.1875 1.07854,-0.0831 1.82971,-1.62392 1.6875,-3.46875 l -5.1875,-67.34375 c -0.14221,-1.84483 -1.14021,-3.23939 -2.21875,-3.15625 z m 103.0625,1.78125 c -1.07854,0.0831 -1.82971,1.65517 -1.6875,3.5 l 5.1875,67.3125 c 0.14221,1.84483 1.14021,3.27064 2.21875,3.1875 1.07854,-0.0831 1.82971,-1.65517 1.6875,-3.5 l -5.1875,-67.3125 c -0.14221,-1.84483 -1.14021,-3.27064 -2.21875,-3.1875 z m -142.9375,1.28125 c -1.07854,0.0831 -1.82971,1.62392 -1.6875,3.46875 l 5.1875,67.3125 c 0.14221,1.84483 1.10896,3.27064 2.1875,3.1875 1.07854,-0.0831 1.86096,-1.62392 1.71875,-3.46875 L 472.46875,427.75 c -0.14221,-1.84483 -1.10896,-3.27064 -2.1875,-3.1875 z M 119.53125,426 c -1.07854,0.0831 -1.82971,1.65517 -1.6875,3.5 l 5.1875,67.3125 c 0.14221,1.84483 1.14021,3.27064 2.21875,3.1875 1.07854,-0.0831 1.82971,-1.65517 1.6875,-3.5 L 121.75,429.1875 c -0.14221,-1.84483 -1.14021,-3.27064 -2.21875,-3.1875 z m -102.875,0.8125 c -1.078542,0.0831 -1.841004,1.4141 -1.71875,3 l 4.46875,57.875 c 0.122254,1.5859 1.077708,2.80189 2.15625,2.71875 1.078542,-0.0831 1.872254,-1.44535 1.75,-3.03125 L 18.84375,429.5 c -0.122254,-1.5859 -1.108958,-2.77064 -2.1875,-2.6875 z M 548.8125,428.25 c -1.07854,0.0831 -1.86096,1.65517 -1.71875,3.5 l 5.1875,67.3125 c 0.14221,1.84483 1.14021,3.27064 2.21875,3.1875 1.07854,-0.0831 1.82971,-1.65517 1.6875,-3.5 L 551,431.4375 c -0.14221,-1.84483 -1.10896,-3.27064 -2.1875,-3.1875 z m -493.71875,2.71875 c -1.078542,0.0831 -1.829714,1.65517 -1.6875,3.5 l 5.1875,67.3125 c 0.142214,1.84483 1.140208,3.27064 2.21875,3.1875 1.078542,-0.0831 1.829714,-1.65517 1.6875,-3.5 l -5.1875,-67.3125 c -0.142214,-1.84483 -1.140208,-3.27064 -2.21875,-3.1875 z m 370.875,3.875 c -1.07854,0.0831 -1.82971,1.62392 -1.6875,3.46875 l 5.1875,67.34375 c 0.14221,1.84483 1.14021,3.23939 2.21875,3.15625 1.07854,-0.0831 1.82971,-1.62392 1.6875,-3.46875 l -5.1875,-67.3125 c -0.14221,-1.84483 -1.14021,-3.27064 -2.21875,-3.1875 z m -39.875,3.09375 c -1.07854,0.0831 -1.82971,1.62392 -1.6875,3.46875 l 5.1875,67.3125 c 0.14221,1.84483 1.10896,3.27064 2.1875,3.1875 1.07854,-0.0831 1.86096,-1.65517 1.71875,-3.5 l -5.21875,-67.3125 c -0.14221,-1.84483 -1.10896,-3.23939 -2.1875,-3.15625 z M 291,445.25 c -1.07854,0.0831 -1.82971,1.62392 -1.6875,3.46875 L 294.5,516.0625 c 0.14221,1.84483 1.14021,3.23939 2.21875,3.15625 1.07854,-0.0831 1.82971,-1.62392 1.6875,-3.46875 l -5.1875,-67.3125 C 293.07654,446.59267 292.07854,445.16686 291,445.25 z m -39.875,3.0625 c -1.07854,0.0831 -1.82971,1.65517 -1.6875,3.5 l 5.1875,67.3125 c 0.14221,1.84483 1.10896,3.27064 2.1875,3.1875 1.07854,-0.0831 1.82971,-1.65517 1.6875,-3.5 L 253.3125,451.5 c -0.14221,-1.84483 -1.10896,-3.27064 -2.1875,-3.1875 z m 198.71875,1.71875 c -1.07854,0.0831 -1.82971,1.62392 -1.6875,3.46875 l 5.1875,67.34375 c 0.14221,1.84483 1.10896,3.23939 2.1875,3.15625 1.07854,-0.0831 1.82971,-1.62392 1.6875,-3.46875 l -5.1875,-67.3125 c -0.14221,-1.84483 -1.10896,-3.27064 -2.1875,-3.1875 z m -100.90625,0.5 c -1.07854,0.0831 -1.82971,1.65517 -1.6875,3.5 l 5.1875,67.3125 c 0.14221,1.84483 1.14021,3.27064 2.21875,3.1875 1.07854,-0.0831 1.82971,-1.65517 1.6875,-3.5 l -5.1875,-67.3125 c -0.14221,-1.84483 -1.14021,-3.27064 -2.21875,-3.1875 z m -19.3125,1.5 c -1.07854,0.0831 -1.82971,1.62392 -1.6875,3.46875 l 5.1875,67.3125 c 0.14221,1.84483 1.14021,3.27064 2.21875,3.1875 1.07854,-0.0831 1.82971,-1.62392 1.6875,-3.46875 l -5.1875,-67.3125 c -0.14221,-1.84483 -1.14021,-3.27064 -2.21875,-3.1875 z m 80.34375,1.0625 c -1.07854,0.0831 -1.82971,1.65517 -1.6875,3.5 l 5.1875,67.3125 c 0.14221,1.84483 1.10896,3.27064 2.1875,3.1875 1.07854,-0.0831 1.82971,-1.65517 1.6875,-3.5 l -5.1875,-67.3125 c -0.14221,-1.84483 -1.10896,-3.27064 -2.1875,-3.1875 z M 269.75,463.90625 c -1.07854,0.0831 -1.82971,1.65517 -1.6875,3.5 l 5.1875,67.3125 c 0.14221,1.84483 1.10896,3.27064 2.1875,3.1875 1.07854,-0.0831 1.82971,-1.65517 1.6875,-3.5 l -5.1875,-67.3125 c -0.14221,-1.84483 -1.10896,-3.27064 -2.1875,-3.1875 z m 103.0625,1.8125 c -1.07854,0.0831 -1.82971,1.62392 -1.6875,3.46875 l 5.1875,67.34375 c 0.14221,1.84483 1.14021,3.23939 2.21875,3.15625 1.07854,-0.0831 1.82971,-1.62392 1.6875,-3.46875 l -5.1875,-67.3125 c -0.14221,-1.84483 -1.14021,-3.27064 -2.21875,-3.1875 z M 229.875,467 c -1.07854,0.0831 -1.82971,1.62392 -1.6875,3.46875 l 5.1875,67.3125 c 0.14221,1.84483 1.10896,3.27064 2.1875,3.1875 1.07854,-0.0831 1.82971,-1.62392 1.6875,-3.46875 l -5.1875,-67.34375 C 231.92029,468.31142 230.95354,466.91686 229.875,467 z m 78.5,3.6875 c -1.07854,0.0831 -1.82971,1.62392 -1.6875,3.46875 L 311.875,541.5 c 0.14221,1.84483 1.14021,3.23939 2.21875,3.15625 1.07854,-0.0831 1.82971,-1.62392 1.6875,-3.46875 l -5.1875,-67.3125 c -0.14221,-1.84483 -1.14021,-3.27064 -2.21875,-3.1875 z m -128.46875,17.90625 c -1.07854,0.0831 -1.82971,1.62392 -1.6875,3.46875 l 5.1875,67.3125 c 0.14221,1.84483 1.10896,3.27064 2.1875,3.1875 1.07854,-0.0831 1.82971,-1.62392 1.6875,-3.46875 l -5.1875,-67.3125 c -0.14221,-1.84483 -1.10896,-3.27064 -2.1875,-3.1875 z m 453.8125,0.34375 c -1.07854,0.0831 -1.82971,1.65517 -1.6875,3.5 l 5.1875,67.3125 c 0.14221,1.84483 1.10896,3.27064 2.1875,3.1875 1.07854,-0.0831 1.82971,-1.65517 1.6875,-3.5 l -5.1875,-67.3125 c -0.14221,-1.84483 -1.10896,-3.27064 -2.1875,-3.1875 z m -493.6875,2.71875 c -1.07854,0.0831 -1.82971,1.65517 -1.6875,3.5 l 5.1875,67.3125 c 0.14221,1.84483 1.10896,3.27064 2.1875,3.1875 1.07854,-0.0831 1.82971,-1.65517 1.6875,-3.5 l -5.1875,-67.3125 c -0.14221,-1.84483 -1.10896,-3.27064 -2.1875,-3.1875 z m 398.59375,4.625 c -1.07854,0.0831 -1.82971,1.62392 -1.6875,3.46875 l 5.1875,67.3125 c 0.14221,1.84483 1.10896,3.27064 2.1875,3.1875 1.07854,-0.0831 1.82971,-1.62392 1.6875,-3.46875 l -5.1875,-67.3125 c -0.14221,-1.84483 -1.10896,-3.27064 -2.1875,-3.1875 z M 44.9375,499 c -1.078542,0.0831 -1.829714,1.62392 -1.6875,3.46875 l 5.1875,67.3125 c 0.142214,1.84483 1.108958,3.27064 2.1875,3.1875 1.078542,-0.0831 1.829714,-1.62392 1.6875,-3.46875 L 47.125,502.1875 C 46.982786,500.34267 46.016042,498.91686 44.9375,499 z m 453.8125,0.34375 c -1.07854,0.0831 -1.82971,1.62392 -1.6875,3.46875 l 5.1875,67.34375 c 0.14221,1.84483 1.10896,3.23939 2.1875,3.15625 1.07854,-0.0831 1.82971,-1.62392 1.6875,-3.46875 l -5.1875,-67.3125 c -0.14221,-1.84483 -1.10896,-3.27064 -2.1875,-3.1875 z M 5.0625,502.0625 c -1.0785419,0.0831 -1.8609641,1.65517 -1.71875,3.5 l 5.1875,67.3125 c 0.1422141,1.84483 1.1402081,3.23939 2.21875,3.15625 1.078542,-0.0831 1.829714,-1.62392 1.6875,-3.46875 L 7.25,505.25 c -0.1422141,-1.84483 -1.1089581,-3.27064 -2.1875,-3.1875 z m 198.71875,1.71875 c -1.07854,0.0831 -1.86096,1.62392 -1.71875,3.46875 l 5.1875,67.3125 c 0.14221,1.84483 1.14021,3.27064 2.21875,3.1875 1.07854,-0.0831 1.82971,-1.62392 1.6875,-3.46875 l -5.1875,-67.34375 c -0.14221,-1.84483 -1.10896,-3.23939 -2.1875,-3.15625 z M 657.5625,504.125 c -1.07854,0.0831 -1.82971,1.62392 -1.6875,3.46875 l 5.1875,67.34375 c 0.14221,1.84483 1.14021,3.23939 2.21875,3.15625 1.07854,-0.0831 1.82971,-1.62392 1.6875,-3.46875 l -5.1875,-67.3125 c -0.14221,-1.84483 -1.14021,-3.27064 -2.21875,-3.1875 z m -554.6875,0.15625 c -1.07854,0.0831 -1.82971,1.62392 -1.6875,3.46875 l 5.1875,67.34375 c 0.14221,1.84483 1.14021,3.23939 2.21875,3.15625 1.07854,-0.0831 1.82971,-1.62392 1.6875,-3.46875 l -5.1875,-67.3125 c -0.14221,-1.84483 -1.14021,-3.27064 -2.21875,-3.1875 z m -19.3125,1.5 c -1.078542,0.0831 -1.829714,1.62392 -1.6875,3.46875 l 5.1875,67.3125 c 0.142214,1.84483 1.140208,3.27064 2.21875,3.1875 1.078542,-0.0831 1.829714,-1.62392 1.6875,-3.46875 l -5.1875,-67.34375 c -0.142214,-1.84483 -1.140208,-3.23939 -2.21875,-3.15625 z m 80.3125,1.0625 c -1.07854,0.0831 -1.82971,1.62392 -1.6875,3.46875 l 5.1875,67.34375 c 0.14221,1.84483 1.14021,3.23939 2.21875,3.15625 1.07854,-0.0831 1.82971,-1.62392 1.6875,-3.46875 l -5.1875,-67.3125 c -0.14221,-1.84483 -1.14021,-3.27064 -2.21875,-3.1875 z m 433.3125,2.5 c -1.07854,0.0831 -1.87225,1.44535 -1.75,3.03125 l 4.46875,57.84375 c 0.12225,1.5859 1.07771,2.80189 2.15625,2.71875 1.07854,-0.0831 1.87225,-1.4141 1.75,-3 l -4.46875,-57.875 c -0.12225,-1.5859 -1.07771,-2.80189 -2.15625,-2.71875 z m -19.34375,1.5 c -1.07854,0.0831 -1.841,1.4141 -1.71875,3 l 4.46875,57.875 c 0.12225,1.5859 1.07771,2.80189 2.15625,2.71875 1.07854,-0.0831 1.87225,-1.44535 1.75,-3.03125 l -4.46875,-57.84375 c -0.12225,-1.5859 -1.10896,-2.80189 -2.1875,-2.71875 z M 517.375,514.9375 c -1.07854,0.0831 -1.82971,1.62392 -1.6875,3.46875 l 5.1875,67.3125 c 0.14221,1.84483 1.10896,3.27064 2.1875,3.1875 1.07854,-0.0831 1.82971,-1.62392 1.6875,-3.46875 l -5.1875,-67.3125 c -0.14221,-1.84483 -1.10896,-3.27064 -2.1875,-3.1875 z m -493.6875,2.71875 c -1.078542,0.0831 -1.860964,1.62392 -1.71875,3.46875 l 5.21875,67.3125 c 0.142214,1.84483 1.108958,3.27064 2.1875,3.1875 1.078542,-0.0831 1.829714,-1.62392 1.6875,-3.46875 l -5.1875,-67.3125 c -0.142214,-1.84483 -1.108958,-3.27064 -2.1875,-3.1875 z M 477.46875,518 c -1.07854,0.0831 -1.82971,1.65517 -1.6875,3.5 l 5.1875,67.3125 c 0.14221,1.84483 1.14021,3.27064 2.21875,3.1875 1.07854,-0.0831 1.82971,-1.65517 1.6875,-3.5 l -5.1875,-67.3125 c -0.14221,-1.84483 -1.14021,-3.27064 -2.21875,-3.1875 z M 126.75,519.46875 c -1.07854,0.0831 -1.82971,1.62392 -1.6875,3.46875 L 130.25,590.25 c 0.14221,1.84483 1.10896,3.27064 2.1875,3.1875 1.07854,-0.0831 1.82971,-1.62392 1.6875,-3.46875 L 128.9375,522.625 c -0.14221,-1.84483 -1.10896,-3.23939 -2.1875,-3.15625 z m -64.4375,4.96875 c -1.078542,0.0831 -1.829714,1.62392 -1.6875,3.46875 l 5.1875,67.3125 c 0.142214,1.84483 1.108958,3.27064 2.1875,3.1875 1.078542,-0.0831 1.829714,-1.62392 1.6875,-3.46875 L 64.5,527.59375 c -0.142214,-1.84483 -1.108958,-3.23939 -2.1875,-3.15625 z m 558.71875,0.0937 c -1.07854,0.0831 -1.841,1.4141 -1.71875,3 l 4.46875,57.875 c 0.12225,1.5859 1.07771,2.80189 2.15625,2.71875 1.07854,-0.0831 1.841,-1.4141 1.71875,-3 l -4.4375,-57.875 c -0.12225,-1.5859 -1.10896,-2.80189 -2.1875,-2.71875 z m -187.84375,3.75 c -1.07854,0.0831 -1.82971,1.65517 -1.6875,3.5 l 5.1875,67.3125 c 0.14221,1.84483 1.10896,3.27064 2.1875,3.1875 1.07854,-0.0831 1.82971,-1.65517 1.6875,-3.5 l -5.1875,-67.3125 c -0.14221,-1.84483 -1.10896,-3.27064 -2.1875,-3.1875 z M 556.59375,529.5 c -1.07854,0.0831 -1.841,1.4141 -1.71875,3 l 4.46875,57.875 c 0.12225,1.5859 1.07771,2.80189 2.15625,2.71875 1.07854,-0.0831 1.841,-1.4141 1.71875,-3 l -4.4375,-57.875 c -0.12225,-1.5859 -1.10896,-2.80189 -2.1875,-2.71875 z m -163.3125,1.875 c -1.07854,0.0831 -1.82971,1.62392 -1.6875,3.46875 l 5.1875,67.3125 c 0.14221,1.84483 1.14021,3.27064 2.21875,3.1875 1.07854,-0.0831 1.82971,-1.62392 1.6875,-3.46875 L 395.5,534.5625 c -0.14221,-1.84483 -1.14021,-3.27064 -2.21875,-3.1875 z m -95.0625,7.3125 c -1.07854,0.0831 -1.86096,1.65517 -1.71875,3.5 l 5.21875,67.3125 c 0.14221,1.84483 1.10896,3.27064 2.1875,3.1875 1.07854,-0.0831 1.82971,-1.65517 1.6875,-3.5 l -5.1875,-67.3125 c -0.14221,-1.84483 -1.10896,-3.27064 -2.1875,-3.1875 z m -39.90625,3.09375 c -1.07854,0.0831 -1.82971,1.62392 -1.6875,3.46875 l 5.1875,67.3125 c 0.14221,1.84483 1.14021,3.27064 2.21875,3.1875 1.07854,-0.0831 1.82971,-1.62392 1.6875,-3.46875 l -5.1875,-67.3125 c -0.14221,-1.84483 -1.14021,-3.27064 -2.21875,-3.1875 z m 198.71875,1.6875 c -1.07854,0.0831 -1.82971,1.65517 -1.6875,3.5 l 5.1875,67.3125 c 0.14221,1.84483 1.14021,3.27064 2.21875,3.1875 1.07854,-0.0831 1.82971,-1.65517 1.6875,-3.5 l -5.1875,-67.3125 c -0.14221,-1.84483 -1.14021,-3.27064 -2.21875,-3.1875 z m -39.875,3.09375 c -1.07854,0.0831 -1.82971,1.62392 -1.6875,3.46875 l 5.1875,67.3125 c 0.14221,1.84483 1.14021,3.27064 2.21875,3.1875 1.07854,-0.0831 1.82971,-1.62392 1.6875,-3.46875 l -5.1875,-67.34375 c -0.14221,-1.84483 -1.14021,-3.23939 -2.21875,-3.15625 z M 356.75,551.78125 c -1.07854,0.0831 -1.841,1.4141 -1.71875,3 l 4.46875,57.875 c 0.12225,1.5859 1.07771,2.80189 2.15625,2.71875 1.07854,-0.0831 1.841,-1.44535 1.71875,-3.03125 L 358.9375,554.5 c -0.12225,-1.5859 -1.10896,-2.80189 -2.1875,-2.71875 z M 337.4375,553.25 c -1.07854,0.0831 -1.841,1.44535 -1.71875,3.03125 l 4.46875,57.875 c 0.12225,1.5859 1.07771,2.77064 2.15625,2.6875 1.07854,-0.0831 1.841,-1.4141 1.71875,-3 l -4.46875,-57.875 c -0.12225,-1.5859 -1.07771,-2.80189 -2.15625,-2.71875 z m -60.5,4.125 c -1.07854,0.0831 -1.82971,1.62392 -1.6875,3.46875 l 5.1875,67.3125 c 0.14221,1.84483 1.14021,3.27064 2.21875,3.1875 1.07854,-0.0831 1.82971,-1.65517 1.6875,-3.5 l -5.1875,-67.3125 c -0.14221,-1.84483 -1.14021,-3.23939 -2.21875,-3.15625 z m -39.875,3.0625 c -1.07854,0.0831 -1.82971,1.62392 -1.6875,3.46875 l 5.1875,67.3125 c 0.14221,1.84483 1.14021,3.27064 2.21875,3.1875 1.07854,-0.0831 1.82971,-1.62392 1.6875,-3.46875 l -5.1875,-67.3125 c -0.14221,-1.84483 -1.14021,-3.27064 -2.21875,-3.1875 z m 143.5625,6.53125 c -1.07854,0.0831 -1.841,1.4141 -1.71875,3 l 4.4375,57.875 c 0.12225,1.5859 1.10896,2.80189 2.1875,2.71875 1.07854,-0.0831 1.841,-1.44535 1.71875,-3.03125 l -4.46875,-57.875 c -0.12225,-1.5859 -1.07771,-2.77064 -2.15625,-2.6875 z m -64.4375,4.96875 c -1.07854,0.0831 -1.841,1.4141 -1.71875,3 l 4.4375,57.875 c 0.12225,1.5859 1.10896,2.80189 2.1875,2.71875 1.07854,-0.0831 1.841,-1.44535 1.71875,-3.03125 l -4.46875,-57.875 c -0.12225,-1.5859 -1.07771,-2.77064 -2.15625,-2.6875 z m -129.09375,10.09375 c -1.07854,0.0831 -1.82971,1.62392 -1.6875,3.46875 l 5.1875,67.34375 c 0.14221,1.84483 1.14021,3.23939 2.21875,3.15625 1.07854,-0.0831 1.82971,-1.62392 1.6875,-3.46875 l -5.1875,-67.3125 c -0.14221,-1.84483 -1.14021,-3.27064 -2.21875,-3.1875 z m -39.875,3.09375 c -1.07854,0.0831 -1.82971,1.62392 -1.6875,3.46875 l 5.1875,67.3125 c 0.14221,1.84483 1.14021,3.27064 2.21875,3.1875 1.07854,-0.0831 1.82971,-1.65517 1.6875,-3.5 l -5.1875,-67.3125 c -0.14221,-1.84483 -1.14021,-3.23939 -2.21875,-3.15625 z m 494.3125,5.0625 c -1.07854,0.0831 -1.87225,1.4141 -1.75,3 l 4.46875,57.875 c 0.12225,1.5859 1.07771,2.80189 2.15625,2.71875 1.07854,-0.0831 1.87225,-1.44535 1.75,-3.03125 l -4.46875,-57.84375 c -0.12225,-1.5859 -1.07771,-2.80189 -2.15625,-2.71875 z m -589.40625,2.25 c -1.078542,0.0831 -1.829714,1.62392 -1.6875,3.46875 L 55.625,663.25 c 0.142214,1.84483 1.140208,3.23939 2.21875,3.15625 1.078542,-0.0831 1.829714,-1.62392 1.6875,-3.46875 l -5.1875,-67.3125 c -0.142214,-1.84483 -1.140208,-3.27064 -2.21875,-3.1875 z M 12.25,595.5 c -1.078542,0.0831 -1.829714,1.65517 -1.6875,3.5 l 5.1875,67.3125 c 0.142214,1.84483 1.140208,3.27064 2.21875,3.1875 1.078542,-0.0831 1.829714,-1.65517 1.6875,-3.5 l -5.1875,-67.3125 C 14.326536,596.84267 13.328542,595.41686 12.25,595.5 z m 198.71875,1.71875 c -1.07854,0.0831 -1.82971,1.62392 -1.6875,3.46875 l 5.1875,67.34375 c 0.14221,1.84483 1.14021,3.23939 2.21875,3.15625 1.07854,-0.0831 1.82971,-1.62392 1.6875,-3.46875 l -5.1875,-67.3125 c -0.14221,-1.84483 -1.14021,-3.27064 -2.21875,-3.1875 z M 546.4375,597.5 c -1.07854,0.0831 -1.87225,1.44535 -1.75,3.03125 l 4.46875,57.875 c 0.12225,1.5859 1.10896,2.77064 2.1875,2.6875 1.07854,-0.0831 1.841,-1.4141 1.71875,-3 l -4.46875,-57.875 c -0.12225,-1.5859 -1.07771,-2.80189 -2.15625,-2.71875 z m -375.34375,2.78125 c -1.07854,0.0831 -1.82971,1.65517 -1.6875,3.5 l 5.1875,67.3125 c 0.14221,1.84483 1.10896,3.27064 2.1875,3.1875 1.07854,-0.0831 1.82971,-1.65517 1.6875,-3.5 l -5.1875,-67.3125 c -0.14221,-1.84483 -1.10896,-3.27064 -2.1875,-3.1875 z m 335.4375,0.3125 c -1.07854,0.0831 -1.841,1.4141 -1.71875,3 l 4.46875,57.875 c 0.12225,1.5859 1.07771,2.80189 2.15625,2.71875 1.07854,-0.0831 1.87225,-1.44535 1.75,-3.03125 l -4.46875,-57.875 c -0.12225,-1.5859 -1.10896,-2.77064 -2.1875,-2.6875 z m 97.9375,3.5 c -1.07854,0.0831 -1.83884,1.4109 -1.71875,2.96875 l 4.375,56.84375 c 0.12009,1.55785 1.07771,2.73939 2.15625,2.65625 1.07854,-0.0831 1.87009,-1.4109 1.75,-2.96875 L 606.625,606.75 c -0.12009,-1.55785 -1.07771,-2.73939 -2.15625,-2.65625 z m 60.90625,1.25 c -1.07854,0.0831 -1.841,1.44535 -1.71875,3.03125 l 4.46875,57.875 c 0.12225,1.5859 1.07771,2.80189 2.15625,2.71875 0.4589,-0.0354 0.85559,-0.30156 1.15625,-0.71875 l 0,-9.65625 -3.875,-50.53125 c -0.12225,-1.5859 -1.10896,-2.80189 -2.1875,-2.71875 z M 110.6875,605.5 c -1.07854,0.0831 -1.841,1.44535 -1.71875,3.03125 l 4.4375,57.875 c 0.12225,1.5859 1.10896,2.80189 2.1875,2.71875 1.07854,-0.0831 1.841,-1.44535 1.71875,-3.03125 l -4.46875,-57.875 c -0.12225,-1.5859 -1.07771,-2.80189 -2.15625,-2.71875 z m 474.46875,0.0937 c -1.07854,0.0831 -1.83884,1.37965 -1.71875,2.9375 l 4.375,56.875 c 0.12009,1.55785 1.07771,2.73939 2.15625,2.65625 1.07854,-0.0831 1.87009,-1.4109 1.75,-2.96875 L 587.3125,608.25 c -0.12009,-1.55785 -1.07771,-2.73939 -2.15625,-2.65625 z M 91.375,607 c -1.078542,0.0831 -1.841004,1.4141 -1.71875,3 l 4.4375,57.875 c 0.122254,1.5859 1.108958,2.80189 2.1875,2.71875 1.078542,-0.0831 1.841004,-1.4141 1.71875,-3 l -4.46875,-57.875 C 93.408996,608.13285 92.453542,606.91686 91.375,607 z m -60.5,4.09375 c -1.078542,0.0831 -1.829714,1.65517 -1.6875,3.5 l 5.1875,67.3125 c 0.142214,1.84483 1.140208,3.27064 2.21875,3.1875 1.078542,-0.0831 1.829714,-1.65517 1.6875,-3.5 l -5.1875,-67.3125 c -0.142214,-1.84483 -1.140208,-3.27064 -2.21875,-3.1875 z m 494.28125,5.0625 c -1.07854,0.0831 -1.841,1.44535 -1.71875,3.03125 l 4.46875,57.875 c 0.12225,1.5859 1.07771,2.77064 2.15625,2.6875 1.07854,-0.0831 1.87225,-1.4141 1.75,-3 l -4.46875,-57.875 c -0.12225,-1.5859 -1.10896,-2.80189 -2.1875,-2.71875 z m -39.875,3.09375 c -1.07854,0.0831 -1.841,1.4141 -1.71875,3 l 4.46875,57.875 c 0.12225,1.5859 1.07771,2.80189 2.15625,2.71875 1.07854,-0.0831 1.841,-1.44535 1.71875,-3.03125 l -4.4375,-57.84375 c -0.12225,-1.5859 -1.10896,-2.80189 -2.1875,-2.71875 z m 143.0625,0.0312 c -1.07854,0.0831 -1.83884,1.4109 -1.71875,2.96875 l 4.375,56.8438 c 0.12009,1.55785 1.07771,2.73939 2.15625,2.65625 1.07854,-0.0831 1.83884,-1.4109 1.71875,-2.96875 L 630.5,621.9375 c -0.12009,-1.55785 -1.07771,-2.73939 -2.15625,-2.65625 z m -493.78125,1.4063 c -1.07854,0.0831 -1.87225,1.44535 -1.75,3.03125 l 4.46875,57.875 c 0.12225,1.5859 1.07771,2.77064 2.15625,2.6875 1.07854,-0.0831 1.87225,-1.4141 1.75,-3 l -4.46875,-57.875 c -0.12225,-1.5859 -1.07771,-2.80189 -2.15625,-2.71875 z m 429.34375,3.5625 c -1.07854,0.0831 -1.83884,1.4109 -1.71875,2.96875 l 4.375,56.84375 c 0.12009,1.55785 1.07771,2.73939 2.15625,2.65625 1.07854,-0.0831 1.83884,-1.4109 1.71875,-2.96875 l -4.375,-56.84375 c -0.12009,-1.55785 -1.07771,-2.73939 -2.15625,-2.65625 z M 70.125,625.65625 c -1.078542,0.0831 -1.872254,1.44535 -1.75,3.03125 l 4.46875,57.84375 c 0.122254,1.5859 1.077708,2.80189 2.15625,2.71875 1.078542,-0.0831 1.872254,-1.4141 1.75,-3 l -4.46875,-57.875 c -0.122254,-1.5859 -1.077708,-2.80189 -2.15625,-2.71875 z m 370.84375,3.875 c -1.07854,0.0831 -1.841,1.4141 -1.71875,3 l 4.46875,57.875 c 0.12225,1.5859 1.07771,2.80189 2.15625,2.71875 1.07854,-0.0831 1.87225,-1.4141 1.75,-3 l -4.46875,-57.875 c -0.12225,-1.5859 -1.10896,-2.80189 -2.1875,-2.71875 z m -39.875,3.0625 c -1.07854,0.0831 -1.841,1.44535 -1.71875,3.03125 l 4.46875,57.875 c 0.12225,1.5859 1.07771,2.77064 2.15625,2.6875 1.07854,-0.0831 1.841,-1.4141 1.71875,-3 l -4.4375,-57.875 c -0.12225,-1.5859 -1.10896,-2.80189 -2.1875,-2.71875 z M 306,639.9375 c -1.07854,0.0831 -1.841,1.4141 -1.71875,3 l 4.46875,57.875 c 0.12225,1.5859 1.07771,2.80189 2.15625,2.71875 1.07854,-0.0831 1.841,-1.4141 1.71875,-3 l -4.4375,-57.875 c -0.12225,-1.5859 -1.10896,-2.80189 -2.1875,-2.71875 z M 266.125,643 c -1.07854,0.0831 -1.841,1.44535 -1.71875,3.03125 l 4.46875,57.875 c 0.12225,1.5859 1.07771,2.77064 2.15625,2.6875 1.07854,-0.0831 1.841,-1.4141 1.71875,-3 l -4.46875,-57.875 C 268.159,644.13285 267.20354,642.91686 266.125,643 z m 198.71875,1.71875 c -1.07854,0.0831 -1.841,1.4141 -1.71875,3 l 4.46875,57.875 c 0.12225,1.5859 1.07771,2.80189 2.15625,2.71875 1.07854,-0.0831 1.841,-1.44535 1.71875,-3.03125 L 467,647.4375 c -0.12225,-1.5859 -1.07771,-2.80189 -2.15625,-2.71875 z m -100.78125,1.8125 c -1.07854,0.0831 -1.83884,1.37965 -1.71875,2.9375 l 4.375,56.875 c 0.12009,1.55785 1.07771,2.73939 2.15625,2.65625 1.07854,-0.0831 1.83884,-1.4109 1.71875,-2.96875 l -4.375,-56.84375 c -0.12009,-1.55785 -1.07771,-2.73939 -2.15625,-2.65625 z m 60.90625,1.25 c -1.07854,0.0831 -1.841,1.44535 -1.71875,3.03125 l 4.4375,57.84375 c 0.12225,1.5859 1.10896,2.80189 2.1875,2.71875 1.07854,-0.0831 1.841,-1.4141 1.71875,-3 L 427.125,650.5 c -0.12225,-1.5859 -1.07771,-2.80189 -2.15625,-2.71875 z M 344.75,648 c -1.07854,0.0831 -1.87009,1.4109 -1.75,2.96875 l 4.40625,56.84375 c 0.12009,1.55785 1.07771,2.73939 2.15625,2.65625 1.07854,-0.0831 1.83884,-1.37965 1.71875,-2.9375 l -4.375,-56.875 C 346.78616,649.0984 345.82854,647.91686 344.75,648 z m -60,10.59375 c -1.07854,0.0831 -1.841,1.4141 -1.71875,3 l 4.46875,57.875 c 0.12225,1.5859 1.07771,2.80189 2.15625,2.71875 1.07854,-0.0831 1.841,-1.4141 1.71875,-3 l -4.46875,-57.875 c -0.12225,-1.5859 -1.07771,-2.80189 -2.15625,-2.71875 z m -39.875,3.0625 c -1.07854,0.0831 -1.841,1.44535 -1.71875,3.03125 l 4.4375,57.875 c 0.12225,1.5859 1.10896,2.77064 2.1875,2.6875 1.07854,-0.0831 1.841,-1.4141 1.71875,-3 l -4.46875,-57.875 c -0.12225,-1.5859 -1.07771,-2.80189 -2.15625,-2.71875 z m 143.0625,0.0312 c -1.07854,0.0831 -1.87009,1.4109 -1.75,2.96875 l 4.375,56.84375 c 0.12009,1.55785 1.10896,2.77064 2.1875,2.6875 1.07854,-0.0831 1.83884,-1.4109 1.71875,-2.96875 l -4.375,-56.84375 c -0.12009,-1.55785 -1.07771,-2.77064 -2.15625,-2.6875 z m -64.4375,4.9688 c -1.07854,0.0831 -1.87009,1.4109 -1.75,2.96875 l 4.40625,56.84375 c 0.12009,1.55785 1.07771,2.73939 2.15625,2.65625 1.07854,-0.0831 1.83884,-1.37965 1.71875,-2.9375 l -4.375,-56.84375 c -0.12009,-1.55785 -1.07771,-2.77064 -2.15625,-2.6875 z m -128.59375,16.625 c -1.07854,0.0831 -1.841,1.4141 -1.71875,3 l 4.46875,57.875 c 0.12225,1.5859 1.07771,2.80189 2.15625,2.71875 1.07854,-0.0831 1.841,-1.44535 1.71875,-3.03125 l -4.46875,-57.875 c -0.12225,-1.5859 -1.07771,-2.77064 -2.15625,-2.6875 z m 453.90625,1.65625 c -1.07854,0.0831 -1.83884,1.37965 -1.71875,2.9375 l 4.375,56.84375 c 0.12009,1.55785 1.07771,2.77064 2.15625,2.6875 1.07854,-0.0831 1.87009,-1.4109 1.75,-2.96875 l -4.40625,-56.84375 c -0.12009,-1.55785 -1.07771,-2.73939 -2.15625,-2.65625 z m -493.78125,1.40625 c -1.07854,0.0831 -1.841,1.4141 -1.71875,3 l 4.4375,57.875 c 0.12225,1.5859 1.10896,2.80189 2.1875,2.71875 1.07854,-0.0831 1.841,-1.4141 1.71875,-3 l -4.46875,-57.875 c -0.12225,-1.5859 -1.07771,-2.80189 -2.15625,-2.71875 z m 398.6875,5.90625 c -1.07854,0.0831 -1.83884,1.4109 -1.71875,2.96875 l 4.375,56.84375 c 0.12009,1.55785 1.07771,2.73939 2.15625,2.65625 1.07854,-0.0831 1.87009,-1.4109 1.75,-2.96875 l -4.375,-56.84375 c -0.12009,-1.55785 -1.10896,-2.73939 -2.1875,-2.65625 z M 59.9375,693.6875 c -1.078542,0.0831 -1.841004,1.4141 -1.71875,3 l 4.4375,57.875 c 0.122254,1.5859 1.108958,2.80189 2.1875,2.71875 1.078542,-0.0831 1.841004,-1.44535 1.71875,-3.03125 l -4.46875,-57.875 c -0.122254,-1.5859 -1.077708,-2.77064 -2.15625,-2.6875 z m 574.15625,0.125 c -1.07854,0.0831 -1.82866,1.60634 -1.6875,3.4375 l 5.125,66.8125 c 0.14116,1.83116 1.14021,3.23939 2.21875,3.15625 1.07854,-0.0831 1.82866,-1.60634 1.6875,-3.4375 l -5.15625,-66.8125 c -0.14116,-1.83116 -1.10896,-3.23939 -2.1875,-3.15625 z m -120.25,1.53125 c -1.07854,0.0831 -1.83884,1.37965 -1.71875,2.9375 L 516.5,755.125 c 0.12009,1.55785 1.07771,2.77064 2.15625,2.6875 1.07854,-0.0831 1.87009,-1.4109 1.75,-2.96875 L 516,698 c -0.12009,-1.55785 -1.07771,-2.73939 -2.15625,-2.65625 z M 20.0625,696.75 c -1.078542,0.0831 -1.841004,1.4141 -1.71875,3 l 4.4375,57.875 c 0.122254,1.5859 1.108958,2.80189 2.1875,2.71875 1.078542,-0.0831 1.841004,-1.4141 1.71875,-3 l -4.46875,-57.875 c -0.122254,-1.5859 -1.077708,-2.80189 -2.15625,-2.71875 z m 198.71875,1.6875 c -1.07854,0.0831 -1.841,1.44535 -1.71875,3.03125 l 4.4375,57.875 c 0.12225,1.5859 1.10896,2.80189 2.1875,2.71875 1.07854,-0.0831 1.841,-1.44535 1.71875,-3.03125 l -4.46875,-57.875 c -0.12225,-1.5859 -1.07771,-2.80189 -2.15625,-2.71875 z m 350.875,0.34375 c -1.07854,0.0831 -1.82866,1.60634 -1.6875,3.4375 l 5.125,66.8125 c 0.14116,1.83116 1.14021,3.23939 2.21875,3.15625 1.07854,-0.0831 1.82866,-1.60634 1.6875,-3.4375 l -5.15625,-66.8125 c -0.14116,-1.83116 -1.10896,-3.23939 -2.1875,-3.15625 z M 118,700.25 c -1.07854,0.0831 -1.87009,1.4109 -1.75,2.96875 l 4.375,56.84375 c 0.12009,1.55785 1.10896,2.73939 2.1875,2.65625 1.07854,-0.0831 1.83884,-1.37965 1.71875,-2.9375 l -4.375,-56.875 C 120.03616,701.3484 119.07854,700.16686 118,700.25 z m 553.4375,0.6875 c -0.34886,0.54562 -0.53255,1.29739 -0.46875,2.125 l 0.46875,6.09375 0,-8.21875 z m -492.53125,0.59375 c -1.07854,0.0831 -1.87225,1.4141 -1.75,3 l 4.46875,57.875 c 0.12225,1.5859 1.07771,2.80189 2.15625,2.71875 1.07854,-0.0831 1.87225,-1.4141 1.75,-3 L 181.0625,704.25 c -0.12225,-1.5859 -1.07771,-2.80189 -2.15625,-2.71875 z m -80.25,0.21875 c -1.078542,0.0831 -1.838842,1.4109 -1.71875,2.96875 l 4.375,56.84375 c 0.12009,1.55785 1.10896,2.73939 2.1875,2.65625 1.07854,-0.0831 1.83884,-1.4109 1.71875,-2.96875 l -4.375,-56.84375 c -0.12009,-1.55785 -1.108958,-2.73939 -2.1875,-2.65625 z m 433.8125,9.15625 c -1.07854,0.0831 -1.83884,1.4109 -1.71875,2.96875 l 4.375,56.84375 c 0.12009,1.55785 1.07771,2.73939 2.15625,2.65625 1.07854,-0.0831 1.87009,-1.37965 1.75,-2.9375 l -4.40625,-56.875 c -0.12009,-1.55785 -1.07771,-2.73939 -2.15625,-2.65625 z m -493.78125,1.4375 c -1.078542,0.0831 -1.841004,1.4141 -1.71875,3 l 4.4375,57.875 c 0.122254,1.5859 1.108958,2.80189 2.1875,2.71875 1.078542,-0.0831 1.841004,-1.44535 1.71875,-3.03125 L 40.84375,715.0625 c -0.122254,-1.5859 -1.077708,-2.80189 -2.15625,-2.71875 z M 492.59375,714 c -1.07854,0.0831 -1.83884,1.37965 -1.71875,2.9375 l 4.375,56.875 c 0.12009,1.55785 1.07771,2.73939 2.15625,2.65625 1.07854,-0.0831 1.83884,-1.4109 1.71875,-2.96875 L 494.75,716.65625 C 494.62991,715.0984 493.67229,713.91686 492.59375,714 z m -350.75,1.4375 c -1.07854,0.0831 -1.83884,1.4109 -1.71875,2.96875 L 144.5,775.25 c 0.12009,1.55785 1.07771,2.73939 2.15625,2.65625 1.07854,-0.0831 1.87009,-1.4109 1.75,-2.96875 L 144,718.09375 c -0.12009,-1.55785 -1.07771,-2.73939 -2.15625,-2.65625 z M 0,715.875 l 0,40.5625 1.53125,19.84375 c 0.1222542,1.5859 1.0777081,2.80189 2.15625,2.71875 1.0785419,-0.0831 1.8722542,-1.4141 1.75,-3 L 0.96875,718.125 C 0.89539747,717.17346 0.51987217,716.35949 0,715.875 z m 77.40625,4.53125 c -1.078542,0.0831 -1.838842,1.4109 -1.71875,2.96875 l 4.375,56.84375 c 0.120092,1.55785 1.077708,2.73939 2.15625,2.65625 1.078542,-0.0831 1.870092,-1.4109 1.75,-2.96875 l -4.375,-56.84375 c -0.120092,-1.55785 -1.108958,-2.73939 -2.1875,-2.65625 z m 370.875,3.875 c -1.07854,0.0831 -1.83884,1.4109 -1.71875,2.96875 l 4.375,56.84375 c 0.12009,1.55785 1.07771,2.73939 2.15625,2.65625 1.07854,-0.0831 1.87009,-1.4109 1.75,-2.96875 L 450.4375,726.9375 c -0.12009,-1.55785 -1.07771,-2.73939 -2.15625,-2.65625 z m -39.875,3.0625 c -1.07854,0.0831 -1.83884,1.4109 -1.71875,2.96875 l 4.375,56.84375 c 0.12009,1.55785 1.07771,2.73939 2.15625,2.65625 1.07854,-0.0831 1.83884,-1.37965 1.71875,-2.9375 L 410.5625,730 c -0.12009,-1.55785 -1.07771,-2.73939 -2.15625,-2.65625 z m -95.09375,7.34375 c -1.07854,0.0831 -1.83884,1.4109 -1.71875,2.96875 l 4.375,56.84375 c 0.12009,1.55785 1.07771,2.73939 2.15625,2.65625 1.07854,-0.0831 1.83884,-1.4109 1.71875,-2.96875 l -4.375,-56.84375 c -0.12009,-1.55785 -1.07771,-2.73939 -2.15625,-2.65625 z m 80.34375,1.53125 c -1.07854,0.0831 -1.82866,1.63759 -1.6875,3.46875 L 397.125,806.5 c 0.14116,1.83116 1.14021,3.23939 2.21875,3.15625 1.07854,-0.0831 1.82866,-1.60634 1.6875,-3.4375 L 395.875,739.375 c -0.14116,-1.83116 -1.14021,-3.23939 -2.21875,-3.15625 z M 273.4375,737.75 c -1.07854,0.0831 -1.87009,1.4109 -1.75,2.96875 l 4.40625,56.84375 c 0.12009,1.55785 1.07771,2.73939 2.15625,2.65625 1.07854,-0.0831 1.83884,-1.4109 1.71875,-2.96875 l -4.375,-56.84375 c -0.12009,-1.55785 -1.07771,-2.73939 -2.15625,-2.65625 z m 198.71875,1.71875 c -1.07854,0.0831 -1.87009,1.37965 -1.75,2.9375 l 4.40625,56.875 c 0.12009,1.55785 1.07771,2.73939 2.15625,2.65625 1.07854,-0.0831 1.83884,-1.4109 1.71875,-2.96875 l -4.375,-56.84375 c -0.12009,-1.55785 -1.07771,-2.73939 -2.15625,-2.65625 z m -142.9375,1.71875 c -1.07854,0.0831 -1.82866,1.63759 -1.6875,3.46875 l 5.15625,66.8125 c 0.14116,1.83116 1.14021,3.23939 2.21875,3.15625 1.07854,-0.0831 1.82866,-1.63759 1.6875,-3.46875 l -5.15625,-66.8125 c -0.14116,-1.83116 -1.14021,-3.23939 -2.21875,-3.15625 z m 103.0625,1.34375 c -1.07854,0.0831 -1.87009,1.4109 -1.75,2.96875 l 4.375,56.84375 c 0.12009,1.55785 1.10896,2.73939 2.1875,2.65625 1.07854,-0.0831 1.83884,-1.4109 1.71875,-2.96875 l -4.375,-56.84375 c -0.12009,-1.55785 -1.07771,-2.73939 -2.15625,-2.65625 z m -140.21875,10.8125 c -1.07854,0.0831 -1.87009,1.4109 -1.75,2.96875 l 4.40625,56.84375 c 0.12009,1.55785 1.07771,2.73939 2.15625,2.65625 1.07854,-0.0831 1.83884,-1.4109 1.71875,-2.96875 L 294.21875,756 c -0.12009,-1.55785 -1.07771,-2.73939 -2.15625,-2.65625 z m -39.875,3.0625 c -1.07854,0.0831 -1.87009,1.4109 -1.75,2.96875 l 4.375,56.84375 c 0.12009,1.55785 1.10896,2.73939 2.1875,2.65625 1.07854,-0.0831 1.83884,-1.37965 1.71875,-2.9375 l -4.375,-56.875 c -0.12009,-1.55785 -1.07771,-2.73939 -2.15625,-2.65625 z m -49.96875,21.625 c -1.07854,0.0831 -1.87009,1.37965 -1.75,2.9375 l 4.40625,56.84375 c 0.12009,1.55785 1.07771,2.77064 2.15625,2.6875 1.07854,-0.0831 1.83884,-1.4109 1.71875,-2.96875 l -4.375,-56.84375 c -0.12009,-1.55785 -1.07771,-2.73939 -2.15625,-2.65625 z m -39.875,3.0625 c -1.07854,0.0831 -1.87009,1.4109 -1.75,2.96875 l 4.375,56.84375 c 0.12009,1.55785 1.10896,2.73939 2.1875,2.65625 1.07854,-0.0831 1.83884,-1.4109 1.71875,-2.96875 L 164.5,783.75 c -0.12009,-1.55785 -1.07771,-2.73939 -2.15625,-2.65625 z M 618.375,784.5 c -1.07854,0.0831 -1.82971,1.62392 -1.6875,3.46875 l 5.1875,67.34375 c 0.14221,1.84483 1.14021,3.23939 2.21875,3.15625 1.07854,-0.0831 1.82971,-1.62392 1.6875,-3.46875 l -5.1875,-67.3125 c -0.14221,-1.84483 -1.14021,-3.27064 -2.21875,-3.1875 z m -80.15625,0.9375 c -1.07854,0.0831 -1.82866,1.63759 -1.6875,3.46875 l 5.15625,66.8125 c 0.14116,1.83116 1.10896,3.23939 2.1875,3.15625 1.07854,-0.0831 1.82866,-1.63759 1.6875,-3.46875 l -5.15625,-66.8125 c -0.14116,-1.83116 -1.10896,-3.23939 -2.1875,-3.15625 z M 599.0625,786 c -1.07854,0.0831 -1.82971,1.62392 -1.6875,3.46875 l 5.1875,67.3125 c 0.14221,1.84483 1.14021,3.27064 2.21875,3.1875 1.07854,-0.0831 1.82971,-1.62392 1.6875,-3.46875 l -5.1875,-67.34375 C 601.13904,787.31142 600.14104,785.91686 599.0625,786 z M 67.25,788.40625 c -1.078542,0.0831 -1.870092,1.4109 -1.75,2.96875 l 4.40625,56.84375 c 0.120092,1.55785 1.077708,2.77064 2.15625,2.6875 1.078542,-0.0831 1.838842,-1.4109 1.71875,-2.96875 l -4.375,-56.84375 C 69.286158,789.5359 68.328542,788.32311 67.25,788.40625 z M 498.34375,788.5 c -1.07854,0.0831 -1.82866,1.63759 -1.6875,3.46875 l 5.125,66.8125 c 0.14116,1.83116 1.14021,3.23939 2.21875,3.15625 1.07854,-0.0831 1.82866,-1.60634 1.6875,-3.4375 l -5.15625,-66.84375 c -0.14116,-1.83116 -1.10896,-3.23939 -2.1875,-3.15625 z m -350.75,1.46875 c -1.07854,0.0831 -1.82866,1.63759 -1.6875,3.46875 l 5.15625,66.8125 c 0.14116,1.83116 1.10896,3.23939 2.1875,3.15625 1.07854,-0.0831 1.82866,-1.63759 1.6875,-3.46875 l -5.125,-66.8125 c -0.14116,-1.83116 -1.14021,-3.23939 -2.21875,-3.15625 z M 27.34375,791.5 c -1.078542,0.0831 -1.838842,1.4109 -1.71875,2.96875 L 30,851.3125 c 0.120092,1.55785 1.108958,2.73939 2.1875,2.65625 1.078542,-0.0831 1.838842,-1.4109 1.71875,-2.96875 l -4.375,-56.84375 C 29.411158,792.5984 28.422292,791.41686 27.34375,791.5 z m 198.71875,1.6875 c -1.07854,0.0831 -1.83884,1.4109 -1.71875,2.96875 L 228.71875,853 c 0.12009,1.55785 1.10896,2.73939 2.1875,2.65625 1.07854,-0.0831 1.83884,-1.37965 1.71875,-2.9375 l -4.375,-56.875 c -0.12009,-1.55785 -1.10896,-2.73939 -2.1875,-2.65625 z m -142.90625,1.75 c -1.078542,0.0831 -1.828661,1.60634 -1.6875,3.4375 l 5.15625,66.84375 c 0.141161,1.83116 1.108958,3.23939 2.1875,3.15625 1.078542,-0.0831 1.828661,-1.63759 1.6875,-3.46875 l -5.125,-66.8125 c -0.141161,-1.83116 -1.140208,-3.23939 -2.21875,-3.15625 z m 103.03125,1.34375 c -1.07854,0.0831 -1.83884,1.37965 -1.71875,2.9375 l 4.375,56.875 c 0.12009,1.55785 1.07771,2.73939 2.15625,2.65625 1.07854,-0.0831 1.87009,-1.4109 1.75,-2.96875 l -4.40625,-56.84375 c -0.12009,-1.55785 -1.07771,-2.73939 -2.15625,-2.65625 z M 642.25,799.6875 c -1.07854,0.0831 -1.82971,1.62392 -1.6875,3.46875 l 5.1875,67.3125 c 0.14221,1.84483 1.10896,3.27064 2.1875,3.1875 1.07854,-0.0831 1.86096,-1.62392 1.71875,-3.46875 L 644.4375,802.875 c -0.14221,-1.84483 -1.10896,-3.27064 -2.1875,-3.1875 z m -64.4375,4.96875 c -1.07854,0.0831 -1.82971,1.62392 -1.6875,3.46875 l 5.1875,67.3125 c 0.14221,1.84483 1.10896,3.27064 2.1875,3.1875 1.07854,-0.0831 1.86096,-1.62392 1.71875,-3.46875 L 580,807.8125 c -0.14221,-1.84483 -1.10896,-3.23939 -2.1875,-3.15625 z m -531.84375,2.4375 c -1.078542,0.0831 -1.838842,1.37965 -1.71875,2.9375 l 4.375,56.84375 c 0.120092,1.55785 1.108958,2.77064 2.1875,2.6875 1.078542,-0.0831 1.838842,-1.4109 1.71875,-2.96875 L 48.15625,809.75 c -0.120092,-1.55785 -1.108958,-2.73939 -2.1875,-2.65625 z m -39.875,3.0625 c -1.0785419,0.0831 -1.8388419,1.4109 -1.71875,2.96875 l 4.375,56.84375 c 0.1200919,1.55785 1.0777081,2.73939 2.15625,2.65625 1.078542,-0.0831 1.870092,-1.4109 1.75,-2.96875 l -4.375,-56.84375 c -0.1200919,-1.55785 -1.1089581,-2.73939 -2.1875,-2.65625 z m 471.8125,3.8125 c -1.07854,0.0831 -1.82866,1.63759 -1.6875,3.46875 l 5.125,66.8125 c 0.14116,1.83116 1.14021,3.23939 2.21875,3.15625 1.07854,-0.0831 1.82866,-1.60634 1.6875,-3.4375 L 480.09375,817.125 c -0.14116,-1.83116 -1.10896,-3.23939 -2.1875,-3.15625 z M 438,817.0625 c -1.07854,0.0831 -1.82866,1.60634 -1.6875,3.4375 l 5.15625,66.84375 c 0.14116,1.83116 1.14021,3.23939 2.21875,3.15625 1.07854,-0.0831 1.82866,-1.63759 1.6875,-3.46875 l -5.15625,-66.8125 C 440.07759,818.38759 439.07854,816.97936 438,817.0625 z m -60.03125,9.875 c -1.07854,0.0831 -1.82971,1.62392 -1.6875,3.46875 l 5.1875,67.3125 c 0.14221,1.84483 1.10896,3.27064 2.1875,3.1875 1.07854,-0.0831 1.86096,-1.62392 1.71875,-3.46875 l -5.21875,-67.34375 c -0.14221,-1.84483 -1.10896,-3.23939 -2.1875,-3.15625 z m -80.15625,0.9375 c -1.07854,0.0831 -1.82866,1.60634 -1.6875,3.4375 l 5.125,66.84375 c 0.14116,1.83116 1.14021,3.23939 2.21875,3.15625 1.07854,-0.0831 1.82866,-1.63759 1.6875,-3.46875 L 300,831.03125 c -0.14116,-1.83116 -1.10896,-3.23939 -2.1875,-3.15625 z m 60.84375,0.53125 c -1.07854,0.0831 -1.82971,1.65517 -1.6875,3.5 l 5.1875,67.3125 c 0.14221,1.84483 1.10896,3.27064 2.1875,3.1875 1.07854,-0.0831 1.82971,-1.65517 1.6875,-3.5 l -5.1875,-67.3125 c -0.14221,-1.84483 -1.10896,-3.27064 -2.1875,-3.1875 z m -100.75,2.53125 c -1.07854,0.0831 -1.82866,1.63759 -1.6875,3.46875 l 5.15625,66.8125 c 0.14116,1.83116 1.14021,3.23939 2.21875,3.15625 1.07854,-0.0831 1.82866,-1.63759 1.6875,-3.46875 l -5.15625,-66.8125 c -0.14116,-1.83116 -1.14021,-3.23939 -2.21875,-3.15625 z m 143.9375,11.15625 c -1.07854,0.0831 -1.82971,1.65517 -1.6875,3.5 l 5.1875,67.3125 c 0.14221,1.84483 1.10896,3.27064 2.1875,3.1875 1.07854,-0.0831 1.82971,-1.65517 1.6875,-3.5 l -5.1875,-67.3125 c -0.14221,-1.84483 -1.10896,-3.27064 -2.1875,-3.1875 z m -64.4375,4.96875 c -1.07854,0.0831 -1.82971,1.65517 -1.6875,3.5 l 5.1875,67.3125 c 0.14221,1.84483 1.10896,3.27064 2.1875,3.1875 1.07854,-0.0831 1.82971,-1.65517 1.6875,-3.5 l -5.1875,-67.3125 c -0.14221,-1.84483 -1.10896,-3.27064 -2.1875,-3.1875 z m 325.3125,18.28125 c -1.07854,0.0831 -1.82971,1.62392 -1.6875,3.46875 l 5.1875,67.3125 c 0.14221,1.84483 1.14021,3.27064 2.21875,3.1875 1.07854,-0.0831 1.82971,-1.62392 1.6875,-3.46875 L 664.9375,868.5 c -0.14221,-1.84483 -1.14021,-3.23939 -2.21875,-3.15625 z m -430.90625,2.375 c -1.07854,0.0831 -1.82866,1.63759 -1.6875,3.46875 L 235.28125,938 c 0.14116,1.83116 1.10896,3.23939 2.1875,3.15625 1.07854,-0.0831 1.85991,-1.63759 1.71875,-3.46875 l -5.15625,-66.8125 c -0.14116,-1.83116 -1.14021,-3.23939 -2.21875,-3.15625 z m -39.875,3.09375 c -1.07854,0.0831 -1.82866,1.60634 -1.6875,3.4375 l 5.15625,66.8125 c 0.14116,1.83116 1.10896,3.23939 2.1875,3.15625 1.07854,-0.0831 1.82866,-1.60634 1.6875,-3.4375 l -5.125,-66.8125 c -0.14116,-1.83116 -1.14021,-3.23939 -2.21875,-3.15625 z m 375.6875,1.84375 c -1.07854,0.0831 -1.82971,1.62392 -1.6875,3.46875 l 5.1875,67.34375 c 0.14221,1.84483 1.14021,3.23939 2.21875,3.15625 1.07854,-0.0831 1.82971,-1.62392 1.6875,-3.46875 l -5.1875,-67.3125 c -0.14221,-1.84483 -1.14021,-3.27064 -2.21875,-3.1875 z m 57.5625,0.0937 c -1.07854,0.0831 -1.82341,1.89402 -1.65625,4.0625 l 6.125,79.125 c 0.16716,2.16848 1.14021,3.86439 2.21875,3.78125 1.07854,-0.0831 1.82341,-1.89402 1.65625,-4.0625 l -6.09375,-79.125 c -0.16716,-2.16848 -1.17146,-3.86439 -2.25,-3.78125 z m -19.3125,1.5 c -1.07854,0.0831 -1.82341,1.89402 -1.65625,4.0625 l 6.09375,79.125 c 0.16716,2.16848 1.17146,3.83314 2.25,3.75 1.07854,-0.0831 1.82341,-1.89402 1.65625,-4.0625 L 608.125,878 c -0.16716,-2.16848 -1.17146,-3.83314 -2.25,-3.75 z m -78.125,1.46875 c -1.07854,0.0831 -1.82971,1.65517 -1.6875,3.5 l 5.1875,67.3125 c 0.14221,1.84483 1.14021,3.27064 2.21875,3.1875 1.07854,-0.0831 1.82971,-1.65517 1.6875,-3.5 l -5.1875,-67.3125 c -0.14221,-1.84483 -1.14021,-3.27064 -2.21875,-3.1875 z m -395.84375,4.9375 c -1.07854,0.0831 -1.82971,1.65517 -1.6875,3.5 l 5.1875,67.3125 c 0.14221,1.84483 1.10896,3.27064 2.1875,3.1875 1.07854,-0.0831 1.82971,-1.65517 1.6875,-3.5 l -5.1875,-67.3125 c -0.14221,-1.84483 -1.10896,-3.27064 -2.1875,-3.1875 z m -80.1875,0.9375 c -1.078542,0.0831 -1.828661,1.63759 -1.6875,3.46875 l 5.15625,66.8125 c 0.141161,1.83116 1.108958,3.23939 2.1875,3.15625 1.078542,-0.0831 1.859911,-1.60634 1.71875,-3.4375 L 53.9375,884.75 c -0.141161,-1.83116 -1.140208,-3.23939 -2.21875,-3.15625 z m 60.875,0.5625 c -1.07854,0.0831 -1.86096,1.62392 -1.71875,3.46875 l 5.21875,67.34375 c 0.14221,1.84483 1.10896,3.23939 2.1875,3.15625 1.07854,-0.0831 1.82971,-1.62392 1.6875,-3.46875 l -5.1875,-67.3125 c -0.14221,-1.84483 -1.10896,-3.27064 -2.1875,-3.1875 z m -100.75,2.53125 c -1.078542,0.0831 -1.828661,1.60634 -1.6875,3.4375 l 5.15625,66.84375 c 0.141161,1.83116 1.108958,3.23939 2.1875,3.15625 1.078542,-0.0831 1.828661,-1.63759 1.6875,-3.46875 l -5.125,-66.8125 c -0.141161,-1.83116 -1.140208,-3.23939 -2.21875,-3.15625 z m 637.21875,3.25 c -1.07854,0.0831 -1.82341,1.89402 -1.65625,4.0625 L 653.5,971.125 c 0.16716,2.16848 1.17146,3.86439 2.25,3.78125 1.07854,-0.0831 1.82341,-1.89402 1.65625,-4.0625 L 651.3125,891.6875 c -0.16716,-2.16848 -1.17146,-3.83314 -2.25,-3.75 z m -102.6875,3.375 c -1.07854,0.0831 -1.82971,1.65517 -1.6875,3.5 l 5.1875,67.3125 c 0.14221,1.84483 1.14021,3.27064 2.21875,3.1875 1.07854,-0.0831 1.82971,-1.65517 1.6875,-3.5 L 548.59375,894.5 c -0.14221,-1.84483 -1.14021,-3.27064 -2.21875,-3.1875 z m 38.25,1.59375 c -1.07854,0.0831 -1.82341,1.89402 -1.65625,4.0625 l 6.09375,79.125 c 0.16716,2.16848 1.17146,3.86439 2.25,3.78125 1.07854,-0.0831 1.82341,-1.89402 1.65625,-4.0625 l -6.09375,-79.1562 c -0.16716,-2.16848 -1.17146,-3.83314 -2.25,-3.75 z m -78.125,1.5 c -1.07854,0.0831 -1.82971,1.62392 -1.6875,3.46875 L 510,965.1875 c 0.14221,1.84483 1.10896,3.27064 2.1875,3.1875 1.07854,-0.0831 1.86096,-1.62392 1.71875,-3.46875 L 508.6875,897.5625 c -0.14221,-1.84483 -1.10896,-3.23939 -2.1875,-3.15625 z m -350.75,1.4375 c -1.07854,0.0831 -1.82971,1.62392 -1.6875,3.46875 l 5.1875,67.34375 c 0.14221,1.84483 1.14021,3.23939 2.21875,3.15625 1.07854,-0.0831 1.82971,-1.62392 1.6875,-3.46875 l -5.1875,-67.3125 c -0.14221,-1.84483 -1.14021,-3.27064 -2.21875,-3.1875 z m -64.4375,4.96875 c -1.078542,0.0831 -1.829714,1.62392 -1.6875,3.46875 l 5.1875,67.34375 c 0.142214,1.84483 1.140208,3.23939 2.21875,3.15625 1.078542,-0.0831 1.829714,-1.62392 1.6875,-3.46875 L 93.53125,904 c -0.142214,-1.84483 -1.140208,-3.27064 -2.21875,-3.1875 z m 370.875,3.875 c -1.07854,0.0831 -1.82971,1.62392 -1.6875,3.46875 l 5.1875,67.3125 c 0.14221,1.84483 1.14021,3.27064 2.21875,3.1875 1.07854,-0.0831 1.82971,-1.62392 1.6875,-3.46875 l -5.1875,-67.3125 c -0.14221,-1.84483 -1.14021,-3.27064 -2.21875,-3.1875 z m -39.875,3.0625 c -1.07854,0.0831 -1.82971,1.65517 -1.6875,3.5 l 5.1875,67.3125 c 0.0711,0.92242 0.35572,1.73584 0.75,2.3125 l 2.625,0 c 0.39326,-0.64865 0.61124,-1.58728 0.53125,-2.625 L 424.5,910.9375 c -0.14221,-1.84483 -1.10896,-3.27064 -2.1875,-3.1875 z m -95.09375,7.34375 c -1.07854,0.0831 -1.82971,1.62392 -1.6875,3.46875 l 4.8125,62.3125 3.90625,0 -4.8125,-62.59375 c -0.14221,-1.84483 -1.14021,-3.27064 -2.21875,-3.1875 z m 57.5625,0.0937 c -1.07854,0.0831 -1.82341,1.89402 -1.65625,4.0625 l 4.75,61.625 3.9375,0 -4.78125,-61.9375 c -0.16716,-2.16848 -1.17146,-3.83314 -2.25,-3.75 z m -19.3125,1.46875 c -1.07854,0.0831 -1.82341,1.92527 -1.65625,4.09375 l 4.625,60.125 3.9375,0 -4.65625,-60.4375 c -0.16716,-2.16848 -1.17146,-3.86439 -2.25,-3.78125 z m -78.125,1.5 c -1.07854,0.0831 -1.82971,1.65517 -1.6875,3.5 l 4.5625,59.21875 3.90625,0 -4.59375,-59.53125 c -0.14221,-1.84483 -1.10896,-3.27064 -2.1875,-3.1875 z M 486.0625,919.875 c -1.07854,0.0831 -1.82971,1.62392 -1.6875,3.46875 l 4.4375,57.53125 3.90625,0 -4.46875,-57.84375 c -0.14221,-1.84483 -1.10896,-3.23939 -2.1875,-3.15625 z m -39.875,3.0625 c -1.07854,0.0831 -1.82971,1.62392 -1.6875,3.46875 l 4.1875,54.46875 3.90625,0 -4.21875,-54.75 c -0.14221,-1.84483 -1.10896,-3.27064 -2.1875,-3.1875 z m -37.5625,7.4375 c -1.07854,0.0831 -1.79216,1.89402 -1.625,4.0625 l 3.5625,46.4375 3.90625,0 -3.59375,-46.75 c -0.16716,-2.16848 -1.17146,-3.83314 -2.25,-3.75 z m -102.65625,3.375 c -1.07854,0.0831 -1.82971,1.62392 -1.6875,3.46875 l 3.375,43.65625 3.875,0 -3.375,-43.9375 c -0.14221,-1.84483 -1.10896,-3.27064 -2.1875,-3.1875 z m 38.21875,1.59375 c -1.07854,0.0831 -1.79216,1.89402 -1.625,4.0625 l 3.1875,41.46875 3.90625,0 -3.21875,-41.78125 c -0.16716,-2.16848 -1.17146,-3.83314 -2.25,-3.75 z m -78.09375,1.46875 c -1.07854,0.0831 -1.82971,1.65517 -1.6875,3.5 l 3.125,40.5625 3.90625,0 L 268.28125,940 c -0.14221,-1.84483 -1.10896,-3.27064 -2.1875,-3.1875 z m 403.4375,16.78125 c -1.07854,0.0831 -1.82341,1.89402 -1.65625,4.0625 l 1.65625,21.5625 c 1.15861,-1.09783 1.90625,-2.6455 1.90625,-4.375 l 0,-19.1875 c -0.41661,-1.27074 -1.13586,-2.12189 -1.90625,-2.0625 z m -453.40625,4.8125 c -1.07854,0.0831 -1.82971,1.65517 -1.6875,3.5 l 1.46875,18.96875 3.90625,0 -1.5,-19.28125 c -0.14221,-1.84483 -1.10896,-3.27064 -2.1875,-3.1875 z m 358.3125,2.5 c -1.07854,0.0831 -1.82341,1.89402 -1.65625,4.0625 L 574,980.875 l 3.9375,0 -1.25,-16.1875 c -0.16716,-2.16848 -1.17146,-3.86439 -2.25,-3.78125 z M 176.25,961.5 c -1.07854,0.0831 -1.82971,1.62392 -1.6875,3.46875 l 1.21875,15.90625 3.90625,0 -1.25,-16.1875 c -0.14221,-1.84483 -1.10896,-3.27064 -2.1875,-3.1875 z m 358.3125,2.5 c -1.07854,0.0831 -1.82341,1.89402 -1.65625,4.0625 l 1,12.8125 3.90625,0 -1,-13.125 c -0.16716,-2.16848 -1.17146,-3.83314 -2.25,-3.75 z m -453.40625,4.8125 c -1.078542,0.0831 -1.829714,1.65517 -1.6875,3.5 l 0.65625,8.5625 3.90625,0 -0.6875,-8.875 c -0.142214,-1.84483 -1.108958,-3.27064 -2.1875,-3.1875 z m 57.53125,0.0937 c -1.07854,0.0831 -1.79216,1.92527 -1.625,4.09375 l 0.59375,7.875 3.90625,0 -0.625,-8.1875 c -0.16716,-2.16848 -1.17146,-3.86439 -2.25,-3.78125 z m -19.3125,1.5 c -1.07854,0.0831 -1.79216,1.89402 -1.625,4.0625 l 0.5,6.40625 3.875,0 -0.5,-6.6875 c -0.16716,-2.16848 -1.17146,-3.86439 -2.25,-3.78125 z m -78.09375,1.5 c -1.078542,0.0831 -1.860964,1.62392 -1.71875,3.46875 l 0.4375,5.5 3.90625,0 -0.4375,-5.78125 c -0.142214,-1.84483 -1.108958,-3.27064 -2.1875,-3.1875 z m 198.6875,1.6875 c -1.07854,0.0831 -1.82971,1.65517 -1.6875,3.5 l 0.28125,3.78125 3.9375,0 -0.3125,-4.09375 c -0.14221,-1.84483 -1.14021,-3.27064 -2.21875,-3.1875 z m -39.875,3.09375 c -1.07854,0.0831 -1.82971,1.62392 -1.6875,3.46875 l 0.0625,0.71875 3.9375,0 -0.0937,-1.03125 c -0.14221,-1.84483 -1.14021,-3.23939 -2.21875,-3.15625 z m 353.09375,2.875 c -0.55407,0.0427 -1.01296,0.54362 -1.3125,1.3125 l 2.90625,0 c -0.42315,-0.83593 -0.99134,-1.35894 -1.59375,-1.3125 z"
         transform="matrix(1,0,0,-1,15.953985,1018.9515)"
         id="rect4717" />
    </g>
  </g>
</svg>
