<?xml version="1.0" encoding="UTF-8" standalone="no"?>
<!-- Created with Inkscape (http://www.inkscape.org/) -->
<svg
   xmlns:dc="http://purl.org/dc/elements/1.1/"
   xmlns:cc="http://web.resource.org/cc/"
   xmlns:rdf="http://www.w3.org/1999/02/22-rdf-syntax-ns#"
   xmlns:svg="http://www.w3.org/2000/svg"
   xmlns="http://www.w3.org/2000/svg"
   xmlns:sodipodi="http://sodipodi.sourceforge.net/DTD/sodipodi-0.dtd"
   xmlns:inkscape="http://www.inkscape.org/namespaces/inkscape"
   width="1020.8884"
   height="690.7486"
   id="svg2"
   sodipodi:version="0.32"
   inkscape:version="0.45.1"
   version="1.0"
   sodipodi:docbase="C:\Dokumente und Einstellungen\Klaus\Eigene Dateien\Eigene Bilder\OpebClipartLibrary"
   sodipodi:docname="Jet.svg"
   inkscape:output_extension="org.inkscape.output.svg.inkscape"
   inkscape:export-filename="C:\Dokumente und Einstellungen\Klaus\Eigene Dateien\Eigene Bilder\OpebClipartLibrary\Jet.png"
   inkscape:export-xdpi="28.273674"
   inkscape:export-ydpi="28.273674">
  <defs
     id="defs4" />
  <sodipodi:namedview
     id="base"
     pagecolor="#ffffff"
     bordercolor="#666666"
     borderopacity="1.0"
     inkscape:pageopacity="0.0"
     inkscape:pageshadow="2"
     inkscape:zoom="1.1190757"
     inkscape:cx="510.44419"
     inkscape:cy="345.37429"
     inkscape:document-units="px"
     inkscape:current-layer="layer1"
     width="1052.3622px"
     height="744.09448px"
     inkscape:window-width="1280"
     inkscape:window-height="977"
     inkscape:window-x="-4"
     inkscape:window-y="-4" />
  <metadata
     id="metadata7">
    <rdf:RDF>
      <cc:Work
         rdf:about="">
        <dc:format>image/svg+xml</dc:format>
        <dc:type
           rdf:resource="http://purl.org/dc/dcmitype/StillImage" />
        <dc:title>Jet</dc:title>
        <dc:date>20070107</dc:date>
        <dc:creator>
          <cc:Agent>
            <dc:title>Klaus Kellner</dc:title>
          </cc:Agent>
        </dc:creator>
        <dc:rights>
          <cc:Agent>
            <dc:title>Klaus Kellner</dc:title>
          </cc:Agent>
        </dc:rights>
        <dc:publisher>
          <cc:Agent>
            <dc:title>Klaus Kellner</dc:title>
          </cc:Agent>
        </dc:publisher>
        <dc:subject>
          <rdf:Bag>
            <rdf:li>Jet</rdf:li>
            <rdf:li>Plane</rdf:li>
            <rdf:li>Clipart</rdf:li>
          </rdf:Bag>
        </dc:subject>
        <cc:license
           rdf:resource="http://web.resource.org/cc/PublicDomain" />
      </cc:Work>
      <cc:License
         rdf:about="http://web.resource.org/cc/PublicDomain">
        <cc:permits
           rdf:resource="http://web.resource.org/cc/Reproduction" />
        <cc:permits
           rdf:resource="http://web.resource.org/cc/Distribution" />
        <cc:permits
           rdf:resource="http://web.resource.org/cc/DerivativeWorks" />
      </cc:License>
    </rdf:RDF>
  </metadata>
  <g
     inkscape:label="Ebene 1"
     inkscape:groupmode="layer"
     id="layer1"
     transform="translate(-22.336023,-17.297973)">
    <g
       id="g3921"
       transform="translate(1204.8099,72.651855)">
      <rect
         transform="scale(1,-1)"
         style="fill:#82a0f5;fill-opacity:1;stroke:none;stroke-width:26.10954285;stroke-linecap:round;stroke-linejoin:round;stroke-miterlimit:4;stroke-dasharray:none;stroke-opacity:1"
         id="rect6335"
         width="1018.9624"
         height="518.79578"
         x="-1182.4026"
         y="-463.44189" />
      <path
         style="fill:#c8beb7;fill-opacity:1;stroke:none;stroke-width:16.78343201;stroke-linecap:round;stroke-linejoin:round;stroke-miterlimit:4;stroke-opacity:1"
         d="M -1182.4738,281.62151 L -1067.8824,349.87032 L -799.73111,332.80812 L -587.61041,216.21641 L -440.8948,344.18292 L -287.91338,383.99472 L -163.36897,327.12072 L -163.36897,427.71048 L -1182.4738,427.71048 L -1182.4738,281.62151 z "
         id="path6360"
         sodipodi:nodetypes="cccccccccc" />
      <path
         sodipodi:nodetypes="cccccccc"
         id="rect6357"
         d="M -1182.4738,301.62151 L -947.60353,355.65182 L -587.61041,267.49711 L -329.99049,364.18292 L -163.36897,347.12072 L -163.36897,447.71048 L -1182.4738,447.71048 L -1182.4738,301.62151 z "
         style="fill:#ac9d93;fill-opacity:1;stroke:none;stroke-width:16.78343201;stroke-linecap:round;stroke-linejoin:round;stroke-miterlimit:4;stroke-opacity:1" />
      <rect
         y="421.05695"
         x="-1182.4739"
         height="214.33777"
         width="1019.1049"
         id="rect6333"
         style="fill:#808000;fill-opacity:1;stroke:none;stroke-width:16.78343201;stroke-linecap:round;stroke-linejoin:round;stroke-miterlimit:4;stroke-dasharray:none;stroke-opacity:1" />
      <path
         sodipodi:nodetypes="ccccc"
         id="rect6330"
         d="M -684.4551,458.39631 L -639.67009,460.49586 L -169.42757,617.96133 L -400.07032,609.56317 L -684.4551,458.39631 z "
         style="fill:#b3b3b3;fill-opacity:1;stroke:none;stroke-width:11.83848763;stroke-linecap:round;stroke-linejoin:round;stroke-miterlimit:4;stroke-opacity:1" />
      <path
         sodipodi:nodetypes="ccccc"
         id="rect6362"
         d="M -1182.4738,421.05691 L -848.70066,421.05691 L -564.33065,621.17618 L -1182.4738,635.39468 L -1182.4738,421.05691 z "
         style="fill:#6b6d00;fill-opacity:1;stroke:none;stroke-width:16.78343201;stroke-linecap:round;stroke-linejoin:round;stroke-miterlimit:4;stroke-opacity:1" />
      <path
         sodipodi:nodetypes="cccc"
         id="rect7334"
         d="M -599.51531,421.05691 L -163.36897,421.05691 L -161.58547,552.92738 L -599.51531,421.05691 z "
         style="fill:#6b6d00;fill-opacity:1;stroke:none;stroke-width:16.78343201;stroke-linecap:round;stroke-linejoin:round;stroke-miterlimit:4;stroke-opacity:1" />
    </g>
    <g
       id="g3377">
      <path
         id="path2278"
         d="M 910.6953,185.5719 C 841.79659,196.10422 832.43763,231.79545 848.50014,272.19999 C 794.83813,279.68507 748.10467,303.4718 748.0734,338.43493 C 748.07734,338.95708 748.13519,339.48877 748.21921,340.01057 C 704.83091,324.16504 659.21833,308.33132 613.01239,293.40896 C 585.77095,252.6144 553.21566,214.89258 533.89515,211.98212 C 531.63704,211.65665 528.80831,211.355 525.49695,211.11068 C 501.19694,209.31779 451.40705,210.25412 417.69451,221.51473 C 394.89782,210.46641 359.19901,199.02941 323.76422,193.31636 C 316.00439,192.21599 308.65429,191.4439 301.71686,190.94256 C 300.2474,190.83638 298.78318,190.73381 297.3515,190.65239 C 252.96936,188.12825 226.83608,197.33536 223.84287,207.18826 C 172.4638,204.98898 130.35557,210.43467 102.71337,226.32134 C 112.7732,243.82508 177.28723,272.43029 203.85773,280.74344 C 200.86851,281.61577 198.26241,282.49554 195.97575,283.41404 C 193.19222,283.35236 190.37246,283.91569 187.64668,285.27195 C 176.03942,291.04733 184.34526,306.58449 189.25139,317.19868 C 192.93676,325.98212 198.3628,333.24513 205.85107,333.67972 C 267.64609,363.90692 343.86244,387.63486 424.85223,407.83725 C 456.45089,490.05058 615.08759,614.01215 649.75344,635.88123 C 687.1543,660.98664 695.66895,538.48102 680.11077,462.35636 C 735.47867,473.40213 788.43199,484.2213 835.82992,495.78947 C 842.5956,497.09577 849.2984,494.76323 855.50803,489.98812 C 855.92925,490.2078 856.32469,490.41377 856.74915,490.63436 C 893.33182,498.63325 916.94667,424.77036 885.7368,404.14781 C 884.59291,399.70438 882.74752,395.86232 880.12624,392.90718 C 890.67864,390.34344 905.39309,381.12318 919.67756,368.94645 C 940.75257,389.80724 961.05337,406.38014 973.13849,414.18567 C 1040.8606,394.37007 960.11162,201.95063 910.6953,185.5719 z "
         style="fill:#ffff00;fill-opacity:1;fill-rule:evenodd;stroke:#040404;stroke-width:15;stroke-linecap:round;stroke-linejoin:round;stroke-miterlimit:4;stroke-dasharray:none;stroke-opacity:1" />
      <path
         id="path2222"
         d="M 412.117,299.27269 C 458.93098,340.73098 610.90466,390.11477 651.50456,398.42522 C 692.8499,409.59107 578.34325,218.66478 533.89493,211.96907 C 497.76519,206.7616 313.33534,209.46656 412.117,299.27269 z "
         style="fill:#ffff00;fill-opacity:1;fill-rule:evenodd;stroke:#000000;stroke-width:4;stroke-linecap:round;stroke-linejoin:round;stroke-miterlimit:4;stroke-dasharray:none;stroke-opacity:1" />
      <path
         id="path2224"
         d="M 872.93067,387.89143 C 907.57218,401.41748 872.76669,502.91988 835.82958,495.78819 C 646.23788,449.51549 367.94066,415.11664 200.50311,331.03487 C 206.14929,316.44572 154.24893,295.22546 203.84554,280.75196 C 177.27504,272.43881 112.77165,243.83384 102.71181,226.33011 C 225.23792,155.91126 631.55702,290.47742 872.93067,387.89143 z "
         style="fill:#ff0000;fill-opacity:1;fill-rule:evenodd;stroke:#000000;stroke-width:4;stroke-linecap:round;stroke-linejoin:round;stroke-miterlimit:4;stroke-dasharray:none;stroke-opacity:1" />
      <path
         id="path2226"
         d="M 323.76113,193.32456 C 382.98431,202.87295 443.01757,228.37492 442.15102,241.41124 C 440.47709,252.52332 388.89163,254.70598 329.66846,245.1576 C 269.45223,236.47848 220.96704,220.16163 223.63403,208.18029 C 225.36986,196.13704 261.68257,184.52165 323.76113,193.32456 z "
         style="fill:#99ffff;fill-opacity:1;fill-rule:evenodd;stroke:#000000;stroke-width:4;stroke-linecap:round;stroke-linejoin:round;stroke-miterlimit:4;stroke-dasharray:none;stroke-opacity:1" />
      <path
         id="path2228"
         d="M 213.53942,331.90143 C 222.60077,322.21569 220.55004,310.85601 216.63698,299.37255 C 212.72391,287.88908 199.25161,279.51131 187.64436,285.28671 C 176.03711,291.0621 184.3584,306.57971 189.26452,317.1939 C 194.10875,328.73927 201.93217,337.67681 213.53942,331.90143 z "
         style="fill:#333333;fill-opacity:1;fill-rule:evenodd;stroke:#000000;stroke-width:4;stroke-linecap:round;stroke-linejoin:round;stroke-miterlimit:4;stroke-dasharray:none;stroke-opacity:1" />
      <path
         id="path2230"
         d="M 427.89574,357.37358 C 454.27242,326.39212 610.22109,386.32822 653.74097,406.9914 C 698.06821,429.57881 700.78404,670.12613 649.75024,635.86957 C 606.66362,608.68823 372.03944,423.80662 427.89574,357.37358 z "
         style="fill:#ffff00;fill-opacity:1;fill-rule:evenodd;stroke:#000000;stroke-width:4;stroke-linecap:round;stroke-linejoin:round;stroke-miterlimit:4;stroke-dasharray:none;stroke-opacity:1" />
      <path
         id="path2232"
         d="M 748.08455,338.4403 C 748.27567,363.70555 843.87888,388.76612 872.55929,393.47841 C 902.17089,398.2526 1007.0613,297.66781 948.45712,278.80777 C 872.47029,254.11588 748.13559,281.39166 748.08455,338.4403 z "
         style="fill:#ffff00;fill-opacity:1;fill-rule:evenodd;stroke:#000000;stroke-width:4;stroke-linecap:round;stroke-linejoin:round;stroke-miterlimit:4;stroke-dasharray:none;stroke-opacity:1" />
      <path
         id="path2234"
         d="M 910.69637,185.57563 C 960.11272,201.95436 1040.8499,394.37704 973.12782,414.19264 C 924.70181,382.91527 744.39738,210.99722 910.69637,185.57563 z "
         style="fill:#ff0000;fill-opacity:1;fill-rule:evenodd;stroke:#000000;stroke-width:4;stroke-linecap:round;stroke-linejoin:round;stroke-miterlimit:4;stroke-dasharray:none;stroke-opacity:1" />
      <path
         id="path2236"
         d="M 884.97663,403.65662 C 917.32254,423.57704 893.62369,498.69463 856.74849,490.63177 C 666.89836,391.96625 802.03836,385.04959 884.97663,403.65662 z "
         style="fill:#666666;fill-opacity:1;fill-rule:evenodd;stroke:#000000;stroke-width:4;stroke-linecap:round;stroke-linejoin:round;stroke-miterlimit:4;stroke-dasharray:none;stroke-opacity:1" />
      <path
         style="fill:#fffeff;fill-opacity:1;fill-rule:evenodd;stroke:none;stroke-width:4;stroke-linecap:round;stroke-linejoin:round;stroke-miterlimit:4;stroke-dasharray:none;stroke-opacity:1"
         d="M 281.17386,196.64649 C 300.11064,197.35985 319.87543,203.59351 320.07209,208.17175 C 319.94612,212.11547 303.82903,215.15071 284.89226,214.43733 C 265.67493,214.07049 249.86603,210.52634 250.27253,206.23609 C 250.38446,201.96537 261.3674,196.31866 281.17386,196.64649 z "
         id="path3329" />
    </g>
  </g>
</svg>
