<?xml version="1.0" encoding="UTF-8" standalone="no"?>
<!-- Created with Inkscape (http://www.inkscape.org/) -->

<svg
   xmlns:dc="http://purl.org/dc/elements/1.1/"
   xmlns:cc="http://creativecommons.org/ns#"
   xmlns:rdf="http://www.w3.org/1999/02/22-rdf-syntax-ns#"
   xmlns:svg="http://www.w3.org/2000/svg"
   xmlns="http://www.w3.org/2000/svg"
   xmlns:xlink="http://www.w3.org/1999/xlink"
   xmlns:sodipodi="http://sodipodi.sourceforge.net/DTD/sodipodi-0.dtd"
   xmlns:inkscape="http://www.inkscape.org/namespaces/inkscape"
   width="297mm"
   height="210mm"
   id="svg2816"
   version="1.1"
   inkscape:version="0.47 r22583"
   sodipodi:docname="Sky.svg"
   inkscape:export-filename="/Users/gluff/Pictures/Drawings/Sky.png"
   inkscape:export-xdpi="90"
   inkscape:export-ydpi="90">
  <defs
     id="defs2818">
    <inkscape:path-effect
       effect="skeletal"
       id="path-effect3104"
       is_visible="true"
       pattern="M 0,0 1,0"
       copytype="single_stretched"
       prop_scale="1"
       scale_y_rel="false"
       spacing="0"
       normal_offset="0"
       tang_offset="0"
       prop_units="false"
       vertical_pattern="false"
       fuse_tolerance="0" />
    <inkscape:path-effect
       effect="skeletal"
       id="path-effect3100"
       is_visible="true"
       pattern="M 0,0 1,0"
       copytype="single_stretched"
       prop_scale="1"
       scale_y_rel="false"
       spacing="0"
       normal_offset="0"
       tang_offset="0"
       prop_units="false"
       vertical_pattern="false"
       fuse_tolerance="0" />
    <inkscape:path-effect
       effect="skeletal"
       id="path-effect3096"
       is_visible="true"
       pattern="M 0,0 1,0"
       copytype="single_stretched"
       prop_scale="1"
       scale_y_rel="false"
       spacing="0"
       normal_offset="0"
       tang_offset="0"
       prop_units="false"
       vertical_pattern="false"
       fuse_tolerance="0" />
    <inkscape:path-effect
       effect="skeletal"
       id="path-effect3087"
       is_visible="true"
       pattern="M 0,0 1,0"
       copytype="single_stretched"
       prop_scale="1"
       scale_y_rel="false"
       spacing="0"
       normal_offset="0"
       tang_offset="0"
       prop_units="false"
       vertical_pattern="false"
       fuse_tolerance="0" />
    <linearGradient
       inkscape:collect="always"
       id="linearGradient3077">
      <stop
         style="stop-color:#f0ffff;stop-opacity:1;"
         offset="0"
         id="stop3079" />
      <stop
         style="stop-color:#f0ffff;stop-opacity:0;"
         offset="1"
         id="stop3081" />
    </linearGradient>
    <linearGradient
       inkscape:collect="always"
       id="linearGradient3069">
      <stop
         style="stop-color:#f0ffff;stop-opacity:1;"
         offset="0"
         id="stop3071" />
      <stop
         style="stop-color:#f0ffff;stop-opacity:0;"
         offset="1"
         id="stop3073" />
    </linearGradient>
    <inkscape:path-effect
       effect="skeletal"
       id="path-effect3045"
       is_visible="true"
       pattern="M 0,0 1,0"
       copytype="single_stretched"
       prop_scale="1"
       scale_y_rel="false"
       spacing="0"
       normal_offset="0"
       tang_offset="0"
       prop_units="false"
       vertical_pattern="false"
       fuse_tolerance="0" />
    <inkscape:path-effect
       effect="skeletal"
       id="path-effect3041"
       is_visible="true"
       pattern="M 0,0 1,0"
       copytype="single_stretched"
       prop_scale="1"
       scale_y_rel="false"
       spacing="0"
       normal_offset="0"
       tang_offset="0"
       prop_units="false"
       vertical_pattern="false"
       fuse_tolerance="0" />
    <inkscape:path-effect
       effect="skeletal"
       id="path-effect3028"
       is_visible="true"
       pattern="m 1.5706898,-6.2827593 1,0"
       copytype="single_stretched"
       prop_scale="1"
       scale_y_rel="false"
       spacing="0"
       normal_offset="0"
       tang_offset="0"
       prop_units="false"
       vertical_pattern="false"
       fuse_tolerance="0" />
    <inkscape:path-effect
       effect="skeletal"
       id="path-effect3024"
       is_visible="true"
       pattern="m -9.4241394,3.1413796 1,0"
       copytype="single_stretched"
       prop_scale="1"
       scale_y_rel="false"
       spacing="0"
       normal_offset="0"
       tang_offset="0"
       prop_units="false"
       vertical_pattern="false"
       fuse_tolerance="0" />
    <inkscape:path-effect
       effect="skeletal"
       id="path-effect3020"
       is_visible="true"
       pattern="m 7.8534491,-9.4241389 1,0"
       copytype="single_stretched"
       prop_scale="1"
       scale_y_rel="false"
       spacing="0"
       normal_offset="0"
       tang_offset="0"
       prop_units="false"
       vertical_pattern="false"
       fuse_tolerance="0" />
    <inkscape:path-effect
       effect="skeletal"
       id="path-effect3016"
       is_visible="true"
       pattern="M 0,0 1,0"
       copytype="single_stretched"
       prop_scale="1"
       scale_y_rel="false"
       spacing="0"
       normal_offset="0"
       tang_offset="0"
       prop_units="false"
       vertical_pattern="false"
       fuse_tolerance="0" />
    <inkscape:path-effect
       effect="skeletal"
       id="path-effect3012"
       is_visible="true"
       pattern="M 0,0 1,0"
       copytype="single_stretched"
       prop_scale="1"
       scale_y_rel="false"
       spacing="0"
       normal_offset="0"
       tang_offset="0"
       prop_units="false"
       vertical_pattern="false"
       fuse_tolerance="0" />
    <inkscape:path-effect
       effect="skeletal"
       id="path-effect3008"
       is_visible="true"
       pattern="M 0,0 1,0"
       copytype="single_stretched"
       prop_scale="1"
       scale_y_rel="false"
       spacing="0"
       normal_offset="0"
       tang_offset="0"
       prop_units="false"
       vertical_pattern="false"
       fuse_tolerance="0" />
    <inkscape:path-effect
       effect="skeletal"
       id="path-effect3000"
       is_visible="true"
       pattern="M 0,0 1,0"
       copytype="single_stretched"
       prop_scale="1"
       scale_y_rel="false"
       spacing="0"
       normal_offset="0"
       tang_offset="0"
       prop_units="false"
       vertical_pattern="false"
       fuse_tolerance="0" />
    <inkscape:perspective
       sodipodi:type="inkscape:persp3d"
       inkscape:vp_x="0 : 372.04724 : 1"
       inkscape:vp_y="0 : 1000 : 0"
       inkscape:vp_z="1052.3622 : 372.04724 : 1"
       inkscape:persp3d-origin="526.18109 : 248.03149 : 1"
       id="perspective2825" />
    <linearGradient
       inkscape:collect="always"
       xlink:href="#linearGradient3069"
       id="linearGradient3075"
       x1="455.50006"
       y1="448.80481"
       x2="618.85181"
       y2="571.3186"
       gradientUnits="userSpaceOnUse" />
    <linearGradient
       inkscape:collect="always"
       xlink:href="#linearGradient3077"
       id="linearGradient3083"
       x1="515.18628"
       y1="414.24963"
       x2="672.25525"
       y2="483.35995"
       gradientUnits="userSpaceOnUse" />
  </defs>
  <sodipodi:namedview
     inkscape:document-units="mm"
     pagecolor="#ffffff"
     bordercolor="#666666"
     borderopacity="1.0"
     inkscape:pageopacity="0.0"
     inkscape:pageshadow="2"
     inkscape:zoom="0.70710678"
     inkscape:cx="489.26988"
     inkscape:cy="312.56728"
     inkscape:current-layer="layer5"
     id="namedview2820"
     showgrid="false"
     inkscape:window-width="771"
     inkscape:window-height="728"
     inkscape:window-x="572"
     inkscape:window-y="0"
     inkscape:window-maximized="0" />
  <metadata
     id="metadata2822">
    <rdf:RDF>
      <cc:Work
         rdf:about="">
        <dc:format>image/svg+xml</dc:format>
        <dc:type
           rdf:resource="http://purl.org/dc/dcmitype/StillImage" />
        <dc:title></dc:title>
      </cc:Work>
    </rdf:RDF>
  </metadata>
  <g
     inkscape:label="Sky"
     inkscape:groupmode="layer"
     id="layer1">
    <rect
       style="fill:#4682b4;fill-opacity:1;stroke:none"
       id="rect2827"
       width="1057.0742"
       height="752.36041"
       x="-1.5706898"
       y="-3.5538743" />
    <path
       style="fill:#add8e6;fill-rule:evenodd;stroke:none"
       d="m -4.7120695,480.21859 -1.5706898,270.15865 381.6774793,3.14138 1.5e-4,0 684.54833,-452.35867 0,-310.9964322 0,-1.513e-4 -486.64141,1.5706898 z"
       id="path3085"
       inkscape:path-effect="#path-effect3087"
       inkscape:original-d="m -4.7120695,480.21859 -1.5706898,270.15865 381.6776293,3.14138 684.54833,-452.35867 0,-310.9965835 L 573.30179,-8.2659437 -4.7120695,480.21859 z"
       sodipodi:nodetypes="ccccccc" />
  </g>
  <g
     inkscape:groupmode="layer"
     id="layer4"
     inkscape:label="Clouds 3"
     style="opacity:1">
    <path
       sodipodi:type="arc"
       style="fill:#87ceeb;fill-opacity:1;stroke:none"
       id="path2967"
       sodipodi:cx="223.03795"
       sodipodi:cy="627.86346"
       sodipodi:rx="103.66553"
       sodipodi:ry="103.66553"
       d="m 326.70348,627.86346 a 103.66553,103.66553 0 1 1 -207.33106,0 103.66553,103.66553 0 1 1 207.33106,0 z" />
    <path
       sodipodi:type="arc"
       style="fill:#87ceeb;fill-opacity:1;stroke:none"
       id="path2969"
       sodipodi:cx="354.97589"
       sodipodi:cy="569.74792"
       sodipodi:rx="124.0845"
       sodipodi:ry="124.0845"
       d="m 479.06039,569.74792 a 124.0845,124.0845 0 1 1 -248.169,0 124.0845,124.0845 0 1 1 248.169,0 z" />
    <path
       sodipodi:type="arc"
       style="fill:#87ceeb;fill-opacity:1;stroke:none"
       id="path2971"
       sodipodi:cx="490.05524"
       sodipodi:cy="533.62207"
       sodipodi:rx="98.953461"
       sodipodi:ry="98.953461"
       d="m 589.0087,533.62207 a 98.953461,98.953461 0 1 1 -197.90692,0 98.953461,98.953461 0 1 1 197.90692,0 z" />
    <path
       sodipodi:type="arc"
       style="fill:#87ceeb;fill-opacity:1;stroke:none"
       id="path2973"
       sodipodi:cx="73.822418"
       sodipodi:cy="576.0307"
       sodipodi:rx="53.403454"
       sodipodi:ry="53.403454"
       d="m 127.22587,576.0307 a 53.403454,53.403454 0 1 1 -106.806906,0 53.403454,53.403454 0 1 1 106.806906,0 z" />
    <path
       sodipodi:type="arc"
       style="fill:#87ceeb;fill-opacity:1;stroke:none"
       id="path2975"
       sodipodi:cx="100.52415"
       sodipodi:cy="631.00482"
       sodipodi:rx="47.120693"
       sodipodi:ry="47.120693"
       d="m 147.64484,631.00482 a 47.120693,47.120693 0 1 1 -94.241386,0 47.120693,47.120693 0 1 1 94.241386,0 z" />
    <path
       sodipodi:type="arc"
       style="fill:#87ceeb;fill-opacity:1;stroke:none"
       id="path2977"
       sodipodi:cx="128.79657"
       sodipodi:cy="549.32892"
       sodipodi:rx="34.555176"
       sodipodi:ry="34.555176"
       d="m 163.35175,549.32892 a 34.555176,34.555176 0 1 1 -69.110356,0 34.555176,34.555176 0 1 1 69.110356,0 z" />
    <path
       sodipodi:type="arc"
       style="fill:#87ceeb;fill-opacity:1;stroke:none"
       id="path2979"
       sodipodi:cx="479.06039"
       sodipodi:cy="654.56519"
       sodipodi:rx="65.968971"
       sodipodi:ry="65.968971"
       d="m 545.02937,654.56519 a 65.968971,65.968971 0 1 1 -131.93795,0 65.968971,65.968971 0 1 1 131.93795,0 z" />
    <path
       sodipodi:type="arc"
       style="fill:#87ceeb;fill-opacity:1;stroke:none"
       id="path2981"
       sodipodi:cx="631.4173"
       sodipodi:cy="494.3548"
       sodipodi:rx="155.49829"
       sodipodi:ry="155.49829"
       d="m 786.91559,494.3548 a 155.49829,155.49829 0 1 1 -310.99658,0 155.49829,155.49829 0 1 1 310.99658,0 z" />
    <path
       sodipodi:type="arc"
       style="fill:#87ceeb;fill-opacity:1;stroke:none"
       id="path2983"
       sodipodi:cx="760.21387"
       sodipodi:cy="612.15656"
       sodipodi:rx="111.51897"
       sodipodi:ry="111.51897"
       d="m 871.73283,612.15656 a 111.51897,111.51897 0 1 1 -223.03793,0 111.51897,111.51897 0 1 1 223.03793,0 z" />
    <path
       sodipodi:type="arc"
       style="fill:#87ceeb;fill-opacity:1;stroke:none"
       id="path2985"
       sodipodi:cx="607.85693"
       sodipodi:cy="681.26691"
       sodipodi:rx="97.382767"
       sodipodi:ry="97.382767"
       d="m 705.2397,681.26691 a 97.382767,97.382767 0 1 1 -194.76553,0 97.382767,97.382767 0 1 1 194.76553,0 z" />
    <path
       sodipodi:type="arc"
       style="fill:#87ceeb;fill-opacity:1;stroke:none"
       id="path2987"
       sodipodi:cx="623.56384"
       sodipodi:cy="89.116829"
       sodipodi:rx="62.827595"
       sodipodi:ry="62.827595"
       d="m 686.39144,89.116829 a 62.827595,62.827595 0 1 1 -125.65519,0 62.827595,62.827595 0 1 1 125.65519,0 z" />
    <path
       sodipodi:type="arc"
       style="fill:#87ceeb;fill-opacity:1;stroke:none"
       id="path2989"
       sodipodi:cx="698.95697"
       sodipodi:cy="129.95476"
       sodipodi:rx="89.52932"
       sodipodi:ry="89.52932"
       d="m 788.48629,129.95476 a 89.52932,89.52932 0 1 1 -179.05864,0 89.52932,89.52932 0 1 1 179.05864,0 z" />
    <path
       sodipodi:type="arc"
       style="fill:#87ceeb;fill-opacity:1;stroke:none"
       id="path2991"
       sodipodi:cx="797.91046"
       sodipodi:cy="92.258202"
       sodipodi:rx="92.6707"
       sodipodi:ry="92.6707"
       d="m 890.58116,92.258202 a 92.6707,92.6707 0 1 1 -185.3414,0 92.6707,92.6707 0 1 1 185.3414,0 z" />
    <path
       sodipodi:type="arc"
       style="fill:#87ceeb;fill-opacity:1;stroke:none"
       id="path2993"
       sodipodi:cx="921.99493"
       sodipodi:cy="153.51511"
       sodipodi:rx="131.93794"
       sodipodi:ry="131.93794"
       d="m 1053.9329,153.51511 a 131.93794,131.93794 0 1 1 -263.87591,0 131.93794,131.93794 0 1 1 263.87591,0 z" />
    <path
       sodipodi:type="arc"
       style="fill:#87ceeb;fill-opacity:1;stroke:none"
       id="path2995"
       sodipodi:cx="626.70526"
       sodipodi:cy="211.63063"
       sodipodi:rx="116.23105"
       sodipodi:ry="116.23105"
       d="m 742.93631,211.63063 a 116.23105,116.23105 0 1 1 -232.4621,0 116.23105,116.23105 0 1 1 232.4621,0 z" />
  </g>
  <g
     inkscape:groupmode="layer"
     id="layer2"
     inkscape:label="Clouds 1"
     style="display:inline;opacity:1">
    <path
       sodipodi:type="arc"
       style="fill:#4682b4;fill-opacity:1;stroke:none"
       id="path2830"
       sodipodi:cx="187.69743"
       sodipodi:cy="267.39011"
       sodipodi:rx="49.47673"
       sodipodi:ry="49.47673"
       d="m 237.17416,267.39011 a 49.47673,49.47673 0 1 1 -98.95346,0 49.47673,49.47673 0 1 1 98.95346,0 z" />
    <path
       sodipodi:type="arc"
       style="fill:#4682b4;fill-opacity:1;stroke:none"
       id="path2832"
       sodipodi:cx="274.87073"
       sodipodi:cy="298.01859"
       sodipodi:rx="70.681046"
       sodipodi:ry="70.681046"
       d="m 345.55177,298.01859 a 70.681046,70.681046 0 1 1 -141.36209,0 70.681046,70.681046 0 1 1 141.36209,0 z" />
    <path
       sodipodi:type="arc"
       style="fill:#4682b4;fill-opacity:1;stroke:none"
       id="path2834"
       sodipodi:cx="171.20518"
       sodipodi:cy="354.56342"
       sodipodi:rx="80.105179"
       sodipodi:ry="80.105179"
       d="m 251.31036,354.56342 a 80.105179,80.105179 0 1 1 -160.210354,0 80.105179,80.105179 0 1 1 160.210354,0 z" />
    <path
       sodipodi:type="arc"
       style="fill:#4682b4;fill-opacity:1;stroke:none"
       id="path2836"
       sodipodi:cx="98.953461"
       sodipodi:cy="202.2065"
       sodipodi:rx="95.81208"
       sodipodi:ry="95.81208"
       d="m 194.76554,202.2065 a 95.81208,95.81208 0 1 1 -191.6241597,0 95.81208,95.81208 0 1 1 191.6241597,0 z" />
    <path
       sodipodi:type="arc"
       style="fill:#4682b4;fill-opacity:1;stroke:none"
       id="path2838"
       sodipodi:cx="47.120693"
       sodipodi:cy="324.72031"
       sodipodi:rx="98.953461"
       sodipodi:ry="98.953461"
       d="m 146.07415,324.72031 a 98.953461,98.953461 0 1 1 -197.906917,0 98.953461,98.953461 0 1 1 197.906917,0 z" />
    <path
       sodipodi:type="arc"
       style="fill:#4682b4;fill-opacity:1;stroke:none"
       id="path2840"
       sodipodi:cx="235.60347"
       sodipodi:cy="431.52722"
       sodipodi:rx="53.403454"
       sodipodi:ry="53.403454"
       d="m 289.00692,431.52722 a 53.403454,53.403454 0 1 1 -106.8069,0 53.403454,53.403454 0 1 1 106.8069,0 z" />
    <path
       sodipodi:type="arc"
       style="fill:#4682b4;fill-opacity:1;stroke:none"
       id="path2842"
       sodipodi:cx="298.43106"
       sodipodi:cy="389.11859"
       sodipodi:rx="70.681046"
       sodipodi:ry="70.681046"
       d="m 369.11211,389.11859 a 70.681046,70.681046 0 1 1 -141.36209,0 70.681046,70.681046 0 1 1 141.36209,0 z" />
    <path
       sodipodi:type="arc"
       style="fill:#4682b4;fill-opacity:1;stroke:none"
       id="path2844"
       sodipodi:cx="296.86038"
       sodipodi:cy="491.21341"
       sodipodi:rx="61.256905"
       sodipodi:ry="61.256905"
       d="m 358.11729,491.21341 a 61.256905,61.256905 0 1 1 -122.51381,0 61.256905,61.256905 0 1 1 122.51381,0 z"
       transform="translate(89.52932,-133.50864)" />
    <path
       sodipodi:type="arc"
       style="fill:#4682b4;fill-opacity:1;stroke:none"
       id="path2846"
       sodipodi:cx="369.11212"
       sodipodi:cy="456.65823"
       sodipodi:rx="56.544834"
       sodipodi:ry="56.544834"
       d="m 425.65696,456.65823 a 56.544834,56.544834 0 1 1 -113.08967,0 56.544834,56.544834 0 1 1 113.08967,0 z" />
    <path
       sodipodi:type="arc"
       style="fill:#4682b4;fill-opacity:1;stroke:none"
       id="path2850"
       sodipodi:cx="164.92242"
       sodipodi:cy="499.06686"
       sodipodi:rx="56.544834"
       sodipodi:ry="56.544834"
       d="m 221.46726,499.06686 a 56.544834,56.544834 0 1 1 -113.08967,0 56.544834,56.544834 0 1 1 113.08967,0 z" />
    <path
       sodipodi:type="arc"
       style="fill:#4682b4;fill-opacity:1;stroke:none"
       id="path2852"
       sodipodi:cx="175.91727"
       sodipodi:cy="434.66858"
       sodipodi:rx="36.125866"
       sodipodi:ry="36.125866"
       d="m 212.04313,434.66858 a 36.125866,36.125866 0 1 1 -72.25173,0 36.125866,36.125866 0 1 1 72.25173,0 z" />
    <path
       sodipodi:type="arc"
       style="fill:#4682b4;fill-opacity:1;stroke:none"
       id="path2854"
       sodipodi:cx="469.63626"
       sodipodi:cy="389.11859"
       sodipodi:rx="83.246559"
       sodipodi:ry="83.246559"
       d="m 552.88282,389.11859 a 83.246559,83.246559 0 1 1 -166.49312,0 83.246559,83.246559 0 1 1 166.49312,0 z" />
    <path
       sodipodi:type="arc"
       style="fill:#4682b4;fill-opacity:1;stroke:none"
       id="path2856"
       sodipodi:cx="574.8725"
       sodipodi:cy="444.09271"
       sodipodi:rx="54.974144"
       sodipodi:ry="54.974144"
       d="m 629.84664,444.09271 a 54.974144,54.974144 0 1 1 -109.94829,0 54.974144,54.974144 0 1 1 109.94829,0 z" />
    <path
       sodipodi:type="arc"
       style="fill:#4682b4;fill-opacity:1;stroke:none"
       id="path2858"
       sodipodi:cx="691.10352"
       sodipodi:cy="188.07028"
       sodipodi:rx="42.408627"
       sodipodi:ry="42.408627"
       d="m 733.51214,188.07028 a 42.408627,42.408627 0 1 1 -84.81725,0 42.408627,42.408627 0 1 1 84.81725,0 z" />
    <path
       sodipodi:type="arc"
       style="fill:#4682b4;fill-opacity:1;stroke:none"
       id="path2860"
       sodipodi:cx="755.50183"
       sodipodi:cy="235.19098"
       sodipodi:rx="58.115524"
       sodipodi:ry="58.115524"
       d="m 813.61736,235.19098 a 58.115524,58.115524 0 1 1 -116.23105,0 58.115524,58.115524 0 1 1 116.23105,0 z" />
    <path
       sodipodi:type="arc"
       style="fill:#4682b4;fill-opacity:1;stroke:none"
       id="path2862"
       sodipodi:cx="786.91559"
       sodipodi:cy="162.93925"
       sodipodi:rx="65.968971"
       sodipodi:ry="65.968971"
       d="m 852.88456,162.93925 a 65.968971,65.968971 0 1 1 -131.93794,0 65.968971,65.968971 0 1 1 131.93794,0 z" />
    <path
       sodipodi:type="arc"
       style="fill:#4682b4;fill-opacity:1;stroke:none"
       id="path2864"
       sodipodi:cx="865.45007"
       sodipodi:cy="208.48926"
       sodipodi:rx="43.979317"
       sodipodi:ry="43.979317"
       d="m 909.42939,208.48926 a 43.979317,43.979317 0 1 1 -87.95863,0 43.979317,43.979317 0 1 1 87.95863,0 z" />
    <path
       sodipodi:type="arc"
       style="fill:#4682b4;fill-opacity:1;stroke:none"
       id="path2868"
       sodipodi:cx="819.90009"
       sodipodi:cy="236.76167"
       sodipodi:rx="21.989658"
       sodipodi:ry="21.989658"
       d="m 841.88974,236.76167 a 21.989658,21.989658 0 1 1 -43.97931,0 21.989658,21.989658 0 1 1 43.97931,0 z" />
    <path
       sodipodi:type="arc"
       style="fill:#4682b4;fill-opacity:1;stroke:none"
       id="path2870"
       sodipodi:cx="907.8587"
       sodipodi:cy="164.50993"
       sodipodi:rx="32.984486"
       sodipodi:ry="32.984486"
       d="m 940.84319,164.50993 a 32.984486,32.984486 0 1 1 -65.96897,0 32.984486,32.984486 0 1 1 65.96897,0 z" />
    <path
       sodipodi:type="arc"
       style="fill:#4682b4;fill-opacity:1;stroke:none"
       id="path2876"
       sodipodi:cx="951.83801"
       sodipodi:cy="202.2065"
       sodipodi:rx="56.544834"
       sodipodi:ry="56.544834"
       d="m 1008.3828,202.2065 a 56.544834,56.544834 0 1 1 -113.08962,0 56.544834,56.544834 0 1 1 113.08962,0 z" />
  </g>
  <g
     inkscape:groupmode="layer"
     id="layer6"
     inkscape:label="Exhaust Stream"
     style="opacity:0.42857143">
    <path
       style="fill:url(#linearGradient3075);fill-rule:evenodd;stroke:none;fill-opacity:1"
       d="m 431.9397,480.21859 25.13104,-43.97931 75.39309,39.26723 2e-5,1e-5 86.38794,95.81208 -61.25688,-20.41896 -2e-5,-10e-6 -125.65519,-70.68104 z"
       id="path3039"
       inkscape:path-effect="#path-effect3041"
       inkscape:original-d="m 431.9397,480.21859 25.13104,-43.97931 75.39311,39.26724 86.38794,95.81208 -61.2569,-20.41897 -125.65519,-70.68104 z" />
    <path
       style="fill:url(#linearGradient3083);fill-rule:evenodd;stroke:none;fill-opacity:1"
       d="m 548.17075,409.53755 124.0845,73.82242 -48.69137,-4.71207 -2e-5,0 -72.25171,-26.70171 -2e-5,-10e-6 -53.40346,-36.12587"
       id="path3043"
       inkscape:path-effect="#path-effect3045"
       inkscape:original-d="m 548.17075,409.53755 124.0845,73.82242 -48.69139,-4.71207 -72.25173,-26.70172 -53.40346,-36.12587" />
  </g>
  <g
     inkscape:groupmode="layer"
     id="layer5"
     inkscape:label="Plane Sketch"
     style="display:none">
    <path
       style="fill:#000000;fill-rule:evenodd;stroke:none"
       d="m 406.80866,376.55306 -12.56551,0 -12.56552,6.28276 -3.14138,9.42414 1.57069,10.99483 10e-6,10e-6 9.42413,6.28275 7.85345,4.71207 2e-5,1e-5 29.84308,10.99482 21.98966,12.56552 1e-5,10e-6 76.96379,39.26723 15.7069,1.57069 23.56035,-21.98966 31.41379,-26.70172 -20.41896,-3.14138 -3e-5,0 -40.83791,3.14138 -15.7069,-1.57069 -113.08967,-51.83277 z"
       id="path2998"
       inkscape:path-effect="#path-effect3000"
       inkscape:original-d="m 406.80866,376.55306 -12.56551,0 -12.56552,6.28276 -3.14138,9.42414 1.57069,10.99483 9.42414,6.28276 7.85345,4.71207 29.8431,10.99483 21.98966,12.56552 76.9638,39.26724 15.7069,1.57069 23.56035,-21.98966 31.41379,-26.70172 -20.41896,-3.14138 -40.83794,3.14138 -15.7069,-1.57069 -113.08967,-51.83277 z" />
    <path
       style="fill:#000000;fill-rule:evenodd;stroke:none"
       d="m 430.36901,420.53238 -23.27759,54.11552 1.57069,9.42414 0,0 15.7069,10.99483 0,-10e-6 9.42414,-12.56551 32.70173,-44.69138"
       id="path3022"
       inkscape:path-effect="#path-effect3024"
       inkscape:original-d="m 430.36901,420.53238 -23.27759,54.11552 1.57069,9.42414 15.7069,10.99483 9.42414,-12.56552 32.70173,-44.69138"
       inkscape:transform-center-x="26.70173"
       inkscape:transform-center-y="39.267245"
       sodipodi:nodetypes="cccccc" />
    <path
       style="fill:#000000;fill-rule:evenodd;stroke:none"
       d="m 461.78281,401.6841 68.38387,-4 13.27677,5.437 8.29799,12.68634 0,1e-5 -63.40508,9.437"
       id="path3026"
       inkscape:path-effect="#path-effect3028"
       inkscape:original-d="m 461.78281,401.6841 68.38387,-4 13.27677,5.437 8.29799,12.68635 -63.40508,9.437"
       sodipodi:nodetypes="ccccc" />
  </g>
  <g
     inkscape:groupmode="layer"
     id="layer7"
     inkscape:label="Plane outline"
     style="display:inline">
    <path
       style="fill:#000000;fill-rule:evenodd;stroke:none"
       d="m 434.71033,392.09583 c -0.012,-0.007 -0.0242,-0.0144 -0.0362,-0.0216 -0.0338,-0.0202 -0.0677,-0.0403 -0.10156,-0.0603 0,0 0,0 0,0 -0.12975,-0.0768 -0.2598,-0.15314 -0.39003,-0.22916 -0.48538,-0.28334 -0.97315,-0.56256 -1.46247,-0.83906 0,0 0,0 0,0 -1.69336,-0.95687 -3.40523,-1.88095 -5.13293,-2.77434 -10e-6,-10e-6 -2e-5,-10e-6 -2e-5,-2e-5 -4.82695,-2.49601 -9.76978,-4.80097 -14.92503,-6.51939 0,0 -10e-6,-10e-6 -10e-6,-10e-6 0,0 -1e-5,0 -1e-5,0 -6.80888,-2.26963 -14.20241,-3.03824 -21.2087,-1.4813 0,0 0,0 0,0 0,0 -1e-5,0 -1e-5,0 -10e-6,0 -10e-6,0 -10e-6,1e-5 -2.765,0.61444 -5.49373,1.53757 -7.88127,3.06151 0,0 0,0 0,0 -1.44636,0.9232 -2.75994,2.08687 -3.70493,3.51908 -1.03748,1.57239 -1.56538,3.4608 -1.56538,5.34462 0,1.8408 0.0737,3.69269 0.4533,5.49394 0,0 0,10e-6 0,2e-5 0.31552,1.49725 0.87932,2.94784 1.72252,4.22468 2.25235,3.41071 5.92371,5.58499 9.42854,7.68789 0,0 1e-5,0 1e-5,1e-5 3.02083,1.81249 6.19523,3.35474 9.3766,4.86783 4.02246,1.91311 8.08839,3.73326 12.15738,5.54531 0,0 0,0 0,0 7.9991,3.56225 16.07061,6.9833 23.85486,10.99337 0,0 10e-6,0 10e-6,1e-5 13.44612,6.92679 26.96993,13.70189 40.49871,20.46583 0,0 10e-6,0 10e-6,10e-6 7.66187,3.83068 15.33023,7.64865 23.02887,11.40488 0,0 1e-5,0 1e-5,0 2.77586,1.35437 5.55484,2.70258 8.34935,4.01804 1.57684,0.74227 3.14455,1.51015 4.76885,2.14182 4.02123,1.56381 7.99121,3.27986 12.12084,4.52965 4.11458,1.24525 8.48565,2.18155 12.70105,1.33847 1.18108,-0.23622 2.24345,-0.87371 3.23086,-1.56349 1.3434,-0.93847 2.56535,-2.04041 3.73749,-3.18565 0,0 10e-6,-10e-6 2e-5,-10e-6 2.91559,-2.84869 5.52809,-5.9912 8.07768,-9.17165 2.49833,-3.1165 4.90552,-6.30473 7.35242,-9.46177 10e-6,0 10e-6,-10e-6 2e-5,-10e-6 0.92695,-1.19599 1.85717,-2.39003 2.83089,-3.54826 0,-10e-6 10e-6,-2e-5 10e-6,-2e-5 0.61269,-0.7288 1.21815,-1.4764 1.96163,-2.07118 1.53195,-1.22556 3.02325,-2.50099 4.51908,-3.77038 2.06535,-1.75269 4.1219,-3.51573 6.1757,-5.28195 l 7.81505,-6.74982 c -0.0158,-0.002 -0.0319,-0.003 -0.0476,-0.005 -0.0447,-0.004 -0.0894,-0.009 -0.13405,-0.0132 -10e-6,0 -10e-6,0 -2e-5,0 -10e-6,0 -2e-5,0 -2e-5,0 -0.17062,-0.0167 -0.34126,-0.0332 -0.51192,-0.0495 0,0 -10e-6,0 -2e-5,0 -0.62998,-0.0603 -1.26014,-0.11866 -1.89042,-0.17572 -10e-6,0 -2e-5,0 -2e-5,0 -2.12445,-0.19232 -4.25024,-0.36973 -6.37721,-0.5317 -5.3855,-0.41012 -10.78031,-0.77238 -16.1814,-0.77238 -4.80321,0 -9.43612,1.60652 -14.06585,2.88571 -5.23581,1.44664 -10.72975,2.27373 -16.09662,1.43516 -2.02112,-0.3158 -3.98234,-0.93488 -5.92173,-1.58559 -10e-6,0 -2e-5,0 -2e-5,-10e-6 -2.71326,-0.91036 -5.38091,-1.95179 -8.02941,-3.03622 -1e-5,0 -1e-5,0 -2e-5,-1e-5 -6.64818,-2.72209 -13.17636,-5.72863 -19.66844,-8.80449 -10e-6,0 -2e-5,-10e-6 -3e-5,-10e-6 -11.68808,-5.53764 -23.21196,-11.41368 -34.78008,-17.19774 -1e-5,0 -1e-5,-1e-5 -2e-5,-1e-5 -5.68262,-2.84131 -11.47551,-5.46709 -17.39112,-7.78457 -1e-5,-10e-6 -2e-5,-10e-6 -3e-5,-10e-6 -1.66021,-0.6504 -3.32847,-1.28226 -5.02095,-1.84338 -10e-6,-10e-6 -2e-5,-10e-6 -2e-5,-10e-6 -10e-6,0 -2e-5,-1e-5 -3e-5,-1e-5 -0.42527,-0.14099 -0.8512,-0.28143 -1.28498,-0.3936 -0.0983,-0.0254 -0.19676,-0.0526 -0.29777,-0.0628 0,0 0,0 0,0 -0.0194,-0.002 -0.0405,-0.006 -0.0579,0.002 -0.009,0.005 -0.003,0.0177 0.005,0.0249"
       id="path3094"
       inkscape:path-effect="#path-effect3096"
       inkscape:original-d="m 434.71038,392.09586 c 0,0 -11.60435,-6.96261 -22.04827,-10.44392 -10.44391,-3.4813 -17.72739,-2.25492 -21.2087,-1.4813 -3.4813,0.77362 -13.1516,3.41537 -13.1516,11.92522 0,8.50986 1.93406,11.60435 11.60436,17.40653 9.67029,5.80217 32.62406,14.83072 45.38885,21.40652 12.76478,6.5758 69.6832,35.32291 76.64581,38.03059 6.96261,2.70768 17.08566,7.41536 24.82189,5.86812 7.73623,-1.54725 23.32291,-25.90755 27.19102,-29.00204 3.86812,-3.09449 18.50986,-15.80218 18.50986,-15.80218 0,0 -15.47247,-1.54724 -25.14276,-1.54724 -9.67029,0 -17.7845,6.25493 -30.16247,4.32087 -12.37797,-1.93406 -54.47451,-23.66146 -68.39973,-30.62407 -13.92522,-6.96261 -24.43508,-10.44391 -24.04826,-10.0571 z"
       sodipodi:nodetypes="csssssssscsssc" />
    <path
       style="fill:#000000;fill-rule:evenodd;stroke:none"
       d="m 429.74385,421.88904 c -0.004,0.008 -0.007,0.0163 -0.011,0.0244 -0.0143,0.0317 -0.0286,0.0634 -0.0429,0.0952 l 0,0 c -0.0555,0.12307 -0.11087,0.24615 -0.16626,0.36925 0,0 0,0 0,0 -0.21025,0.46728 -0.42013,0.93473 -0.62978,1.40229 0,0 0,0 0,0 -1e-5,0 -1e-5,0 -1e-5,0 l 0,0 c -0.7536,1.68067 -1.50422,3.36267 -2.25249,5.04572 0,0 0,0 0,0 0,0 0,0 0,0 -2.32816,5.23657 -4.63459,10.48284 -6.90767,15.74355 0,0 0,0 0,0 -2.43341,5.63176 -4.84067,11.27556 -7.1226,16.97039 -0.87362,2.18021 -1.73247,4.36691 -2.52116,6.57926 -0.28326,0.79455 -0.55791,1.5924 -0.80442,2.3991 -0.16587,0.54279 -0.32697,1.08875 -0.4256,1.64768 -0.9085,5.14816 0.46597,10.72967 3.86812,14.69884 0,0 0,0 0,0 0.79018,0.92187 1.76232,1.66899 2.72627,2.40725 1e-5,0 1e-5,10e-6 1e-5,10e-6 0,0 0,0 0,0 1.21511,0.93061 2.47111,1.80673 3.74072,2.6615 0,0 0,0 0,0 0,0 10e-6,1e-5 10e-6,1e-5 1.09295,0.73584 2.19784,1.45389 3.31158,2.15787 0,0 0,0 1e-5,0 0.34694,0.2193 0.69476,0.4372 1.04374,0.65323 0,10e-6 0,10e-6 1e-5,10e-6 0.0965,0.0598 0.19314,0.11936 0.28991,0.17874 0.0257,0.0158 0.0514,0.0315 0.0771,0.0472 0.009,0.006 0.0188,0.0115 0.0281,0.0172 l 39.45486,-52.99315"
       id="path3098"
       inkscape:path-effect="#path-effect3100"
       inkscape:original-d="m 429.74777,421.88036 c 0,0 -19.7274,43.70972 -20.88783,50.28552 -1.16044,6.57579 1.54725,11.99116 3.86812,14.69884 2.32087,2.70768 11.21753,8.12304 11.21753,8.12304 l 39.45479,-52.99319"
       sodipodi:nodetypes="csscc" />
    <path
       style="fill:#000000;fill-rule:evenodd;stroke:none"
       d="m 450.2488,401.76615 c 0.005,-2.7e-4 0.009,-5.5e-4 0.0135,-8.2e-4 0.0129,-7.9e-4 0.0258,-0.002 0.0387,-0.002 0.0506,-0.003 0.10113,-0.006 0.1517,-0.009 0,0 0,0 0,0 0,0 0,0 0,0 0.19647,-0.0119 0.39293,-0.0237 0.5894,-0.0356 0,0 0,0 0,0 0,0 0,0 0,0 0.7458,-0.0449 1.49161,-0.0895 2.23744,-0.13396 0,0 0,0 10e-6,0 2.6751,-0.15939 5.35034,-0.31646 8.02568,-0.47168 0,0 1e-5,0 1e-5,0 8.26052,-0.47929 16.52203,-0.94187 24.78496,-1.37788 0,0 0,0 0,0 0,0 0,0 1e-5,0 0,0 0,0 0,0 8.6682,-0.45739 17.33764,-0.8965 26.0114,-1.23248 3.18538,-0.12338 6.3714,-0.23695 9.55873,-0.28993 0,0 0,0 0,0 0,0 10e-6,0 10e-6,0 1.07787,-0.0179 2.15598,-0.0298 3.23391,-0.0158 0.64857,0.008 1.29898,0.0126 1.94316,0.0884 0,0 0,0 0,0 3.14522,0.37002 6.28957,0.90167 9.28348,1.93406 2.59905,0.89622 5.12346,2.21143 6.9626,4.25491 1e-5,10e-6 1e-5,10e-6 1e-5,10e-6 0,0 0,0 0,0 1.90635,2.11817 3.64705,4.37965 5.35708,6.65926 0,0 0,0 0,0 0,10e-6 0,10e-6 0,10e-6 0,0 0,0 0,0 0.66682,0.88893 1.32585,1.7837 1.97713,2.68408 10e-6,0 10e-6,0 10e-6,0 0.19302,0.26685 0.38536,0.5342 0.57671,0.80225 0.052,0.0729 0.10399,0.14584 0.15583,0.21888 0.0137,0.0193 0.0274,0.0386 0.0411,0.058 0.005,0.007 0.0101,0.0143 0.0151,0.0214 l -53.37995,9.28356"
       id="path3102"
       inkscape:path-effect="#path-effect3104"
       inkscape:original-d="m 450.24879,401.76615 c 0,0 70.01291,-4.25493 76.58871,-3.4813 6.5758,0.77362 12.76478,2.32087 16.24609,6.18898 3.4813,3.86812 8.12304,10.44392 8.12304,10.44392 l -53.38001,9.28348"
       sodipodi:nodetypes="csscc" />
  </g>
  <g
     inkscape:groupmode="layer"
     id="layer3"
     inkscape:label="Clouds 2"
     style="display:inline">
    <path
       sodipodi:type="arc"
       style="fill:#f0ffff;fill-opacity:1;stroke:none"
       id="path2879"
       sodipodi:cx="119.37243"
       sodipodi:cy="379.69446"
       sodipodi:rx="116.23105"
       sodipodi:ry="116.23105"
       d="m 235.60348,379.69446 a 116.23105,116.23105 0 1 1 -232.4620997,0 116.23105,116.23105 0 1 1 232.4620997,0 z" />
    <path
       sodipodi:type="arc"
       style="fill:#f0ffff;fill-opacity:1;stroke:none"
       id="path2881"
       sodipodi:cx="237.17416"
       sodipodi:cy="444.09271"
       sodipodi:rx="61.256905"
       sodipodi:ry="61.256905"
       d="m 298.43107,444.09271 a 61.256905,61.256905 0 1 1 -122.51381,0 61.256905,61.256905 0 1 1 122.51381,0 z" />
    <path
       sodipodi:type="arc"
       style="fill:#f0ffff;fill-opacity:1;stroke:none"
       id="path2883"
       sodipodi:cx="174.34657"
       sodipodi:cy="513.20306"
       sodipodi:rx="97.382767"
       sodipodi:ry="97.382767"
       d="m 271.72934,513.20306 a 97.382767,97.382767 0 1 1 -194.765534,0 97.382767,97.382767 0 1 1 194.765534,0 z" />
    <path
       sodipodi:type="arc"
       style="fill:#f0ffff;fill-opacity:1;stroke:none"
       id="path2885"
       sodipodi:cx="312.56726"
       sodipodi:cy="500.63757"
       sodipodi:rx="59.686214"
       sodipodi:ry="59.686214"
       d="m 372.25348,500.63757 a 59.686214,59.686214 0 1 1 -119.37243,0 59.686214,59.686214 0 1 1 119.37243,0 z" />
    <path
       sodipodi:type="arc"
       style="fill:#f0ffff;fill-opacity:1;stroke:none"
       id="path2887"
       sodipodi:cx="387.96039"
       sodipodi:cy="467.65308"
       sodipodi:rx="53.403454"
       sodipodi:ry="53.403454"
       d="m 441.36384,467.65308 a 53.403454,53.403454 0 1 1 -106.80691,0 53.403454,53.403454 0 1 1 106.80691,0 z" />
    <path
       sodipodi:type="arc"
       style="fill:#f0ffff;fill-opacity:1;stroke:none"
       id="path2889"
       sodipodi:cx="389.53107"
       sodipodi:cy="532.05133"
       sodipodi:rx="26.701727"
       sodipodi:ry="26.701727"
       d="m 416.23279,532.05133 a 26.701727,26.701727 0 1 1 -53.40345,0 26.701727,26.701727 0 1 1 53.40345,0 z" />
    <path
       sodipodi:type="arc"
       style="fill:#f0ffff;fill-opacity:1;stroke:none"
       id="path2891"
       sodipodi:cx="433.51041"
       sodipodi:cy="519.48584"
       sodipodi:rx="34.555176"
       sodipodi:ry="34.555176"
       d="m 468.06558,519.48584 a 34.555176,34.555176 0 1 1 -69.11035,0 34.555176,34.555176 0 1 1 69.11035,0 z" />
    <path
       sodipodi:type="arc"
       style="fill:#f0ffff;fill-opacity:1;stroke:none"
       id="path2901"
       sodipodi:cx="540.31732"
       sodipodi:cy="615.29791"
       sodipodi:rx="40.837936"
       sodipodi:ry="40.837936"
       d="m 581.15526,615.29791 a 40.837936,40.837936 0 1 1 -81.67587,0 40.837936,40.837936 0 1 1 81.67587,0 z" />
    <path
       sodipodi:type="arc"
       style="fill:#f0ffff;fill-opacity:1;stroke:none"
       id="path2903"
       sodipodi:cx="589.00867"
       sodipodi:cy="572.88928"
       sodipodi:rx="54.974144"
       sodipodi:ry="54.974144"
       d="m 643.98281,572.88928 a 54.974144,54.974144 0 1 1 -109.94829,0 54.974144,54.974144 0 1 1 109.94829,0 z" />
    <path
       sodipodi:type="arc"
       style="fill:#f0ffff;fill-opacity:1;stroke:none"
       id="path2905"
       sodipodi:cx="600.00354"
       sodipodi:cy="638.85828"
       sodipodi:rx="40.837936"
       sodipodi:ry="40.837936"
       d="m 640.84148,638.85828 a 40.837936,40.837936 0 1 1 -81.67588,0 40.837936,40.837936 0 1 1 81.67588,0 z" />
    <path
       sodipodi:type="arc"
       style="fill:#f0ffff;fill-opacity:1;stroke:none"
       id="path2907"
       sodipodi:cx="651.8363"
       sodipodi:cy="591.73755"
       sodipodi:rx="37.696556"
       sodipodi:ry="37.696556"
       d="m 689.53286,591.73755 a 37.696556,37.696556 0 1 1 -75.39311,0 37.696556,37.696556 0 1 1 75.39311,0 z" />
    <path
       sodipodi:type="arc"
       style="fill:#f0ffff;fill-opacity:1;stroke:none"
       id="path2909"
       sodipodi:cx="705.23975"
       sodipodi:cy="618.43927"
       sodipodi:rx="59.686214"
       sodipodi:ry="59.686214"
       d="m 764.92596,618.43927 a 59.686214,59.686214 0 1 1 -119.37243,0 59.686214,59.686214 0 1 1 119.37243,0 z" />
    <path
       sodipodi:type="arc"
       style="fill:#f0ffff;fill-opacity:1;stroke:none"
       id="path2931"
       sodipodi:cx="848.17249"
       sodipodi:cy="458.22894"
       sodipodi:rx="106.80691"
       sodipodi:ry="106.80691"
       d="m 954.97939,458.22894 a 106.80691,106.80691 0 1 1 -213.61381,0 106.80691,106.80691 0 1 1 213.61381,0 z" />
    <path
       sodipodi:type="arc"
       style="fill:#f0ffff;fill-opacity:1;stroke:none"
       id="path2933"
       sodipodi:cx="720.94666"
       sodipodi:cy="521.05652"
       sodipodi:rx="59.686214"
       sodipodi:ry="59.686214"
       d="m 780.63287,521.05652 a 59.686214,59.686214 0 1 1 -119.37243,0 59.686214,59.686214 0 1 1 119.37243,0 z"
       transform="translate(0,6.2827593)" />
    <path
       sodipodi:type="arc"
       style="fill:#f0ffff;fill-opacity:1;stroke:none"
       id="path2935"
       sodipodi:cx="783.77423"
       sodipodi:cy="572.88928"
       sodipodi:rx="51.832764"
       sodipodi:ry="51.832764"
       d="m 835.60699,572.88928 a 51.832764,51.832764 0 1 1 -103.66552,0 51.832764,51.832764 0 1 1 103.66552,0 z" />
    <path
       sodipodi:type="arc"
       style="fill:#f0ffff;fill-opacity:1;stroke:none"
       id="path2937"
       sodipodi:cx="912.5708"
       sodipodi:cy="566.60651"
       sodipodi:rx="91.100006"
       sodipodi:ry="91.100006"
       d="m 1003.6708,566.60651 a 91.100006,91.100006 0 1 1 -182.20001,0 91.100006,91.100006 0 1 1 182.20001,0 z" />
    <path
       sodipodi:type="arc"
       style="fill:#f0ffff;fill-opacity:1;stroke:none"
       id="path2939"
       sodipodi:cx="970.68634"
       sodipodi:cy="462.94101"
       sodipodi:rx="67.539665"
       sodipodi:ry="67.539665"
       d="m 1038.226,462.94101 a 67.539665,67.539665 0 1 1 -135.07932,0 67.539665,67.539665 0 1 1 135.07932,0 z" />
  </g>
</svg>
