<?xml version="1.0" encoding="UTF-8" standalone="no"?>
<!-- Created with Inkscape (http://www.inkscape.org/) -->
<svg
   xmlns:dc="http://purl.org/dc/elements/1.1/"
   xmlns:cc="http://creativecommons.org/ns#"
   xmlns:rdf="http://www.w3.org/1999/02/22-rdf-syntax-ns#"
   xmlns:svg="http://www.w3.org/2000/svg"
   xmlns="http://www.w3.org/2000/svg"
   xmlns:sodipodi="http://sodipodi.sourceforge.net/DTD/sodipodi-0.dtd"
   xmlns:inkscape="http://www.inkscape.org/namespaces/inkscape"
   width="443.33899"
   height="460.63589"
   id="svg2"
   sodipodi:version="0.32"
   inkscape:version="0.46"
   sodipodi:docname="nvoo documento.svg"
   inkscape:output_extension="org.inkscape.output.svg.inkscape"
   version="1.0">
  <defs
     id="defs4">
    <inkscape:perspective
       sodipodi:type="inkscape:persp3d"
       inkscape:vp_x="0 : 526.18109 : 1"
       inkscape:vp_y="0 : 1000 : 0"
       inkscape:vp_z="744.09448 : 526.18109 : 1"
       inkscape:persp3d-origin="372.04724 : 350.78739 : 1"
       id="perspective10" />
    <inkscape:perspective
       id="perspective2404"
       inkscape:persp3d-origin="372.04724 : 350.78739 : 1"
       inkscape:vp_z="744.09448 : 526.18109 : 1"
       inkscape:vp_y="0 : 1000 : 0"
       inkscape:vp_x="0 : 526.18109 : 1"
       sodipodi:type="inkscape:persp3d" />
  </defs>
  <sodipodi:namedview
     id="base"
     pagecolor="#ffffff"
     bordercolor="#666666"
     borderopacity="1.0"
     inkscape:pageopacity="0.0"
     inkscape:pageshadow="2"
     inkscape:zoom="0.49497475"
     inkscape:cx="283.68581"
     inkscape:cy="211.18243"
     inkscape:document-units="px"
     inkscape:current-layer="layer1"
     showgrid="false"
     inkscape:window-width="1280"
     inkscape:window-height="719"
     inkscape:window-x="0"
     inkscape:window-y="22" />
  <metadata
     id="metadata7">
    <rdf:RDF>
      <cc:Work
         rdf:about="">
        <dc:format>image/svg+xml</dc:format>
        <dc:type
           rdf:resource="http://purl.org/dc/dcmitype/StillImage" />
      </cc:Work>
    </rdf:RDF>
  </metadata>
  <g
     inkscape:label="Camada 1"
     inkscape:groupmode="layer"
     id="layer1"
     transform="translate(-177.14285,-251.8125)">
    <g
       id="g3209">
      <rect
         y="251.82651"
         x="177.14301"
         height="267.69043"
         width="442.85699"
         id="rect3179"
         style="fill:#b0efff;fill-opacity:1;stroke:none;stroke-width:10;stroke-miterlimit:4;stroke-dasharray:none;stroke-dashoffset:0;stroke-opacity:1" />
      <path
         sodipodi:nodetypes="ccccccc"
         id="path3173"
         d="M 620.48185,607.00164 L 620.48185,476.10728 C 603.37657,440.03174 573.32686,494.17298 553.12564,469.37107 C 506.26582,420.81909 449.8528,454.20005 412.37075,491.36067 C 375.9263,473.67567 340.548,448.80396 308.88514,496.34479 C 270.1369,474.85411 207.09827,451.54734 177.62485,510.4714 L 177.62485,607.00164"
         style="opacity:1;fill:#ffffff;fill-opacity:1;fill-rule:evenodd;stroke:none;stroke-width:0.96399403px;stroke-linecap:butt;stroke-linejoin:miter;marker:none;marker-start:none;marker-mid:none;marker-end:none;stroke-miterlimit:4;stroke-dasharray:none;stroke-dashoffset:0;stroke-opacity:1;visibility:visible;display:inline;overflow:visible;enable-background:accumulate" />
      <path
         sodipodi:nodetypes="cssscc"
         id="path2387"
         d="M 217.14288,599.2157 C 246.57516,566.45483 284.6213,551.85965 322.75998,535.00664 C 366.49335,515.6814 403.6815,558.66694 441.78591,528.09008 C 479.24555,498.0306 528.70367,509.18945 571.18344,518.66148 C 588.07571,522.42808 615.25804,527.91442 620,547.78711 L 620,603.02705"
         style="opacity:1;fill:#00de00;fill-opacity:1;fill-rule:evenodd;stroke:none;stroke-width:1px;stroke-linecap:butt;stroke-linejoin:miter;marker:none;marker-start:none;marker-mid:none;marker-end:none;stroke-miterlimit:4;stroke-dasharray:none;stroke-dashoffset:0;stroke-opacity:1;visibility:visible;display:inline;overflow:visible;enable-background:accumulate" />
      <rect
         y="598.30115"
         x="177.14301"
         height="114.14724"
         width="442.85699"
         id="rect3169"
         style="opacity:1;fill:#00d100;fill-opacity:1;stroke:none;stroke-width:10;stroke-miterlimit:4;stroke-dasharray:none;stroke-dashoffset:0;stroke-opacity:1" />
      <path
         sodipodi:nodetypes="csssz"
         id="path2383"
         d="M 177.14285,603.02705 C 181.95427,549.90613 257.79655,514.37458 294.17385,565.07413 C 329.58753,614.43069 375.46155,565.22904 415.0562,548.16161 C 462.85865,527.55617 528.18426,543.4163 567.5915,583.40694 C 582.69808,598.73717 597.56196,593.62171 619.99985,603.02705"
         style="opacity:1;fill:#00ff00;fill-opacity:1;fill-rule:evenodd;stroke:none;stroke-width:1px;stroke-linecap:butt;stroke-linejoin:miter;marker:none;marker-start:none;marker-mid:none;marker-end:none;stroke-miterlimit:4;stroke-dasharray:none;stroke-dashoffset:0;stroke-opacity:1;visibility:visible;display:inline;overflow:visible;enable-background:accumulate" />
      <path
         id="rect3187"
         d="M 177.15625,251.8125 L 177.15625,337.15625 C 183.95231,338.99915 191.10099,340 198.5,340 C 242.27634,340 277.81252,305.50131 277.8125,263 C 277.8125,259.19733 277.51804,255.468 276.96875,251.8125 L 177.15625,251.8125 z"
         style="fill:#ffff00;fill-opacity:1;stroke:none;stroke-width:10;stroke-miterlimit:4;stroke-dasharray:none;stroke-dashoffset:0;stroke-opacity:1" />
      <path
         sodipodi:nodetypes="cccscccs"
         id="path3204"
         d="M 379.20666,686.85482 C 392.57692,682.46777 434.42591,692.19468 426.6514,686.70436 C 418.87689,681.21404 408.63128,659.44585 408.5907,640.19664 C 408.71968,633.08119 407.50257,625.76438 407.60716,618.84923 C 407.68908,613.43296 402.93978,612.62067 399.81141,612.12253 C 395.58015,611.04168 391.27192,610.08261 386.92067,610.27187 C 386.12037,614.85903 388.22115,619.00794 387.97603,623.78865 C 398.1547,656.36686 368.5778,690.34236 379.20666,686.85482 z"
         style="opacity:1;fill:#c7c900;fill-opacity:1;fill-rule:evenodd;stroke:none;stroke-width:1px;stroke-linecap:butt;stroke-linejoin:miter;marker:none;marker-start:none;marker-mid:none;marker-end:none;stroke-miterlimit:4;stroke-dasharray:none;stroke-dashoffset:0;stroke-opacity:1;visibility:visible;display:inline;overflow:visible;enable-background:accumulate" />
      <path
         sodipodi:nodetypes="ccsszc"
         id="path3208"
         d="M 350.33171,622.20107 C 339.5562,599.13156 341.83671,590.95997 353.25112,568.96742 C 368.16728,541.53569 407.68737,554.04155 429.31485,557.65893 C 461.16567,562.98625 464.88615,614.78509 444.44561,627.10687 C 422.61313,640.26772 427.54921,624.61905 407.61374,625.75142 C 387.67827,626.88379 361.07412,648.91802 350.33171,622.20107 z"
         style="opacity:1;fill:#00a400;fill-opacity:1;fill-rule:evenodd;stroke:none;stroke-width:1.03606498px;stroke-linecap:butt;stroke-linejoin:miter;marker:none;marker-start:none;marker-mid:none;marker-end:none;stroke-miterlimit:4;stroke-dasharray:none;stroke-dashoffset:0;stroke-opacity:1;visibility:visible;display:inline;overflow:visible;enable-background:accumulate" />
      <path
         id="path2412"
         d="M 498.60827,589.11285 C 497.93689,589.73183 497.08729,590.12356 496.1728,590.17548 C 494.87189,590.38951 493.54601,590.43493 492.23144,590.34707 C 491.48192,590.79368 492.97755,591.49202 493.46547,591.61026 C 493.98056,591.87529 495.46538,591.91189 495.39257,592.11441 C 494.2301,592.46318 493.50977,593.8677 494.10208,594.9758 C 494.53858,595.59033 495.13014,596.52956 495.89263,596.59808 C 496.20946,595.61826 496.64784,594.60453 497.65586,594.11775 C 498.6329,593.57671 499.70635,592.51575 500.83472,593.3951 C 502.48187,594.09954 504.33792,594.10237 506.08471,593.8347 C 507.00838,593.43763 507.76319,592.76271 508.33137,591.94224 C 509.15235,590.7504 509.67821,589.38062 510.18573,588.03426 C 510.53402,586.7781 511.03784,585.51026 512.04928,584.6388 C 512.55071,584.32755 512.57815,583.70343 511.86925,583.99127 C 510.49831,584.09403 509.11402,583.66167 507.7566,583.94523 C 506.95806,584.43784 506.07961,584.85881 505.13997,584.48034 C 503.97557,584.20436 503.03521,583.41337 502.21938,582.58032 C 501.2467,581.78664 499.94011,581.69137 498.83371,581.2 C 498.23471,580.95753 497.52993,579.75862 497.05691,580.03476 C 496.77145,581.06269 497.28189,582.05478 497.99629,582.76072 C 498.27806,583.10005 499.47421,583.92909 498.47612,583.42377 C 497.07499,582.73778 495.95918,581.62222 494.75912,580.65591 C 494.29852,580.78772 494.74642,582.06968 494.96798,582.5847 C 495.07912,583.51228 496.19473,583.96469 496.29666,584.77811 C 495.15492,585.52061 496.74,586.67324 497.35389,587.21538 C 498.10409,587.55234 498.39579,588.296 498.52973,589.01086 C 498.55591,589.04486 498.58209,589.07885 498.60827,589.11285 z"
         style="opacity:1;fill:#ffffff;fill-opacity:1;stroke:none;stroke-width:3;stroke-miterlimit:4;stroke-dasharray:none;stroke-dashoffset:0;stroke-opacity:1" />
      <path
         id="path3187"
         d="M 501.6118,614.06748 C 500.8739,614.74778 499.94012,615.17832 498.93502,615.23539 C 497.50521,615.47063 496.04795,615.52055 494.60314,615.42398 C 493.77935,615.91484 495.42317,616.68238 495.95944,616.81235 C 496.52556,617.10364 498.15751,617.14386 498.07748,617.36644 C 496.79983,617.74976 496.00813,619.29345 496.65913,620.51135 C 497.13887,621.18676 497.78906,622.21906 498.62709,622.29437 C 498.97531,621.21747 499.45712,620.10329 500.56503,619.56828 C 501.63887,618.97363 502.81869,617.80755 504.05885,618.77403 C 505.86921,619.54826 507.90917,619.55137 509.82903,619.25718 C 510.84423,618.82077 511.67382,618.07897 512.2983,617.17721 C 513.20063,615.86728 513.77859,614.36178 514.33639,612.88201 C 514.7192,611.5014 515.27294,610.10794 516.38459,609.15012 C 516.9357,608.80804 516.96586,608.12208 516.18672,608.43844 C 514.67995,608.55138 513.1585,608.07618 511.66657,608.38783 C 510.78891,608.92925 509.82343,609.39193 508.79069,608.97596 C 507.51092,608.67263 506.47737,607.80328 505.58071,606.88768 C 504.51166,606.01536 503.07561,605.91065 501.85958,605.37059 C 501.20122,605.1041 500.42662,603.7864 499.90672,604.0899 C 499.59298,605.21968 500.154,606.31008 500.93919,607.08595 C 501.24888,607.45891 502.56354,608.37009 501.46656,607.8147 C 499.92661,607.06074 498.70023,605.83466 497.38127,604.7726 C 496.87503,604.91747 497.36731,606.32645 497.61083,606.8925 C 497.73297,607.91198 498.95912,608.40921 499.07115,609.30324 C 497.81628,610.1193 499.55842,611.38614 500.23314,611.982 C 501.05766,612.35234 501.37827,613.16969 501.52548,613.95538 C 501.55425,613.99275 501.58303,614.03011 501.6118,614.06748 z"
         style="opacity:1;fill:#ffffff;fill-opacity:1;stroke:none;stroke-width:3;stroke-miterlimit:4;stroke-dasharray:none;stroke-dashoffset:0;stroke-opacity:1" />
      <path
         id="path3189"
         d="M 532.57888,599.40195 C 532.06967,599.87141 531.4253,600.16851 530.73171,600.2079 C 529.74504,600.37024 528.73943,600.40467 527.74241,600.33803 C 527.17394,600.67676 528.30828,601.20642 528.67834,601.2961 C 529.06902,601.49712 530.19517,601.52487 530.13994,601.67846 C 529.25828,601.94299 528.71195,603.00823 529.16119,603.84867 C 529.49225,604.31475 529.94091,605.02711 530.51921,605.07908 C 530.75951,604.33594 531.09199,603.56708 531.85653,603.19789 C 532.59755,602.78754 533.41171,601.98286 534.26751,602.6498 C 535.51678,603.18407 536.92449,603.18622 538.24933,602.98321 C 538.94988,602.68205 539.52236,602.17016 539.9533,601.54789 C 540.57597,600.64394 540.9748,599.60504 541.35972,598.5839 C 541.62388,597.63118 542.006,596.6696 542.77311,596.00864 C 543.15342,595.77258 543.17424,595.29921 542.63657,595.51752 C 541.5968,595.59546 540.54689,595.26754 539.51737,595.4826 C 538.91171,595.85622 538.24546,596.1755 537.5328,595.88846 C 536.64967,595.67914 535.93645,595.07922 535.31769,594.4474 C 534.57997,593.84543 533.58899,593.77318 532.74986,593.4005 C 532.29554,593.2166 531.76101,592.3073 531.40225,592.51674 C 531.18575,593.29636 531.57289,594.04881 532.11472,594.58421 C 532.32843,594.8416 533.23564,595.47035 532.47865,595.0871 C 531.41597,594.56682 530.56968,593.72074 529.6595,592.98784 C 529.31017,593.08781 529.64988,594.06011 529.81792,594.45072 C 529.90221,595.15423 530.74833,595.49736 530.82565,596.11429 C 529.95971,596.67744 531.16189,597.55164 531.6275,597.96283 C 532.19647,598.21839 532.41772,598.78242 532.5193,599.32459 C 532.53916,599.35039 532.55902,599.37617 532.57888,599.40195 z"
         style="opacity:1;fill:#ffffff;fill-opacity:1;stroke:none;stroke-width:3;stroke-miterlimit:4;stroke-dasharray:none;stroke-dashoffset:0;stroke-opacity:1" />
    </g>
  </g>
</svg>
