<?xml version="1.0" encoding="UTF-8" standalone="no"?>
<!-- Created with Inkscape (http://www.inkscape.org/) -->

<svg
   xmlns:dc="http://purl.org/dc/elements/1.1/"
   xmlns:cc="http://creativecommons.org/ns#"
   xmlns:rdf="http://www.w3.org/1999/02/22-rdf-syntax-ns#"
   xmlns:svg="http://www.w3.org/2000/svg"
   xmlns="http://www.w3.org/2000/svg"
   xmlns:xlink="http://www.w3.org/1999/xlink"
   xmlns:sodipodi="http://sodipodi.sourceforge.net/DTD/sodipodi-0.dtd"
   xmlns:inkscape="http://www.inkscape.org/namespaces/inkscape"
   width="754.28571"
   height="1056.3511"
   id="svg10553"
   version="1.1"
   inkscape:version="0.47 r22583"
   sodipodi:docname="New document 45">
  <defs
     id="defs10555">
    <inkscape:perspective
       sodipodi:type="inkscape:persp3d"
       inkscape:vp_x="0 : 526.18109 : 1"
       inkscape:vp_y="0 : 1000 : 0"
       inkscape:vp_z="744.09448 : 526.18109 : 1"
       inkscape:persp3d-origin="372.04724 : 350.78739 : 1"
       id="perspective10561" />
    <inkscape:perspective
       id="perspective10508"
       inkscape:persp3d-origin="0.5 : 0.33333333 : 1"
       inkscape:vp_z="1 : 0.5 : 1"
       inkscape:vp_y="0 : 1000 : 0"
       inkscape:vp_x="0 : 0.5 : 1"
       sodipodi:type="inkscape:persp3d" />
    <linearGradient
       inkscape:collect="always"
       xlink:href="#linearGradient5124"
       id="linearGradient5190"
       gradientUnits="userSpaceOnUse"
       gradientTransform="translate(-977.02633,174.68164)"
       x1="376.41791"
       y1="569.36969"
       x2="376.41791"
       y2="1058.7845" />
    <linearGradient
       id="linearGradient5124">
      <stop
         style="stop-color:#ffffff;stop-opacity:1;"
         offset="0"
         id="stop5126" />
      <stop
         style="stop-color:#daf8f8;stop-opacity:1;"
         offset="1"
         id="stop5128" />
    </linearGradient>
    <linearGradient
       inkscape:collect="always"
       xlink:href="#linearGradient5140"
       id="linearGradient5193"
       gradientUnits="userSpaceOnUse"
       gradientTransform="translate(-977.44085,174.68164)"
       x1="376.83243"
       y1="439.04681"
       x2="376.83243"
       y2="746.38934" />
    <linearGradient
       id="linearGradient5140">
      <stop
         id="stop5142"
         offset="0"
         style="stop-color:#f1fcfe;stop-opacity:1;" />
      <stop
         id="stop5144"
         offset="1"
         style="stop-color:#b8f2f2;stop-opacity:1;" />
    </linearGradient>
    <linearGradient
       inkscape:collect="always"
       xlink:href="#linearGradient5156"
       id="linearGradient5196"
       gradientUnits="userSpaceOnUse"
       x1="373.67728"
       y1="315.04807"
       x2="373.67728"
       y2="577.68774"
       gradientTransform="translate(-974.28569,174.68164)" />
    <linearGradient
       id="linearGradient5156">
      <stop
         style="stop-color:#eafafd;stop-opacity:1;"
         offset="0"
         id="stop5158" />
      <stop
         style="stop-color:#6ae3e3;stop-opacity:1;"
         offset="1"
         id="stop5160" />
    </linearGradient>
    <linearGradient
       inkscape:collect="always"
       xlink:href="#linearGradient4011"
       id="linearGradient5307"
       x1="374.28571"
       y1="238.07645"
       x2="374.28571"
       y2="409.50504"
       gradientUnits="userSpaceOnUse" />
    <linearGradient
       id="linearGradient4011">
      <stop
         style="stop-color:#faff25;stop-opacity:1;"
         offset="0"
         id="stop4013" />
      <stop
         style="stop-color:#ffa328;stop-opacity:1;"
         offset="1"
         id="stop4015" />
    </linearGradient>
    <radialGradient
       inkscape:collect="always"
       xlink:href="#linearGradient5327"
       id="radialGradient5333"
       cx="373.67188"
       cy="389.79688"
       fx="373.67188"
       fy="389.79688"
       r="373.76562"
       gradientTransform="matrix(1,0,0,1.0380419,-974.28569,159.85303)"
       gradientUnits="userSpaceOnUse" />
    <linearGradient
       id="linearGradient5327">
      <stop
         style="stop-color:#ffffea;stop-opacity:1;"
         offset="0"
         id="stop5329" />
      <stop
         style="stop-color:#ffef5b;stop-opacity:1;"
         offset="1"
         id="stop5331" />
    </linearGradient>
    <radialGradient
       inkscape:collect="always"
       xlink:href="#linearGradient5311"
       id="radialGradient5317"
       cx="374.28571"
       cy="324.6228"
       fx="374.28571"
       fy="324.6228"
       r="377.14285"
       gradientTransform="matrix(1,0,0,1.0340909,-868.57143,-13.327287)"
       gradientUnits="userSpaceOnUse" />
    <linearGradient
       id="linearGradient5311">
      <stop
         style="stop-color:#fff598;stop-opacity:1;"
         offset="0"
         id="stop5313" />
      <stop
         style="stop-color:#ffb713;stop-opacity:1;"
         offset="1"
         id="stop5315" />
    </linearGradient>
    <radialGradient
       r="377.14285"
       fy="324.6228"
       fx="374.28571"
       cy="324.6228"
       cx="374.28571"
       gradientTransform="matrix(1,0,0,1.0340909,-974.28569,161.35436)"
       gradientUnits="userSpaceOnUse"
       id="radialGradient10551"
       xlink:href="#linearGradient5311"
       inkscape:collect="always" />
  </defs>
  <sodipodi:namedview
     id="base"
     pagecolor="#ffffff"
     bordercolor="#666666"
     borderopacity="1.0"
     inkscape:pageopacity="0.0"
     inkscape:pageshadow="2"
     inkscape:zoom="0.24748737"
     inkscape:cx="1175"
     inkscape:cy="431.03266"
     inkscape:document-units="px"
     inkscape:current-layer="layer1"
     showgrid="false"
     inkscape:window-width="1024"
     inkscape:window-height="575"
     inkscape:window-x="-5"
     inkscape:window-y="3"
     inkscape:window-maximized="1" />
  <metadata
     id="metadata10558">
    <rdf:RDF>
      <cc:Work
         rdf:about="">
        <dc:format>image/svg+xml</dc:format>
        <dc:type
           rdf:resource="http://purl.org/dc/dcmitype/StillImage" />
        <dc:title></dc:title>
      </cc:Work>
    </rdf:RDF>
  </metadata>
  <g
     inkscape:label="Layer 1"
     inkscape:groupmode="layer"
     id="layer1"
     transform="translate(977.14288,-175.61525)">
    <rect
       style="fill:url(#radialGradient10551);fill-opacity:1;stroke:none"
       id="rect5309"
       width="754.28571"
       height="780"
       x="-977.14288"
       y="175.61525"
       inkscape:export-filename="/home/sarah/flierback.png"
       inkscape:export-xdpi="90.044647"
       inkscape:export-ydpi="90.044647" />
    <path
       style="fill:url(#radialGradient5333);fill-opacity:1;stroke:none"
       d="m -895.72319,176.49414 212,252.6875 -290.65625,-167.84375 0,43.5 271.90625,156.96875 -271.90625,-47.9375 0,38.25 265.28125,46.78125 -265.28125,46.78125 0,38.28125 271.84375,-47.9375 -271.84375,156.96875 0,43.46875 290.6875,-167.84375 -222.875,265.59375 28.84375,24.21875 222.875,-265.59375 -118.59375,325.84375 35.40625,12.875 118.59375,-325.875 0,346.78125 37.65625,0 0,-346.78125 118.59375,325.875 35.40625,-12.875 -118.5625,-325.78125 222.84375,265.53125 28.84375,-24.21875 -222.875,-265.59375 290.6875,167.84375 0,-43.46875 -271.8125,-156.96875 271.8125,47.9375 0,-38.28125 -265.3125,-46.78125 265.3125,-46.78125 0,-38.25 -271.875,47.9375 271.875,-156.96875 0,-43.5 -290.65625,167.8125 212,-252.65625 -49.15625,0 -191.71875,228.46875 83.15625,-228.46875 -40.09375,0 -78.46875,215.625 0,-215.625 -37.65625,0 0,215.625 -78.46875,-215.625 -40.09375,0 83.125,228.46875 -191.6875,-228.46875 -49.15625,0 z"
       id="rect5289"
       inkscape:export-filename="/home/sarah/flierback.png"
       inkscape:export-xdpi="90.044647"
       inkscape:export-ydpi="90.044647" />
    <path
       sodipodi:type="arc"
       style="fill:url(#linearGradient5307);fill-opacity:1;stroke:none"
       id="path5293"
       sodipodi:cx="374.28571"
       sodipodi:cy="323.79074"
       sodipodi:rx="85.714287"
       sodipodi:ry="85.714287"
       d="m 459.99999,323.79074 c 0,47.33869 -38.37559,85.71429 -85.71428,85.71429 -47.3387,0 -85.71429,-38.3756 -85.71429,-85.71429 0,-47.33869 38.37559,-85.71429 85.71429,-85.71429 47.33869,0 85.71428,38.3756 85.71428,85.71429 z"
       transform="matrix(1.05,0,0,1.05,-993.6138,162.77782)"
       inkscape:export-filename="/home/sarah/flierback.png"
       inkscape:export-xdpi="90.044647"
       inkscape:export-ydpi="90.044647" />
    <path
       style="fill:url(#linearGradient5196);fill-opacity:1;stroke:none"
       d="m -226.62157,1227.3523 0,-670.83191 c -13.14465,0 -17.72133,16.90282 -22.92322,28.06877 -6.11378,-21.08983 -25.5625,-36.52724 -48.62337,-36.52724 -13.30095,0 -25.38543,5.14133 -34.4207,13.52941 -1.32669,-35.6618 -30.66196,-64.1724 -66.64806,-64.1724 -27.51198,0 -51.11388,16.65474 -61.30585,40.43622 -7.18634,-11.54429 -19.97339,-19.24087 -34.57275,-19.24087 -22.48633,0 -40.71857,18.23219 -40.71857,40.71853 0,2.69591 0.26018,5.33367 0.76012,7.88311 -10.43917,-7.81487 -23.41746,-12.44358 -37.46102,-12.44358 -18.7139,0 -35.4895,8.21359 -46.95125,21.23878 -3.31405,-37.50417 -34.7977,-66.90869 -73.16302,-66.90869 -28.82402,0 -53.77011,16.6005 -65.80115,40.76197 -3.73059,-1.50705 -7.72553,-2.49902 -11.90067,-2.86659 0.16998,-1.68824 0.2606,-3.41377 0.2606,-5.14682 0,-27.9625 -22.65874,-50.62128 -50.62125,-50.62128 -27.76584,0 -50.30553,22.34391 -50.62131,50.03493 -10.9671,-10.11165 -25.62421,-16.28741 -41.71746,-16.28741 -33.99366,0 -61.54477,27.55108 -61.54477,61.5447 l 0,640.83037 747.9737,0 z"
       id="path4655"
       sodipodi:nodetypes="cccscscsscscsccsccsccc"
       inkscape:export-filename="/home/sarah/flierback.png"
       inkscape:export-xdpi="90.044647"
       inkscape:export-ydpi="90.044647" />
    <path
       style="fill:url(#linearGradient5193);fill-opacity:1;stroke:none"
       d="m -227.19575,659.47309 c 0,269.68355 0,567.44051 0,567.44051 l -746.82534,0 0,-527.39857 c 0.47157,-3.57143 14.58281,-28.18639 40.6355,-28.18639 37.03105,0 68.96165,21.82879 83.63235,53.3197 7.67429,-26.47287 32.08717,-45.85058 61.03414,-45.85058 16.69594,0 31.8649,6.45362 43.20637,16.98271 1.66531,-44.76425 38.48823,-80.55201 83.65955,-80.55201 34.53424,0 64.16036,20.90577 76.95378,50.75731 9.0206,-14.4909 25.07147,-24.15198 43.39722,-24.15198 28.22582,0 51.11173,22.88584 51.11173,51.11168 0,3.38403 -0.3266,6.69506 -0.95413,9.89522 13.10369,-9.80956 29.39462,-15.61972 47.0227,-15.61972 23.4905,0 44.54797,10.31006 58.93526,26.65985 4.15994,-47.07688 43.67959,-83.98671 91.83742,-83.98671 26.74704,0 49.50968,11.38769 66.35345,29.57898 z"
       id="path4849"
       sodipodi:nodetypes="ccccscscscsscscsc"
       inkscape:export-filename="/home/sarah/flierback.png"
       inkscape:export-xdpi="90.044647"
       inkscape:export-ydpi="90.044647" />
    <path
       sodipodi:nodetypes="ccccacsscscc"
       id="path4847"
       d="m -972.98572,818.94192 c 0,97.15327 0,413.02438 0,413.02438 l 744.6433,0 c 0,-82.3315 0,-229.9006 0,-304.86991 2.85714,-44.0708 -49.87241,-82.08502 -92.1142,-91.48685 -48.20129,-10.72824 -114.56803,19.46407 -139.46424,49.95865 0.41141,-4.1661 0.6191,-8.41435 0.6191,-12.6886 0,-70.32146 -57.00685,-127.32828 -127.32828,-127.32828 -63.57557,0 -116.25623,46.61933 -125.78095,107.52166 -10.55255,-31.10131 -40.00485,-53.45135 -74.6728,-53.45135 -38.83216,0 -71.07436,28.0712 -77.5906,65.03468 -27.19873,-28.17473 -66.05744,-45.71438 -108.31133,-45.71438 z"
       style="fill:url(#linearGradient5190);fill-opacity:1;stroke:none"
       inkscape:export-filename="/home/sarah/flierback.png"
       inkscape:export-xdpi="90.044647"
       inkscape:export-ydpi="90.044647" />
  </g>
</svg>
