<?xml version="1.0" encoding="UTF-8" standalone="no"?>
<!-- Created with Inkscape (http://www.inkscape.org/) -->

<svg
   xmlns:dc="http://purl.org/dc/elements/1.1/"
   xmlns:cc="http://creativecommons.org/ns#"
   xmlns:rdf="http://www.w3.org/1999/02/22-rdf-syntax-ns#"
   xmlns:svg="http://www.w3.org/2000/svg"
   xmlns="http://www.w3.org/2000/svg"
   xmlns:xlink="http://www.w3.org/1999/xlink"
   xmlns:sodipodi="http://sodipodi.sourceforge.net/DTD/sodipodi-0.dtd"
   xmlns:inkscape="http://www.inkscape.org/namespaces/inkscape"
   width="576"
   height="1048"
   id="svg3162"
   version="1.1"
   inkscape:version="0.47pre4 r22446"
   sodipodi:docname="spring_2010.svg">
  <sodipodi:namedview
     inkscape:document-units="mm"
     id="base"
     pagecolor="#ffffff"
     bordercolor="#666666"
     borderopacity="1.0"
     inkscape:pageopacity="0.0"
     inkscape:pageshadow="2"
     inkscape:zoom="0.5"
     inkscape:cx="607.17909"
     inkscape:cy="552.9039"
     inkscape:current-layer="layer1"
     showgrid="false"
     inkscape:window-width="1272"
     inkscape:window-height="953"
     inkscape:window-x="0"
     inkscape:window-y="0"
     inkscape:window-maximized="1" />
  <defs
     id="defs3">
    <inkscape:path-effect
       effect="skeletal"
       id="path-effect6027"
       is_visible="true"
       pattern="m 8,82.362183 0,10 10,-5 z"
       copytype="single_stretched"
       prop_scale="1"
       scale_y_rel="false"
       spacing="0"
       normal_offset="0"
       tang_offset="0"
       prop_units="false"
       vertical_pattern="false"
       fuse_tolerance="0" />
    <inkscape:path-effect
       effect="skeletal"
       id="path-effect6005"
       is_visible="true"
       pattern="m 98,48.362183 0,10 10,-5 z"
       copytype="single_stretched"
       prop_scale="1"
       scale_y_rel="false"
       spacing="0"
       normal_offset="0"
       tang_offset="0"
       prop_units="false"
       vertical_pattern="false"
       fuse_tolerance="0" />
    <inkscape:path-effect
       effect="skeletal"
       id="path-effect5951"
       is_visible="true"
       pattern="m -516.20831,1741.9943 0,10 10,-5 z"
       copytype="single_stretched"
       prop_scale="1"
       scale_y_rel="false"
       spacing="0"
       normal_offset="0"
       tang_offset="0"
       prop_units="false"
       vertical_pattern="false"
       fuse_tolerance="0" />
    <inkscape:path-effect
       effect="skeletal"
       id="path-effect5949"
       is_visible="true"
       pattern="m -471.20831,118.99434 0,9.99999 10,-4.99999 z"
       copytype="single_stretched"
       prop_scale="1"
       scale_y_rel="false"
       spacing="0"
       normal_offset="0"
       tang_offset="0"
       prop_units="false"
       vertical_pattern="false"
       fuse_tolerance="0" />
    <inkscape:path-effect
       fuse_tolerance="0"
       vertical_pattern="false"
       prop_units="false"
       tang_offset="0"
       normal_offset="0"
       spacing="0"
       scale_y_rel="false"
       prop_scale="1"
       copytype="single_stretched"
       pattern="m -358.20831,1721.9943 0,10 10,-5 z"
       is_visible="true"
       id="path-effect5947"
       effect="skeletal" />
    <linearGradient
       inkscape:collect="always"
       id="linearGradient5907">
      <stop
         style="stop-color:#a8dde0;stop-opacity:1;"
         offset="0"
         id="stop5909" />
      <stop
         style="stop-color:#a8dde0;stop-opacity:0;"
         offset="1"
         id="stop5911" />
    </linearGradient>
    <inkscape:path-effect
       effect="skeletal"
       id="path-effect5195"
       is_visible="true"
       pattern="m -120,-37.142857 0,10 10,-5 z"
       copytype="single_stretched"
       prop_scale="1"
       scale_y_rel="false"
       spacing="0"
       normal_offset="0"
       tang_offset="0"
       prop_units="false"
       vertical_pattern="false"
       fuse_tolerance="0" />
    <inkscape:path-effect
       fuse_tolerance="0"
       vertical_pattern="false"
       prop_units="false"
       tang_offset="0"
       normal_offset="0"
       spacing="0"
       scale_y_rel="false"
       prop_scale="1"
       copytype="single_stretched"
       pattern="m -7,1565.8571 0,10 10,-5 z"
       is_visible="true"
       id="path-effect5192"
       effect="skeletal" />
    <inkscape:path-effect
       effect="skeletal"
       id="path-effect5189"
       is_visible="true"
       pattern="m -165,1585.8571 0,10 10,-5 z"
       copytype="single_stretched"
       prop_scale="1"
       scale_y_rel="false"
       spacing="0"
       normal_offset="0"
       tang_offset="0"
       prop_units="false"
       vertical_pattern="false"
       fuse_tolerance="0" />
    <inkscape:path-effect
       effect="skeletal"
       id="path-effect5144"
       is_visible="true"
       pattern="m -205,31.857143 0,10 10,-5 z"
       copytype="single_stretched"
       prop_scale="1"
       scale_y_rel="false"
       spacing="0"
       normal_offset="0"
       tang_offset="0"
       prop_units="false"
       vertical_pattern="false"
       fuse_tolerance="0" />
    <inkscape:path-effect
       fuse_tolerance="0"
       vertical_pattern="false"
       prop_units="false"
       tang_offset="0"
       normal_offset="0"
       spacing="0"
       scale_y_rel="false"
       prop_scale="1"
       copytype="single_stretched"
       pattern="m -47,11.857143 0,10 10,-5 z"
       is_visible="true"
       id="path-effect5142"
       effect="skeletal" />
    <inkscape:path-effect
       fuse_tolerance="0"
       vertical_pattern="false"
       prop_units="false"
       tang_offset="0"
       normal_offset="0"
       spacing="0"
       scale_y_rel="false"
       prop_scale="1"
       copytype="single_stretched"
       pattern="m -73,-1 0,10 10,-5 z"
       is_visible="true"
       id="path-effect4057"
       effect="skeletal" />
    <inkscape:path-effect
       fuse_tolerance="0"
       vertical_pattern="false"
       prop_units="false"
       tang_offset="0"
       normal_offset="0"
       spacing="0"
       scale_y_rel="false"
       prop_scale="1"
       copytype="single_stretched"
       pattern="M 0,0 0,10 10,5 z"
       is_visible="true"
       id="path-effect4053"
       effect="skeletal" />
    <inkscape:path-effect
       fuse_tolerance="0"
       vertical_pattern="false"
       prop_units="false"
       tang_offset="0"
       normal_offset="0"
       spacing="0"
       scale_y_rel="false"
       prop_scale="1"
       copytype="single_stretched"
       pattern="M 0,0 0,10 10,5 z"
       is_visible="true"
       id="path-effect4049"
       effect="skeletal" />
    <inkscape:path-effect
       fuse_tolerance="0"
       vertical_pattern="false"
       prop_units="false"
       tang_offset="0"
       normal_offset="0"
       spacing="0"
       scale_y_rel="false"
       prop_scale="1"
       copytype="single_stretched"
       pattern="M 0,0 0,10 10,5 z"
       is_visible="true"
       id="path-effect4045"
       effect="skeletal" />
    <inkscape:path-effect
       fuse_tolerance="0"
       vertical_pattern="false"
       prop_units="false"
       tang_offset="0"
       normal_offset="0"
       spacing="0"
       scale_y_rel="false"
       prop_scale="1"
       copytype="single_stretched"
       pattern="M 0,0 0,10 10,5 z"
       is_visible="true"
       id="path-effect4007"
       effect="skeletal" />
    <inkscape:path-effect
       fuse_tolerance="0"
       vertical_pattern="false"
       prop_units="false"
       tang_offset="0"
       normal_offset="0"
       spacing="0"
       scale_y_rel="false"
       prop_scale="1"
       copytype="single_stretched"
       pattern="m -1028.2083,1985.1383 0,10 10,-5 z"
       is_visible="true"
       id="path-effect4001"
       effect="skeletal" />
    <inkscape:path-effect
       fuse_tolerance="0"
       vertical_pattern="false"
       prop_units="false"
       tang_offset="0"
       normal_offset="0"
       spacing="0"
       scale_y_rel="false"
       prop_scale="1"
       copytype="single_stretched"
       pattern="M 0,0 0,10 10,5 z"
       is_visible="true"
       id="path-effect3192"
       effect="skeletal" />
    <inkscape:path-effect
       effect="skeletal"
       id="path-effect3188"
       is_visible="true"
       pattern="m -870.20831,1965.1383 0,10 10,-5 z"
       copytype="single_stretched"
       prop_scale="1"
       scale_y_rel="false"
       spacing="0"
       normal_offset="0"
       tang_offset="0"
       prop_units="false"
       vertical_pattern="false"
       fuse_tolerance="0" />
    <inkscape:path-effect
       fuse_tolerance="0"
       vertical_pattern="false"
       prop_units="false"
       tang_offset="0"
       normal_offset="0"
       spacing="0"
       scale_y_rel="false"
       prop_scale="1"
       copytype="single_stretched"
       pattern="m -983.20831,362.13838 0,9.99999 10,-4.99999 z"
       is_visible="true"
       id="path-effect3184"
       effect="skeletal" />
    <inkscape:path-effect
       is_visible="true"
       id="path-effect3180"
       effect="spiro" />
    <inkscape:path-effect
       fuse_tolerance="0"
       vertical_pattern="false"
       prop_units="false"
       tang_offset="0"
       normal_offset="0"
       spacing="0"
       scale_y_rel="false"
       prop_scale="1"
       copytype="single_stretched"
       pattern="m -514.28571,2.8571429 0,10.0000001 10,-5.0000001 z"
       is_visible="true"
       id="path-effect3176"
       effect="skeletal" />
    <inkscape:path-effect
       fuse_tolerance="0"
       vertical_pattern="false"
       prop_units="false"
       tang_offset="0"
       normal_offset="0"
       spacing="0"
       scale_y_rel="false"
       prop_scale="1"
       copytype="single_stretched"
       pattern="M 0,0 0,10 10,5 z"
       is_visible="true"
       id="path-effect3172"
       effect="skeletal" />
    <inkscape:perspective
       id="perspective3168"
       inkscape:persp3d-origin="372.04724 : 350.78739 : 1"
       inkscape:vp_z="744.09448 : 526.18109 : 1"
       inkscape:vp_y="0 : 1000 : 0"
       inkscape:vp_x="0 : 526.18109 : 1"
       sodipodi:type="inkscape:persp3d" />
    <linearGradient
       inkscape:collect="always"
       xlink:href="#linearGradient5907"
       id="linearGradient5913"
       x1="-354"
       y1="570.36218"
       x2="-328.82812"
       y2="908.36218"
       gradientUnits="userSpaceOnUse"
       gradientTransform="translate(673.78125,2.9999999e-6)" />
    <linearGradient
       inkscape:collect="always"
       xlink:href="#linearGradient5907"
       id="linearGradient5917"
       gradientUnits="userSpaceOnUse"
       gradientTransform="translate(1246.4375,32.093756)"
       x1="-354"
       y1="570.36218"
       x2="-328.82812"
       y2="908.36218" />
  </defs>
  <metadata
     id="metadata4">
    <rdf:RDF>
      <cc:Work
         rdf:about="">
        <dc:format>image/svg+xml</dc:format>
        <dc:type
           rdf:resource="http://purl.org/dc/dcmitype/StillImage" />
        <dc:title></dc:title>
      </cc:Work>
    </rdf:RDF>
  </metadata>
  <g
     transform="translate(-32,-32.362183)"
     id="layer1"
     inkscape:groupmode="layer"
     inkscape:label="Layer 1">
    <rect
       style="fill:#ffffff;fill-opacity:1;stroke:none"
       id="rect6050"
       width="576"
       height="1048"
       x="-4"
       y="-44"
       transform="translate(36,76.362183)" />
    <path
       style="fill:#803f00;fill-rule:evenodd;stroke:none"
       d="m 204.00253,1033.3454 7.99493,-5.9664 c -3.6448,-4.8089 -7.29088,-9.6196 -10.93824,-14.4321 -8.03724,-13.28107 -13.0275,-28.46234 -15.6899,-44.05028 -4.46142,-25.7768 -2.35208,-52.60492 3.33396,-78.52907 9.00065,-40.96305 26.80929,-79.79717 47.96488,-116.43854 21.29903,-36.79682 36.78124,-77.60641 40.37338,-120.0515 0,-10e-6 0,-2e-5 0,-3e-5 2.96557,-35.20818 -2.88023,-71.18073 -17.78119,-103.11926 C 244.59327,519.35446 221.67222,492.23428 194.50752,470.9645 164.75154,447.66548 130.11674,431.0949 94,420.36218 c 35.96491,11.23098 70.28708,28.25663 99.53559,51.82592 26.69447,21.51151 49.01099,48.69399 63.00765,79.81573 14.2385,31.62467 19.45017,67.04317 16.0775,101.47131 -4.05415,41.56237 -19.87264,81.37693 -41.2889,117.32021 -21.89244,36.66535 -40.5059,75.88002 -50.38138,117.80665 0,10e-6 0,2e-5 -1e-5,3e-5 -6.26625,26.56131 -8.79997,54.42635 -4.52861,81.76564 2.64094,16.66892 7.89811,33.14793 16.55194,47.97443 3.67497,4.9993 7.35122,10.0004 11.02875,15.0033 z"
       id="path6025"
       inkscape:path-effect="#path-effect6027"
       inkscape:original-d="m 208,1030.3622 c 0,0 -80.93687,-75.89665 26,-258.00002 97.75277,-166.46372 12.65202,-305.48603 -140,-352"
       sodipodi:nodetypes="csc" />
    <path
       id="path6023"
       d="m 140.15389,184.63115 c -1.0837,0.54862 0.7048,12.20264 0.16266,19.40263 -10.99183,-1.07759 -21.60614,-1.18166 -29.99857,-0.51121 -0.74884,0.0595 -1.49555,0.13732 -2.20748,0.20913 -0.0296,0.003 -0.0449,0.007 -0.0697,0.0232 -1.56703,1.00254 6.16902,27.23074 -0.95271,25.00267 -10.04997,0.16112 -13.71752,4.28257 -14.66235,10.06148 -7.92496,-0.41839 -14.75624,-0.51024 -15.9636,0.69711 -6.56008,6.56007 -1.35031,15.044 1.11537,22.49311 -11.81662,0.41102 -25.79846,0.78591 -27.39606,2.74193 -5.35139,6.55191 -0.8281,13.71257 2.43986,20.35533 -0.68446,2.22646 -0.53217,5.21185 0.83651,9.31791 0.27624,0.82869 0.59,1.65004 0.95271,2.4631 -0.23655,0.45139 -0.50506,0.91346 -0.85975,1.34772 -6.88253,8.42655 -29.36323,4.27614 -20.75037,23.44582 2.48913,5.54006 7.15901,10.49872 12.05984,14.80177 -2.61906,3.98162 -4.79531,8.22341 -5.7627,12.52456 -3.38333,15.04279 7.13913,14.44466 16.31215,15.77772 -2.38087,5.39826 -4.63375,10.51673 -2.67221,13.6167 1.75748,2.77745 5.71556,8.02813 10.78182,14.40674 0.0488,3.14692 1.04751,6.09582 3.99671,8.50462 3.4455,2.81414 43.81132,-6.89497 44.05675,-4.46144 1.40734,13.95371 -1.5822,32.19918 18.8682,28.37199 6.63707,-3.66255 4.14347,24.49701 6.04154,24.30557 10.27916,-1.03673 24.20081,-4.06833 37.78285,-8.78346 20.18533,9.32495 51.44255,11.84043 70.80217,10.29386 0.74888,-0.0596 1.47232,-0.16057 2.18425,-0.23238 0.32726,-0.033 0.36954,-0.88646 0.23237,-2.23071 -4.24001,-0.64677 -8.01688,-1.75508 -9.71293,-5.15855 4.99481,0.57424 9.72521,0.91242 13.89554,0.99918 0.75107,0.0159 1.49193,0 2.20748,0 1.9077,0 -3.43912,-27.77156 3.53197,-24.79355 20.73123,1.75573 15.94037,-16.067 15.94037,-30.0915 0,-2.44589 41.14341,3.14571 44.28912,0 10.28838,-10.28836 -8.34363,-25.3031 0,-33.64672 7.69338,-7.69337 29.67332,-1.32436 23.02755,-21.26157 -1.92057,-5.76188 -6.08195,-11.16724 -10.52621,-15.94037 3.00537,-3.6987 5.5768,-7.69157 6.971,-11.87394 4.87577,-14.62735 -5.64617,-15.08773 -14.63911,-17.33457 2.91058,-5.13209 5.66057,-10.01023 4.01995,-13.29138 -1.46987,-2.93981 -4.87086,-8.55112 -9.27144,-15.40592 0.27118,-3.14203 -0.43951,-6.15572 -3.13695,-8.85319 -3.14572,-3.14568 -44.26589,2.44589 -44.26589,0 0,-14.0245 4.79085,-31.87043 -15.94036,-30.11474 -6.9711,2.97805 -1.62428,-24.79354 -3.53198,-24.79354 -10.3313,0 -24.51657,1.62103 -38.50319,4.94941 -19.1477,-11.30345 -49.99088,-16.93062 -69.40798,-17.33456 -0.75104,-0.0159 -1.49193,0 -2.20748,0 -0.0298,0 -0.0433,-0.0133 -0.0696,0 z"
       style="opacity:0.1;fill:#00c4cc;stroke:none" />
    <path
       style="opacity:0.2;fill:#00c4cc;stroke:none"
       d="m 273.99251,382.61038 c -1.18126,0.59801 0.76825,13.30115 0.1773,21.14929 -11.98133,-1.17459 -23.55116,-1.28803 -32.69909,-0.55723 -0.81625,0.0649 -1.63018,0.14969 -2.4062,0.22796 -0.0323,0.003 -0.0489,0.008 -0.076,0.0253 -1.7081,1.09279 6.72437,29.6821 -1.03847,27.25345 -10.95469,0.17563 -14.9524,4.6681 -15.98228,10.96724 -8.63838,-0.45606 -16.08463,-0.55618 -17.40067,0.75986 -7.15064,7.15062 -1.47187,16.39829 1.21577,24.51798 -12.88037,0.44802 -28.12088,0.85666 -29.8623,2.98876 -5.83313,7.14173 -0.90265,14.947 2.6595,22.18776 -0.74607,2.42689 -0.58008,5.68103 0.91182,10.15672 0.3011,0.90329 0.64311,1.79858 1.03847,2.68483 -0.25785,0.49203 -0.55053,0.99569 -0.93715,1.46905 -7.5021,9.18512 -32.00656,4.66108 -22.61835,25.55645 2.71321,6.03879 7.80348,11.44383 13.14549,16.13425 -2.85484,4.34006 -5.22699,8.9637 -6.28147,13.65205 -3.6879,16.39697 7.78181,15.74499 17.7806,17.19805 -2.5952,5.88423 -5.05089,11.46347 -2.91277,14.8425 1.91569,3.02749 6.23009,8.75084 11.75242,15.70366 0.0532,3.43021 1.14181,6.64458 4.3565,9.27023 3.75567,3.06747 47.75529,-7.51567 48.02282,-4.86307 1.53403,15.20985 -1.72464,35.09781 20.56674,30.92609 7.23455,-3.99226 4.51648,26.70227 6.58541,26.4936 11.20451,-1.13006 26.37941,-4.43457 41.18413,-9.57417 22.00245,10.1644 56.0735,12.90633 77.17591,11.22053 0.81629,-0.065 1.60486,-0.17502 2.38088,-0.25329 0.35672,-0.036 0.40281,-0.96627 0.25329,-2.43153 -4.6217,-0.70499 -8.73858,-1.91307 -10.58731,-5.62293 5.44446,0.62594 10.60069,0.99456 15.14644,1.08913 0.81869,0.0173 1.62624,0 2.4062,0 2.07944,0 -3.74871,-30.27161 3.84993,-27.02551 22.59749,1.91378 17.37535,-17.51338 17.37535,-32.80039 0,-2.66607 44.84721,3.42889 48.27611,0 11.21455,-11.21454 -9.09474,-27.58093 0,-36.67566 8.38595,-8.38594 32.34456,-1.44358 25.10053,-23.17557 -2.09347,-6.28058 -6.62946,-12.17254 -11.4738,-17.37535 3.27592,-4.03167 6.07883,-8.38398 7.59854,-12.94286 5.31469,-15.94412 -6.15445,-16.44595 -15.95695,-18.89505 3.1726,-5.59409 6.17015,-10.91137 4.38183,-14.4879 -1.60219,-3.20445 -5.30934,-9.3209 -10.10607,-16.79279 0.29559,-3.42488 -0.47907,-6.70986 -3.41934,-9.65016 -3.4289,-3.42887 -48.25078,2.66607 -48.25078,0 0,-15.28701 5.22213,-34.73947 -17.37535,-32.82573 -7.59865,3.24614 -1.7705,-27.0255 -3.84993,-27.0255 -11.26134,0 -26.72359,1.76696 -41.96931,5.39497 -20.87141,-12.32101 -54.49115,-18.45474 -75.65621,-18.89505 -0.81865,-0.0173 -1.62624,0 -2.40621,0 -0.0325,0 -0.0472,-0.0145 -0.0759,0 z"
       id="path6011" />
    <path
       id="path5976"
       d="m 338.71311,746.02618 c -7.81514,0.16258 -20.2259,2.43365 -27.93259,6.98314 -5.62944,-1.33963 -11.3339,-1.9936 -15.49211,-1.9936 -0.76782,0 1.38019,11.17773 -1.42558,9.97911 -8.34404,-0.70665 -6.41514,6.4728 -6.41514,12.11747 0,0.98444 -16.55371,-1.2661 -17.81982,0 -1.0857,1.0857 -1.36767,2.29935 -1.25854,3.56397 -1.77117,2.75897 -3.1394,5.0203 -3.73101,6.20353 -0.66032,1.32063 0.44345,3.28034 1.61492,5.34594 -3.61956,0.90433 -7.85412,1.09583 -5.89168,6.98314 0.56112,1.68335 1.59699,3.28926 2.80662,4.77794 -1.78877,1.92112 -3.45919,4.09606 -4.2322,6.41516 -2.67483,8.02446 6.16982,5.45702 9.2663,8.55348 3.3582,3.35822 -4.14094,9.40214 0,13.54308 1.26611,1.26611 17.81982,-0.98443 17.81982,0 0,5.64465 -1.92891,12.8241 6.41514,12.11745 2.80578,-1.19858 0.65776,9.97911 1.42559,9.97911 0.288,0 0.58869,0.007 0.89098,0 7.81514,-0.16258 20.22588,-2.43363 27.93257,-6.98307 5.62945,1.3396 11.3339,1.99355 15.49211,1.99355 0.7678,0 -1.38019,-11.17768 1.42558,-9.9791 8.34406,0.70665 6.41515,-6.4728 6.41515,-12.11746 0,-0.98449 16.55373,1.26612 17.81982,0 1.08372,-1.08373 1.36604,-2.30184 1.25852,-3.56397 1.77116,-2.75899 3.13943,-5.02031 3.73105,-6.20356 0.66027,-1.32064 -0.44346,-3.28032 -1.61495,-5.34596 3.61955,-0.90429 7.85413,-1.09577 5.8917,-6.98312 -0.56111,-1.68334 -1.597,-3.28925 -2.80662,-4.77794 1.78875,-1.92112 3.45916,-4.09605 4.2322,-6.41514 2.67483,-8.02446 -6.16984,-5.45703 -9.26631,-8.55351 -3.3582,-3.3582 4.14093,-9.40213 0,-13.54306 -1.2661,-1.26611 -17.81982,0.98444 -17.81982,0 0,-5.64468 1.9289,-12.82413 -6.41516,-12.11749 -2.80577,1.19863 -0.65778,-9.97909 -1.42558,-9.97909 -0.28799,0 -0.58871,-0.006 -0.89101,0 z"
       style="opacity:0.2;fill:#00892c;stroke:none" />
    <path
       style="opacity:0.2;fill:#00892c;stroke:none"
       d="m 320.79402,816.02866 c -14.7539,0.30693 -38.18365,4.59439 -52.7328,13.18318 -10.62758,-2.52903 -21.39679,-3.76362 -29.24692,-3.76362 -1.44953,0 2.60561,21.10196 -2.6913,18.83913 -15.75237,-1.33405 -12.11087,12.21973 -12.11087,22.87609 0,1.85848 -31.25108,-2.39022 -33.64131,0 -2.04964,2.04964 -2.58196,4.34084 -2.37592,6.72827 -3.34373,5.20855 -5.92676,9.47761 -7.04364,11.71138 -1.24658,2.49315 0.83717,6.19282 3.04874,10.09239 -6.8332,1.70723 -14.82747,2.06876 -11.12266,13.18318 1.05931,3.17792 3.01489,6.20965 5.29851,9.02008 -3.37695,3.6268 -6.53045,7.73277 -7.98981,12.11087 -5.04969,15.14906 11.64776,10.30211 17.49348,16.14783 6.33981,6.33981 -7.81751,17.74989 0,25.56739 2.39023,2.39023 33.6413,-1.85848 33.6413,0 0,10.65637 -3.6415,24.21017 12.11088,22.87607 5.29691,-2.2628 1.24176,18.8391 2.6913,18.8391 0.5437,0 1.11138,0.012 1.68207,0 14.75386,-0.3069 38.18359,-4.5943 52.73274,-13.1831 10.62761,2.529 21.39681,3.7636 29.24691,3.7636 1.4495,0 -2.6056,-21.102 2.6913,-18.8391 15.7524,1.334 12.1109,-12.21977 12.1109,-22.87613 0,-1.85848 31.2511,2.39022 33.6413,0 2.0459,-2.04593 2.5789,-4.34548 2.3759,-6.72827 3.3437,-5.20855 5.9268,-9.47761 7.0437,-11.71138 1.2465,-2.49315 -0.8372,-6.19282 -3.0488,-10.09239 6.8332,-1.70723 14.8275,-2.06876 11.1227,-13.18318 -1.0593,-3.17792 -3.0149,-6.20965 -5.2985,-9.02008 3.3769,-3.6268 6.5304,-7.73277 7.9898,-12.11087 5.0497,-15.14906 -11.6478,-10.30211 -17.4935,-16.14783 -6.3398,-6.33981 7.8175,-17.74989 0,-25.56739 -2.3902,-2.39023 -33.6413,1.85848 -33.6413,0 0,-10.65636 3.6415,-24.21015 -12.1109,-22.87609 -5.2969,2.26282 -1.2418,-18.83913 -2.6913,-18.83913 -0.5437,0 -1.1114,-0.0119 -1.6821,0 z"
       id="path3981" />
    <path
       id="path5989"
       d="m 197.9115,900.36218 c -10.18188,0 -19.25826,4.70815 -25.19247,12.0578 -4.32741,-1.70639 -9.03314,-2.65957 -13.96682,-2.65957 -21.05035,0 -38.11504,17.06469 -38.11504,38.11505 0,21.05035 17.06469,38.11504 38.11504,38.11504 14.99946,0 27.97871,-8.66352 34.19912,-21.26023 1.61753,0.24881 3.27301,0.37527 4.96017,0.37527 4.85753,0 9.45658,-1.08521 13.59154,-3.00221 0.34226,9.79164 8.38292,17.62168 18.25802,17.62168 10.09264,0 18.27433,-8.1817 18.27433,-18.27433 0,-10.09264 -8.18169,-18.27434 -18.27433,-18.27434 -0.40922,0 -0.82121,0.006 -1.22373,0.0327 1.12469,-3.28776 1.74586,-6.80625 1.74586,-10.47511 0,-17.87839 -14.4933,-32.37168 -32.37169,-32.37168 z M 98.18584,933.77811 C 89.24665,933.77811 82,941.02476 82,949.96395 c 0,8.9392 7.24665,16.18584 16.18584,16.18584 8.93919,0 16.18584,-7.24664 16.18584,-16.18584 0,-8.93919 -7.24665,-16.18584 -16.18584,-16.18584 z m 20.88496,41.76992 c -11.8228,0 -21.40708,9.58427 -21.40708,21.40707 0,11.8228 9.58428,21.4071 21.40708,21.4071 11.82279,0 21.40708,-9.5843 21.40708,-21.4071 0,-11.8228 -9.58429,-21.40707 -21.40708,-21.40707 z"
       style="opacity:0.33999999;fill:#caf2f4;fill-opacity:1;stroke:none" />
    <path
       id="path5558"
       d="M 225.37723,545.68364 C 200.967,529.9891 171.07004,529.80373 147.15346,542.53539 142.34028,529.13274 133.25852,517.10624 120.35436,508.80953 89.21512,488.78858 47.7411,497.80184 27.72015,528.94108 c -9.70602,15.0961 -12.59637,32.61912 -9.44204,48.95109 -7.79887,5.42791 -14.68674,12.44176 -20.14458,20.93052 -22.33107,34.73225 -12.28252,80.97011 22.44974,103.30118 4.94056,3.17653 10.11222,5.68645 15.41673,7.57161 -0.99638,9.84299 0.1789,20.05947 3.84343,29.96348 2.77469,7.49901 6.76053,14.19751 11.64377,19.96936 2.95855,6.7343 6.63089,13.18789 11.00734,19.2258 -14.09439,20.09143 -18.40579,46.53518 -9.24451,71.29488 7.07295,19.11575 20.90595,33.75182 37.78457,42.23788 0.35728,1.27174 0.76694,2.54171 1.2334,3.80231 9.38772,25.37198 37.56408,38.33552 62.93624,28.94774 1.48136,-0.54811 2.91826,-1.12474 4.31308,-1.79658 -0.59898,6.96568 0.24308,14.14693 2.83001,21.13849 9.38781,25.37203 37.56416,38.33558 62.93633,28.9478 4.12647,-1.52687 7.95921,-3.55158 11.38638,-5.97948 19.01537,27.19659 54.60934,39.28184 87.1878,27.22751 38.72584,-14.32879 58.52889,-57.35148 44.20008,-96.07733 -6.88362,-18.6042 -20.41242,-32.80995 -36.87962,-40.98732 12.55711,-24.96935 15.14263,-54.86676 4.67879,-83.14683 -5.52772,-14.93955 -14.1006,-27.87302 -24.769,-38.32776 11.4093,-22.1712 4.28664,-49.81372 -17.11802,-63.57583 -6.27055,-4.03165 -13.09313,-6.42403 -20.02445,-7.33908 0.95643,-1.21741 1.82165,-2.48657 2.67587,-3.81518 14.6307,-22.7556 8.06557,-53.0683 -14.68988,-67.69889 -1.13067,-0.72696 -2.28408,-1.40911 -3.44908,-2.03182 -4.65284,-18.31003 -15.96087,-34.96799 -33.1053,-45.99099 z"
       style="opacity:0.4;fill:#f9fcfc;fill-opacity:1;stroke:none" />
    <path
       transform="matrix(0.79927291,0,0,0.79927291,182.45286,229.31408)"
       d="m 384.66608,174.30386 c 0,60.53127 -48.12053,109.60155 -107.48023,109.60155 -59.35969,0 -107.48023,-49.07028 -107.48023,-109.60155 0,-60.53126 48.12054,-109.601544 107.48023,-109.601544 59.3597,0 107.48023,49.070284 107.48023,109.601544 z"
       sodipodi:ry="109.60155"
       sodipodi:rx="107.48023"
       sodipodi:cy="174.30386"
       sodipodi:cx="277.18585"
       id="path4293"
       style="opacity:0.5;fill:#ffdd00;fill-opacity:1;stroke:none"
       sodipodi:type="arc" />
    <path
       id="path5212"
       d="m 220,193.51207 c -29.02034,0 -54.28246,15.99494 -67.51429,39.63847 -11.2969,-8.67052 -25.42518,-13.85736 -40.76639,-13.85736 -37.02014,0 -67.0309,30.01076 -67.0309,67.0309 0,17.94712 7.0444,34.25355 18.53018,46.28517 -3.62449,8.78337 -5.63962,18.38813 -5.63962,28.48006 0,41.29172 33.47352,74.76524 74.76524,74.76524 8.35594,0 16.38478,-1.37848 23.88781,-3.90744 17.95298,31.59063 51.90532,52.89156 90.83814,52.89156 30.15385,0 57.31634,-12.7919 76.37655,-33.23347 13.38361,12.6063 31.40312,20.34291 51.23997,20.34291 41.2917,0 74.76523,-33.47352 74.76523,-74.76523 0,-34.73717 -23.68665,-63.95202 -55.79194,-72.34826 1.08791,-4.05662 1.65161,-8.32948 1.65161,-12.72942 0,-27.05318 -21.93094,-48.98412 -48.98413,-48.98412 -7.45473,0 -14.50116,1.69399 -20.8263,4.67284 0.14617,-1.54126 0.20141,-3.09332 0.20141,-4.67284 0,-27.05318 -21.93093,-48.98411 -48.98411,-48.98411 -1.34403,0 -2.67135,0.0549 -3.98802,0.16113 C 258.91446,201.41306 240.38228,193.51207 220,193.51207 z"
       style="opacity:0.8;fill:#ffffff;fill-opacity:1;stroke:none" />
    <path
       style="fill:#00892c;fill-rule:evenodd;stroke:none"
       d="m 231.79429,1056.6555 9.44182,-3.2942 c -14.29852,-40.1801 -25.37244,-81.54919 -31.45498,-123.70062 -5.03044,-34.83651 -6.57429,-70.20348 -4.25225,-105.34706 2.05183,-31.11791 7.14367,-62.04854 14.35116,-92.48484 6.78027,-28.63318 15.40746,-56.85788 24.41554,-84.97901 8.80096,-27.46867 17.94949,-54.88519 25.85642,-82.70141 0,0 0,-10e-6 1e-5,-2e-5 7.98787,-28.09691 14.65159,-56.63755 18.57361,-85.60655 4.19963,-31.02896 5.17039,-62.49304 2.55124,-93.65933 -3.05749,-36.36617 -10.8996,-72.216 -22.13043,-106.87586 10.79403,34.79837 18.17048,70.7011 20.75987,106.98239 2.22014,31.09142 0.85459,62.39587 -3.70821,93.19459 -4.25924,28.7578 -11.24939,57.0598 -19.55332,84.94408 -8.22325,27.60958 -17.69881,54.85475 -26.85568,82.24698 -9.37705,28.04512 -18.39469,56.28119 -25.59944,85.06821 -7.65971,30.60603 -13.1996,61.81745 -15.68441,93.36227 -2.80151,35.62583 -1.69335,71.54869 2.97389,107.00098 5.6489,42.87812 16.33735,84.9856 30.31516,125.8494 z"
       id="path3186"
       inkscape:path-effect="#path-effect3188"
       inkscape:original-d="M 236.5152,1055.0084 C 110.11132,692.71769 366.78103,585.90985 269.14643,278.0066"
       sodipodi:nodetypes="cc" />
    <path
       inkscape:transform-center-y="-21.148724"
       inkscape:transform-center-x="-12.990056"
       id="path4291"
       d="m 153.51917,660.59282 c 1.43229,6.60306 3.85805,13.43612 7.0126,20.0016 3.7463,-0.26655 7.52553,-0.28287 11.26248,-0.0391 -3.33396,0.73434 -6.63623,1.683 -9.85272,2.84073 5.82344,11.23607 13.7144,21.45859 22.30812,28.07868 14.87297,11.45722 21.96383,4.83014 35.75035,-1.77925 1.98823,-14.57631 6.54082,-22.18748 -7.72251,-33.17508 -14.87297,-11.45722 -38.19626,-17.60911 -58.75003,-15.93827 -0.006,7.8e-4 -0.002,0.009 -0.009,0.01 z"
       style="fill:#00892c;fill-opacity:1;stroke:none" />
    <path
       style="opacity:0.15;fill:url(#linearGradient5913);fill-opacity:1;stroke:none"
       d="m 318.5,566.60176 c -4.53141,0 -7.90625,6.1778 -7.90625,11.9062 0,5.7284 3.68734,10.375 8.21875,10.375 4.53141,0 8.21875,-4.6466 8.21875,-10.375 0,-5.7284 -3.99983,-11.9062 -8.53125,-11.9062 z m 90.09375,18.75 c -6.27565,0 -10.9375,8.5666 -10.9375,16.5 0,7.9333 5.09936,14.37497 11.375,14.37497 6.27565,0 11.375,-6.44167 11.375,-14.37497 0,-7.9334 -5.53686,-16.5 -11.8125,-16.5 z m -147.75,15.2187 c -9.29658,0 -16.1875,12.68523 -16.1875,24.43752 0,11.75229 7.51591,21.28125 16.8125,21.28125 9.29658,0 16.84375,-9.52896 16.84375,-21.28125 0,-11.75229 -8.17216,-24.43752 -17.46875,-24.43752 z m -57.5,21.87502 c -4.53141,0 -7.875,6.20912 -7.875,11.9375 0,5.72839 3.65609,10.375 8.1875,10.375 4.53141,0 8.21875,-4.64661 8.21875,-10.375 0,-5.72838 -3.99983,-11.9375 -8.53125,-11.9375 z M 460.25,640.91423 c -7.57034,0 -13.1875,10.3362 -13.1875,19.90625 0,9.57004 6.11717,17.34375 13.6875,17.34375 7.57034,0 13.71875,-7.77371 13.71875,-17.34375 0,-9.57005 -6.64842,-19.90625 -14.21875,-19.90625 z m -208.9375,36.75 c -7.57034,0 -13.1875,10.36745 -13.1875,19.9375 0,9.57004 6.14842,17.3125 13.71875,17.3125 7.57034,0 13.6875,-7.74246 13.6875,-17.3125 0,-9.57005 -6.64842,-19.9375 -14.21875,-19.9375 z m 88.03125,1.9375 c -4.53141,0 -7.90625,6.20912 -7.90625,11.9375 0,5.72839 3.68734,10.375 8.21875,10.375 4.53141,0 8.21875,-4.64661 8.21875,-10.375 0,-5.72838 -3.99983,-11.9375 -8.53125,-11.9375 z M 404,709.69548 c -9.29658,0 -16.1875,12.68521 -16.1875,24.4375 0,11.75229 7.54716,21.28125 16.84375,21.28125 9.29658,0 16.8125,-9.52896 16.8125,-21.28125 0,-11.75229 -8.17216,-24.4375 -17.46875,-24.4375 z m 81.0625,2.875 c -1.17285,-0.0258 -2.32703,0.12631 -3.4375,0.46875 -8.88379,2.7395 -11.71315,16.9258 -8.25,28.15625 3.46314,11.23045 13.45997,18.1145 22.34375,15.375 8.88379,-2.7395 13.27565,-14.08205 9.8125,-25.3125 -3.03026,-9.82664 -12.25883,-18.50662 -20.46875,-18.6875 z M 280.75,730.75798 c -9.29658,0 -16.1875,9.24171 -16.1875,17.78125 0,8.53954 7.54716,15.46875 16.84375,15.46875 9.29658,0 16.8125,-6.92921 16.8125,-15.46875 0,-8.53954 -8.17216,-17.78125 -17.46875,-17.78125 z m 177.53125,67.65625 c -0.87089,0.0467 -1.72965,0.21192 -2.5625,0.46875 -8.88379,2.7395 -11.7444,16.89455 -8.28125,28.125 3.46314,11.23045 13.49122,18.1145 22.375,15.375 8.88379,-2.7395 13.27565,-14.0508 9.8125,-25.28125 -3.13848,-10.17759 -12.92511,-19.13853 -21.34375,-18.6875 z m -190.65625,3.9375 c -6.27565,0 -10.9375,8.59789 -10.9375,16.53125 0,7.93336 5.09936,14.34375 11.375,14.34375 6.27565,0 11.34375,-6.41039 11.34375,-14.34375 0,-7.93336 -5.50561,-16.53125 -11.78125,-16.53125 z m 112.03125,37.6875 c -7.57034,0 -13.1875,10.3362 -13.1875,19.90625 0,9.57004 6.11717,17.34375 13.6875,17.34375 7.57034,0 13.71875,-7.77371 13.71875,-17.34375 0,-9.57005 -6.64842,-19.90625 -14.21875,-19.90625 z m -156.8125,1.25 c -1.17285,-0.0258 -2.29578,0.12631 -3.40625,0.46875 -8.88379,2.7395 -11.7444,16.9258 -8.28125,28.15625 3.46314,11.23045 13.45997,18.1145 22.34375,15.375 8.88379,-2.7395 13.27565,-14.08205 9.8125,-25.3125 -3.03026,-9.82664 -12.25883,-18.50662 -20.46875,-18.6875 z m 84.25,26.4375 c -9.29658,0 -16.1875,12.71646 -16.1875,24.46875 0,11.75229 7.54716,21.28125 16.84375,21.28125 9.29658,0 16.8125,-9.52896 16.8125,-21.28125 0,-11.75229 -8.17216,-24.46875 -17.46875,-24.46875 z m 189.59375,31.6875 c -9.29658,0 -16.1875,9.24171 -16.1875,17.78125 0,8.53954 7.54716,15.46875 16.84375,15.46875 9.29658,0 16.8125,-6.92921 16.8125,-15.46875 0,-8.53954 -8.17216,-17.78125 -17.46875,-17.78125 z m -304.75,14.5625 c -9.29658,0 -16.1875,9.24171 -16.1875,17.78125 0,8.53954 7.51591,15.43755 16.8125,15.43755 9.29658,0 16.84375,-6.89801 16.84375,-15.43755 0,-8.53954 -8.17216,-17.78125 -17.46875,-17.78125 z m 87.84375,43.5625 c -6.27565,0 -10.9375,8.5979 -10.9375,16.5313 0,7.9334 5.09936,14.3437 11.375,14.3437 6.27565,0 11.34375,-6.4103 11.34375,-14.3437 0,-7.9334 -5.50561,-16.5313 -11.78125,-16.5313 z"
       id="path4059" />
    <path
       sodipodi:nodetypes="csc"
       inkscape:original-d="m 222.3218,1032.8688 c 5.27867,-15.1294 -70.09532,-30.0576 -54.07012,-98.79964 C 247.86225,592.57027 36.638425,355.57315 122.79404,33.035893"
       inkscape:path-effect="#path-effect3184"
       id="path3182"
       d="m 217.6009,1031.2217 9.4418,3.2942 c 0.64087,-1.9411 0.69111,-3.9283 0.17967,-5.7931 -0.59961,-1.9652 -1.47688,-3.5082 -2.42011,-4.6456 -2.52648,-3.1651 -5.40495,-5.417 -7.98221,-7.2865 -1e-5,0 -3e-5,0 -4e-5,0 -3.59059,-2.6914 -7.20179,-5.1518 -10.65151,-7.6362 -4.0858,-2.9465 -8.05188,-5.954 -11.7524,-9.17668 -1e-5,-10e-6 -3e-5,-2e-5 -4e-5,-3e-5 -4.0227,-3.5058 -7.7673,-7.25553 -11.00952,-11.33937 -3.43457,-4.32507 -6.34399,-9.03578 -8.46275,-14.04251 -2.34882,-5.51947 -3.76177,-11.46813 -4.23997,-17.49806 -1e-5,-10e-6 -1e-5,-2e-5 -1e-5,-2e-5 -0.58894,-7.27241 0.19347,-14.72287 1.84428,-22.02709 9.31696,-40.85446 14.96336,-82.52176 16.87589,-124.3441 0,-2e-5 0,-4e-5 0,-6e-5 1.77575,-38.87245 0.34215,-77.82406 -3.57457,-116.46848 -7.49105,-73.83736 -24.03814,-146.2356 -40.66216,-218.29408 -8.16705,-35.412 -16.31681,-70.81188 -23.26481,-106.44608 0,-2e-5 -10e-6,-3e-5 -10e-6,-5e-5 -6.95331,-35.66368 -12.69321,-71.57963 -16.06511,-107.7467 -3.45004,-37.00467 -4.38807,-74.27759 -2.00588,-111.38264 2.54107,-39.58546 8.88196,-78.944645 18.9426,-117.352656 -10.43183,38.308857 -17.16303,77.640696 -20.09249,117.273246 -2.745524,37.1488 -2.16998,74.52147 0.9314,111.6586 3.03111,36.29507 8.43523,72.36129 15.0583,108.16397 0,2e-5 0,4e-5 1e-5,6e-5 6.61701,35.77227 14.43353,71.29763 22.25843,106.78803 15.91613,72.21245 31.73151,144.58683 38.4389,217.96144 3.5145,38.40371 4.56297,77.02645 2.43071,115.46094 0,10e-6 0,2e-5 0,3e-5 -2.29196,41.34946 -8.27409,82.47647 -17.86403,122.72537 -1.9124,7.9806 -2.84246,16.31559 -2.27803,24.69539 10e-6,2e-5 10e-6,4e-5 10e-6,6e-5 0.48008,6.97473 2.0572,13.89071 4.74259,20.40022 2.43868,5.88302 5.72369,11.34802 9.59225,16.29771 3.64307,4.66027 7.74712,8.86864 12.08537,12.70864 10e-6,0 2e-5,0 2e-5,0 3.99103,3.535 8.1578,6.7667 12.35004,9.8452 2e-5,0 3e-5,0 4e-5,10e-5 3.56371,2.6201 7.10214,5.0787 10.42585,7.6254 0,0 1e-5,0 2e-5,0 2.47486,1.9578 4.71023,3.6143 6.03781,5.4809 0.40639,0.6247 0.70482,1.0207 0.68321,1.1984 -0.009,-0 0.001,0.022 0.006,-0.098 z"
       style="fill:#37a42c;fill-rule:evenodd;stroke:none" />
    <path
       id="path3983"
       d="m 449.39345,730.27873 c -8.94103,0.18601 -23.13975,2.78426 -31.95672,7.98918 -6.44045,-1.53263 -12.96673,-2.2808 -17.724,-2.2808 -0.87844,0 1.57903,12.78805 -1.63097,11.41675 -9.54613,-0.80845 -7.33934,7.40531 -7.33934,13.8632 0,1.12626 -18.93855,-1.4485 -20.38706,0 -1.24211,1.24211 -1.5647,2.6306 -1.43984,4.07742 -2.02634,3.15644 -3.59169,5.74355 -4.26853,7.09724 -0.75545,1.51088 0.50733,3.75293 1.84757,6.11612 -4.141,1.0346 -8.98563,1.25369 -6.74047,7.98917 0.64196,1.92586 1.82706,3.76313 3.21096,5.46629 -2.04647,2.19788 -3.95753,4.68615 -4.84192,7.33934 -3.06018,9.18052 7.05869,6.24321 10.60127,9.78579 3.842,3.842 -4.73751,10.75666 0,15.49416 1.44851,1.44851 20.38705,-1.12626 20.38705,0 0,6.45789 -2.20679,14.67166 7.33935,13.8632 3.21,-1.3713 0.75252,11.41675 1.63096,11.41675 0.32949,0 0.67351,0.007 1.01936,0 8.94103,-0.186 23.13974,-2.78425 31.95671,-7.98917 6.44045,1.53262 12.96673,2.2808 17.72401,2.2808 0.87843,0 -1.57904,-12.78806 1.63096,-11.41675 9.54614,0.80845 7.33934,-7.40531 7.33934,-13.8632 0,-1.12627 18.93855,1.4485 20.38706,0 1.23986,-1.23986 1.56285,-2.63342 1.43984,-4.07742 2.02634,-3.15645 3.59169,-5.74355 4.26854,-7.09725 0.75544,-1.51088 -0.50734,-3.75292 -1.84758,-6.11611 4.141,-1.0346 8.98563,-1.2537 6.74047,-7.98918 -0.64195,-1.92586 -1.82706,-3.76312 -3.21096,-5.46628 2.04647,-2.19789 3.95753,-4.68616 4.84192,-7.33934 3.06018,-9.18052 -7.05869,-6.24321 -10.60127,-9.78579 -3.842,-3.84201 4.73751,-10.75666 0,-15.49416 -1.4485,-1.44851 -20.38705,1.12626 -20.38705,0 0,-6.45789 2.20679,-14.67166 -7.33934,-13.86321 -3.21001,1.3713 -0.75253,-11.41675 -1.63097,-11.41675 -0.32949,0 -0.67351,-0.007 -1.01935,0 z"
       style="opacity:0.2;fill:#f3c300;stroke:none" />
    <path
       style="opacity:0.2;fill:#00c4cc;stroke:none"
       d="m 302.77319,572.59372 c 11.01723,0.2292 28.51305,3.43079 39.37742,9.84435 7.93598,-1.88852 15.97774,-2.81043 21.8397,-2.81043 1.08242,0 -1.9457,15.75758 2.00969,14.06784 11.76286,-0.99618 9.04362,9.12491 9.04362,17.08239 0,1.38779 23.33629,-1.78486 25.12116,0 1.53053,1.53054 1.92804,3.24146 1.77418,5.02424 2.49688,3.88941 4.42572,7.07726 5.25973,8.7453 0.93087,1.86172 -0.62514,4.6244 -2.2766,7.53634 5.10259,1.27485 11.0722,1.54482 8.30569,9.84435 -0.79103,2.37307 -2.25133,4.63697 -3.95659,6.73561 2.52169,2.70826 4.87652,5.77434 5.96627,9.04362 3.77079,11.31234 -8.69779,7.69295 -13.063,12.05815 -4.73416,4.73416 5.83762,13.25448 0,19.09208 -1.78487,1.78487 -25.12114,-1.38779 -25.12114,0 0,7.95748 2.71923,18.07857 -9.04363,17.08238 -3.95539,-1.68972 -0.92726,14.06785 -2.00969,14.06785 -0.406,0 -0.8299,0.009 -1.25606,0 -11.01723,-0.2292 -28.51303,-3.43079 -39.3774,-9.84435 -7.93599,1.88852 -15.97774,2.81043 -21.83971,2.81043 -1.08242,0 1.9457,-15.75758 -2.00969,-14.06784 -11.76286,0.99618 -9.04361,-9.12491 -9.04361,-17.08239 0,-1.38779 -23.33629,1.78486 -25.12116,0 -1.52777,-1.52777 -1.92576,-3.24492 -1.77418,-5.02424 -2.49689,-3.88941 -4.42573,-7.07726 -5.25975,-8.7453 -0.93085,-1.86172 0.62516,-4.6244 2.27661,-7.53634 -5.10259,-1.27485 -11.07219,-1.54482 -8.30568,-9.84435 0.79102,-2.37307 2.25132,-4.63697 3.95658,-6.73561 -2.52168,-2.70826 -4.87651,-5.77434 -5.96627,-9.04362 -3.77078,-11.31234 8.69779,-7.69295 13.063,-12.05815 4.73416,-4.73416 -5.83761,-13.25448 0,-19.09208 1.78486,-1.78487 25.12115,1.38779 25.12115,0 0,-7.95748 -2.71924,-18.07857 9.04361,-17.08238 3.9554,1.68972 0.92728,-14.06785 2.0097,-14.06785 0.406,0 0.82991,-0.009 1.25605,0 z"
       id="path3985" />
    <path
       sodipodi:nodetypes="cc"
       inkscape:original-d="M 207.82493,1002.0417 C 127.76687,688.30381 439.61016,753.63755 341.97556,445.7343"
       inkscape:path-effect="#path-effect4001"
       id="path3999"
       d="m 202.98017,1003.278 9.68952,-2.4726 c -8.62876,-32.76343 -14.43109,-66.36214 -13.90531,-100.01859 0.20118,-13.24705 1.40221,-26.47386 3.83284,-39.4673 2.16322,-11.57155 5.30536,-22.96607 9.43879,-33.99386 1e-5,-10e-6 1e-5,-2e-5 1e-5,-3e-5 7.49896,-20.04161 18.41472,-38.80819 31.19254,-56.19825 12.25252,-16.67272 26.18076,-32.18279 40.09643,-47.7618 13.75917,-15.39339 27.54829,-30.93961 39.59576,-47.87333 10e-6,-1e-5 10e-6,-2e-5 2e-5,-3e-5 6.06783,-8.53126 11.67535,-17.40946 16.58502,-26.67301 5.08733,-9.59971 9.40877,-19.60725 12.80969,-29.92061 3.67184,-11.13767 6.2637,-22.61204 7.82239,-34.21069 0,0 0,-10e-6 0,-10e-6 1.76131,-13.1103 2.21802,-26.36238 1.65584,-39.5447 -1.44975,-33.92407 -9.32192,-67.22825 -19.81815,-99.40889 9.96576,32.34885 17.27194,65.73437 18.14964,99.46629 0.3421,13.10384 -0.32699,26.23222 -2.28221,39.15973 0,10e-6 -10e-6,2e-5 -10e-6,3e-5 -1.72912,11.43562 -4.47254,22.71054 -8.26655,33.61029 0,10e-6 0,10e-6 0,2e-5 -3.51252,10.09348 -7.92648,19.86526 -13.08237,29.22106 -4.97581,9.02995 -10.64171,17.67769 -16.76233,25.99328 -1e-5,1e-5 -1e-5,1e-5 -1e-5,2e-5 -12.14936,16.51107 -26.07682,31.68737 -40.07381,46.84943 -14.16912,15.3382 -28.45128,30.73642 -41.22095,47.50796 -13.3353,17.51233 -24.85134,36.60414 -32.99029,57.25071 -1e-5,0 -1e-5,10e-6 -1e-5,10e-6 -4.46756,11.35111 -7.91913,23.10044 -10.35771,35.05792 -2.73594,13.42334 -4.20851,27.07853 -4.63665,40.74138 -1.07223,34.67559 4.25677,69.22049 12.52787,102.68557 z"
       style="fill:#00b377;fill-rule:evenodd;stroke:none" />
    <path
       inkscape:transform-center-y="16.552075"
       inkscape:transform-center-x="-15.448602"
       id="path4017"
       d="m 161.96199,215.79756 c -5.28897,-0.20356 -10.94653,0.30161 -16.54348,1.41193 -0.52974,2.89405 -1.25573,5.7642 -2.17074,8.55147 0.0942,-2.67265 0.0199,-5.36313 -0.23,-8.02938 -9.66153,2.22243 -18.95815,6.21129 -25.65922,11.43714 -11.59741,9.04427 -7.95545,15.71823 -5.6351,27.46813 10.66925,4.35619 15.55366,9.29687 26.67568,0.62335 11.59741,-9.04426 20.82115,-25.53556 23.5694,-41.45424 3.9e-4,-0.003 -0.007,-0.004 -0.007,-0.009 z"
       style="fill:#37a42c;fill-opacity:1;stroke:none" />
    <path
       style="opacity:0.2;fill:#00c4cc;fill-opacity:1;stroke:none"
       d="m -399.04435,-40.978797 c -2.91936,4.410006 -5.63631,9.037633 -8.13377,13.803413 21.1018,5.427259 41.54118,14.361011 59.02599,25.776236 -13.54367,-15.713476 -31.22776,-29.656521 -50.86187,-39.587092 -0.008,-0.0044 -0.0208,0.0087 -0.0303,0.0074 z"
       id="path4032" />
    <path
       style="fill:#37a42c;fill-opacity:1;stroke:none"
       d="m 78.405406,464.09072 c 6.729353,-0.259 13.927666,0.38375 21.048873,1.79644 0.674011,3.68221 1.597711,7.33401 2.761911,10.88035 -0.1199,-3.40051 -0.0253,-6.82369 0.29263,-10.21607 12.29273,2.82768 24.12115,7.90285 32.64717,14.5519 14.75582,11.50734 10.122,19.99887 7.16974,34.9487 -13.57486,5.54253 -19.78949,11.82874 -33.94044,0.79311 -14.755804,-11.50734 -26.491509,-32.48983 -29.98821,-52.74375 -4.92e-4,-0.004 0.0084,-0.006 0.0084,-0.0113 z"
       id="path4039"
       inkscape:transform-center-x="19.655824"
       inkscape:transform-center-y="21.059811" />
    <path
       inkscape:transform-center-y="14.63636"
       inkscape:transform-center-x="-22.557853"
       id="path4041"
       d="m 251.06478,561.55302 c -7.10413,1.39105 -14.47617,3.84131 -21.57739,7.07802 0.2043,4.01875 0.13986,8.06736 -0.20225,12.06503 -0.71441,-3.5872 -1.65889,-7.1451 -2.82929,-10.61566 -12.16212,5.99432 -23.28341,14.22527 -30.56105,23.28716 -12.59528,15.68321 -5.65021,23.42246 1.13069,38.33366 15.57073,2.44581 23.62496,7.48748 35.70394,-7.55283 12.59527,-15.6832 19.69078,-40.53326 18.34669,-62.58626 -4.9e-4,-0.004 -0.01,-0.003 -0.0114,-0.01 z"
       style="fill:#37a42c;fill-opacity:1;stroke:none" />
    <path
       style="fill:#00b377;fill-opacity:1;stroke:none"
       d="m 412.45006,556.77031 c -5.28897,-0.20356 -10.94653,0.30161 -16.54348,1.41193 -0.52974,2.89405 -1.25573,5.7642 -2.17074,8.55147 0.0942,-2.67265 0.0199,-5.36312 -0.22999,-8.02938 -9.66154,2.22243 -18.95815,6.21129 -25.65923,11.43715 -11.59741,9.04426 -7.95544,15.71822 -5.6351,27.46812 10.66925,4.35619 15.55367,9.29687 26.67568,0.62335 11.59741,-9.04426 20.82115,-25.53556 23.56941,-41.45424 3.8e-4,-0.003 -0.007,-0.004 -0.007,-0.009 z"
       id="path4283"
       inkscape:transform-center-x="-15.448606"
       inkscape:transform-center-y="16.552074" />
    <path
       inkscape:transform-center-y="6.6518705"
       inkscape:transform-center-x="19.234379"
       id="path4285"
       d="m 260.25197,636.85031 c 5.45863,2.15528 10.97485,5.19444 16.1593,8.82069 -0.75475,3.17372 -1.29966,6.41081 -1.61574,9.64819 1.09789,-2.75453 2.37484,-5.45185 3.81907,-8.04624 8.81296,6.57004 16.46672,14.76985 20.93388,23.06599 7.73125,14.35795 1.0547,19.50493 -6.54731,30.39359 -12.77344,-0.34347 -19.93694,2.48957 -27.35128,-11.2798 -7.73124,-14.35795 -9.72788,-35.21382 -5.40832,-52.59683 10e-4,-0.003 0.009,-10e-4 0.011,-0.007 z"
       style="fill:#00b377;fill-opacity:1;stroke:none" />
    <path
       style="fill:#00b377;fill-opacity:1;stroke:none"
       d="m 270.17358,829.11067 c -0.66218,6.79629 -2.28944,13.93965 -4.67544,20.89956 -3.77117,0.17044 -7.54611,0.59591 -11.24861,1.27749 3.41389,0.34752 6.82107,0.91364 10.1669,1.69987 -4.50744,11.96079 -11.19684,23.14583 -19.00676,30.79651 -13.51642,13.24091 -21.36623,7.41702 -35.89864,2.39373 -3.67983,-14.40076 -9.10993,-21.50936 3.85242,-34.20748 13.51645,-13.2409 36.08624,-22.14375 56.8006,-22.86953 0.003,1.6e-4 0.003,0.009 0.0115,0.01 z"
       id="path4287"
       inkscape:transform-center-x="16.895482"
       inkscape:transform-center-y="-20.873929" />
    <path
       style="fill:#00892c;fill-opacity:1;stroke:none"
       d="m 339.62176,393.75186 c -4.62419,-0.17797 -9.57062,0.26369 -14.46408,1.23445 -0.46315,2.53029 -1.09789,5.03968 -1.89788,7.47661 0.0824,-2.33671 0.0173,-4.68902 -0.20109,-7.02014 -8.44714,1.94309 -16.57523,5.43057 -22.43402,9.99957 -10.13969,7.90745 -6.9555,13.74254 -4.9268,24.01556 9.32819,3.80863 13.59867,8.1283 23.32271,0.54499 10.13968,-7.90746 18.20406,-22.32589 20.60687,-36.2437 3.5e-4,-0.003 -0.006,-0.003 -0.006,-0.008 z"
       id="path4289"
       inkscape:transform-center-x="-13.506806"
       inkscape:transform-center-y="14.471582" />
    <path
       id="path5915"
       d="m 891.15625,598.69551 c -4.53141,0 -7.90625,6.1778 -7.90625,11.9062 0,5.7284 3.68734,10.375 8.21875,10.375 4.53141,0 8.21875,-4.6466 8.21875,-10.375 0,-5.7284 -3.99983,-11.9062 -8.53125,-11.9062 z m 90.09375,18.75 c -6.27565,0 -10.9375,8.5666 -10.9375,16.5 0,7.9333 5.09936,14.37497 11.375,14.37497 6.27565,0 11.375,-6.44167 11.375,-14.37497 0,-7.9334 -5.53686,-16.5 -11.8125,-16.5 z m -147.75,15.2187 c -9.29658,0 -16.1875,12.68523 -16.1875,24.43752 0,11.75229 7.51591,21.28125 16.8125,21.28125 9.29658,0 16.84375,-9.52896 16.84375,-21.28125 0,-11.75229 -8.17216,-24.43752 -17.46875,-24.43752 z M 776,654.53923 c -4.53141,0 -7.875,6.20912 -7.875,11.9375 0,5.72839 3.65609,10.375 8.1875,10.375 4.53141,0 8.21875,-4.64661 8.21875,-10.375 0,-5.72838 -3.99983,-11.9375 -8.53125,-11.9375 z m 256.9063,18.46875 c -7.5704,0 -13.1876,10.3362 -13.1876,19.90625 0,9.57004 6.1172,17.34375 13.6876,17.34375 7.5703,0 13.7187,-7.77371 13.7187,-17.34375 0,-9.57005 -6.6484,-19.90625 -14.2187,-19.90625 z m -208.93755,36.75 c -7.57034,0 -13.1875,10.36745 -13.1875,19.9375 0,9.57004 6.14842,17.3125 13.71875,17.3125 7.57034,0 13.6875,-7.74246 13.6875,-17.3125 0,-9.57005 -6.64842,-19.9375 -14.21875,-19.9375 z M 912,711.69548 c -4.53141,0 -7.90625,6.20912 -7.90625,11.9375 0,5.72839 3.68734,10.375 8.21875,10.375 4.53141,0 8.21875,-4.64661 8.21875,-10.375 0,-5.72838 -3.99983,-11.9375 -8.53125,-11.9375 z m 64.65625,30.09375 c -9.29658,0 -16.1875,12.68521 -16.1875,24.4375 0,11.75229 7.54716,21.28125 16.84375,21.28125 9.29658,0 16.8125,-9.52896 16.8125,-21.28125 0,-11.75229 -8.17216,-24.4375 -17.46875,-24.4375 z m 81.06255,2.875 c -1.1729,-0.0258 -2.3271,0.12631 -3.4375,0.46875 -8.8838,2.7395 -11.7132,16.9258 -8.25,28.15625 3.4631,11.23045 13.4599,18.1145 22.3437,15.375 8.8838,-2.7395 13.2757,-14.08205 9.8125,-25.3125 -3.0303,-9.82664 -12.2588,-18.50662 -20.4687,-18.6875 z m -204.31255,18.1875 c -9.29658,0 -16.1875,9.24171 -16.1875,17.78125 0,8.53954 7.54716,15.46875 16.84375,15.46875 9.29658,0 16.8125,-6.92921 16.8125,-15.46875 0,-8.53954 -8.17216,-17.78125 -17.46875,-17.78125 z m 177.53125,67.65625 c -0.8709,0.0467 -1.7296,0.21192 -2.5625,0.46875 -8.8838,2.7395 -11.7444,16.89455 -8.2813,28.125 3.4632,11.23045 13.4913,18.1145 22.3751,15.375 8.8837,-2.7395 13.2756,-14.0508 9.8125,-25.28125 -3.1385,-10.17759 -12.9252,-19.13853 -21.3438,-18.6875 z m -190.65625,3.9375 c -6.27565,0 -10.9375,8.59789 -10.9375,16.53125 0,7.93336 5.09936,14.34375 11.375,14.34375 6.27565,0 11.34375,-6.41039 11.34375,-14.34375 0,-7.93336 -5.50561,-16.53125 -11.78125,-16.53125 z m 112.03125,37.6875 c -7.57034,0 -13.1875,10.3362 -13.1875,19.90625 0,9.57004 6.11717,17.34375 13.6875,17.34375 7.57034,0 13.71875,-7.77371 13.71875,-17.34375 0,-9.57005 -6.64842,-19.90625 -14.21875,-19.90625 z m -156.8125,1.25 c -1.17285,-0.0258 -2.29578,0.12631 -3.40625,0.46875 -8.88379,2.7395 -11.7444,16.9258 -8.28125,28.15625 3.46314,11.23045 13.45997,18.1145 22.34375,15.375 8.88379,-2.7395 13.27565,-14.08205 9.8125,-25.3125 -3.03026,-9.82664 -12.25883,-18.50662 -20.46875,-18.6875 z m 84.25,26.4375 c -9.29658,0 -16.1875,12.71646 -16.1875,24.46875 0,11.75229 7.54716,21.28125 16.84375,21.28125 9.29658,0 16.8125,-9.52896 16.8125,-21.28125 0,-11.75229 -8.17216,-24.46875 -17.46875,-24.46875 z m 189.5938,31.6875 c -9.2966,0 -16.1875,9.24171 -16.1875,17.78125 0,8.53954 7.5471,15.46875 16.8437,15.46875 9.2966,0 16.8125,-6.92921 16.8125,-15.46875 0,-8.53954 -8.1722,-17.78125 -17.4687,-17.78125 z m -304.75005,14.5625 c -9.29658,0 -16.1875,9.24171 -16.1875,17.78125 0,8.53954 7.51591,15.43755 16.8125,15.43755 9.29658,0 16.84375,-6.89801 16.84375,-15.43755 0,-8.53954 -8.17216,-17.78125 -17.46875,-17.78125 z m 87.84375,43.5625 c -6.27565,0 -10.9375,8.5979 -10.9375,16.53132 0,7.9334 5.09936,14.3437 11.375,14.3437 6.27565,0 11.34375,-6.4103 11.34375,-14.3437 0,-7.93342 -5.50561,-16.53132 -11.78125,-16.53132 z"
       style="opacity:0.15;fill:url(#linearGradient5917);fill-opacity:1;stroke:none" />
    <path
       style="opacity:0.33999999;fill:#37a42c;stroke:none"
       d="m 465.20238,530.57997 c -0.68531,0 1.22239,9.97426 -1.28187,8.90445 -7.44736,-0.63071 -5.72267,5.78919 -5.72267,10.82726 0,0.87866 -14.77894,-1.13004 -15.90898,0 -3.69594,3.69594 2.99732,9.08894 0,12.08626 -2.76372,2.76372 -10.6509,0.48334 -8.26352,7.64547 0.68996,2.06987 2.18042,4.00799 3.77696,5.72266 -1.07965,1.3287 -2.01716,2.75521 -2.51797,4.25766 -1.75156,5.25465 2.03426,5.4191 5.26484,6.22625 -1.04558,1.84362 -2.03145,3.60544 -1.44211,4.78414 0.52805,1.05608 1.76119,3.07705 3.34203,5.53953 -0.096,1.12653 0.15437,2.21453 1.12164,3.1818 1.13005,1.13004 15.90899,-0.87864 15.90899,0 0,5.03808 -1.72471,11.43508 5.72266,10.80437 2.50425,-1.06981 0.57368,8.90445 1.25899,8.90445 3.71136,0 8.80145,-0.5898 13.82594,-1.78546 6.87851,4.06058 17.97549,6.10403 24.95078,6.24914 0.26981,0.006 0.52123,0 0.77828,0 0.68532,0 -1.22238,-9.97426 1.28188,-8.90446 7.44736,0.63072 5.72266,-5.78918 5.72266,-10.82726 0,-0.87865 14.77893,1.13004 15.90898,0 3.69595,-3.69594 -2.99731,-9.08894 0,-12.08625 2.76372,-2.76372 10.6509,-0.46045 8.26352,-7.62258 -0.68995,-2.06987 -2.18041,-4.03089 -3.77696,-5.74555 1.07965,-1.3287 2.01716,-2.75522 2.51797,-4.25766 0.0819,-0.24579 0.12478,-0.46259 0.18313,-0.68671 -4.31323,-1.02864 -8.58243,-2.51689 -11.88024,-4.46368 -5.02448,1.19566 -10.11457,1.78547 -13.82594,1.78547 -0.6853,0 1.24527,-9.97427 -1.25899,-8.90446 -7.44737,0.63071 -5.72265,-5.76629 -5.72265,-10.80437 0,-0.87864 -14.77895,1.13004 -15.90899,0 -0.96727,-0.96727 -1.21761,-2.05527 -1.12164,-3.1818 -1.58084,-2.46248 -2.81398,-4.48345 -3.34203,-5.53953 -0.58934,-1.1787 0.39653,-2.94052 1.44211,-4.78414 -3.07947,-0.7694 -6.63704,-0.97208 -5.44797,-5.53953 -4.68325,-1.11689 -9.43946,-1.70994 -13.07055,-1.78547 -0.26979,-0.006 -0.52123,0 -0.77828,0 z"
       id="path5971" />
    <path
       style="opacity:0.33999999;fill:#caf2f4;fill-opacity:1;stroke:none"
       d="m 207.9115,336.36218 c -10.18188,0 -19.25826,4.70815 -25.19247,12.0578 -4.32741,-1.70639 -9.03314,-2.65957 -13.96682,-2.65957 -21.05035,0 -38.11504,17.06469 -38.11504,38.11505 0,21.05035 17.06469,38.11504 38.11504,38.11504 14.99946,0 27.97871,-8.66352 34.19912,-21.26023 1.61753,0.24881 3.27301,0.37527 4.96017,0.37527 4.85753,0 9.45658,-1.08521 13.59154,-3.00221 0.34226,9.79164 8.38292,17.62168 18.25802,17.62168 10.09264,0 18.27433,-8.1817 18.27433,-18.27433 0,-10.09264 -8.18169,-18.27434 -18.27433,-18.27434 -0.40922,0 -0.82121,0.006 -1.22373,0.0327 1.12469,-3.28776 1.74586,-6.80625 1.74586,-10.47511 0,-17.87839 -14.4933,-32.37168 -32.37169,-32.37168 z m -99.72566,33.41593 C 99.24665,369.77811 92,377.02476 92,385.96395 c 0,8.9392 7.24665,16.18584 16.18584,16.18584 8.93919,0 16.18584,-7.24664 16.18584,-16.18584 0,-8.93919 -7.24665,-16.18584 -16.18584,-16.18584 z m 20.88496,41.76992 c -11.8228,0 -21.40708,9.58427 -21.40708,21.40707 0,11.8228 9.58428,21.40708 21.40708,21.40708 11.82279,0 21.40708,-9.58428 21.40708,-21.40708 0,-11.8228 -9.58429,-21.40707 -21.40708,-21.40707 z"
       id="path5978" />
    <path
       style="opacity:0.33999999;fill:#caf2f4;fill-opacity:1;stroke:none"
       d="m 190.2069,712.36218 c -11.71184,0 -22.17454,5.3198 -29.11962,13.67241 -3.60831,-3.26965 -8.39761,-5.25862 -13.65049,-5.25862 -11.2298,0 -20.33334,9.10354 -20.33334,20.33334 0,4.88002 1.7137,9.35731 4.57938,12.86171 -4.61749,5.67135 -7.38398,12.90994 -7.38398,20.79346 0,18.2 14.75402,32.95402 32.95403,32.95402 13.49738,0 25.09873,-8.12488 30.19324,-19.74174 0.9115,0.0657 1.83254,0.10955 2.76078,0.10955 20.91064,0 37.86207,-16.95142 37.86207,-37.86206 0,-20.91065 -16.95143,-37.86207 -37.86207,-37.86207 z M 80.126437,793.69551 c -11.229795,0 -20.333333,9.10354 -20.333333,20.33334 0,11.22979 9.103538,20.33333 20.333333,20.33333 11.229795,0 20.333333,-9.10354 20.333333,-20.33333 0,-11.2298 -9.103538,-20.33334 -20.333333,-20.33334 z"
       id="path5991" />
    <path
       id="path6001"
       d="m 450.55173,870.36218 c -10.36786,0 -19.62992,4.70933 -25.77803,12.10344 -3.19424,-2.89444 -7.43395,-4.65517 -12.08404,-4.65517 -9.94113,0 -18,8.05887 -18,18.00001 0,4.32002 1.51704,8.28352 4.05387,11.38578 -4.08761,5.02053 -6.53663,11.42847 -6.53663,18.40732 0,16.11148 13.06093,29.17241 29.17242,29.17241 11.9485,0 22.21854,-7.19252 26.72844,-17.47629 0.8069,0.0582 1.62225,0.097 2.44397,0.097 18.51106,0 33.51724,-15.00618 33.51724,-33.51724 0,-18.51106 -15.00618,-33.51724 -33.51724,-33.51724 z m -97.44828,72 c -9.94113,0 -18,8.05887 -18,18 0,9.94113 8.05887,18 18,18 9.94113,0 18,-8.05887 18,-18 0,-9.94113 -8.05887,-18 -18,-18 z"
       style="opacity:0.33999999;fill:#caf2f4;fill-opacity:1;stroke:none" />
    <path
       style="fill:#00892c;fill-rule:evenodd;stroke:none"
       d="m 227.85029,1032.3172 6.96698,-7.1736 c -11.81455,-11.1946 -22.33452,-23.7812 -31.01061,-37.55069 -7.9201,-12.55413 -14.31928,-26.11766 -19.44008,-40.1785 -5.05754,-13.88511 -8.89383,-28.27313 -12.19345,-42.8235 -3.38964,-14.9578 -6.21919,-30.09742 -9.2204,-45.24265 -3.13578,-15.83151 -6.46665,-31.66808 -10.61261,-47.31971 -4.41632,-16.6725 -9.77227,-33.11635 -16.42239,-49.03229 0,-10e-6 0,-10e-6 0,-10e-6 -7.34311,-17.5719 -16.25947,-34.4647 -26.6301,-50.38949 -12.024258,-18.46283 -25.959581,-35.61195 -41.19507,-51.45025 14.844226,16.20558 28.325851,33.65696 39.83541,52.31231 9.92703,16.08923 18.36265,33.07146 25.20931,50.64986 6.20236,15.92171 11.10244,32.32917 15.07572,48.94987 3.73039,15.60477 6.65099,31.40992 9.39404,47.27129 2.62306,15.17542 5.09035,30.42389 8.14456,45.62319 0,0 0,10e-6 0,10e-6 2.9699,14.79093 6.52723,29.54853 11.37963,43.98323 4.91937,14.6311 11.22323,28.8738 19.19094,42.23511 8.74498,14.64692 19.43187,28.10842 31.52812,40.13582 z"
       id="path6003"
       inkscape:path-effect="#path-effect6005"
       inkscape:original-d="M 231.33378,1028.7304 C 128.07707,928.44822 199.52717,801.17361 68.09256,661.15651"
       sodipodi:nodetypes="cc" />
    <path
       inkscape:transform-center-y="15.40359"
       inkscape:transform-center-x="14.376684"
       id="path6007"
       d="m 78.403165,759.8937 c 4.92199,-0.18944 10.186988,0.28068 15.395589,1.31395 0.492986,2.69325 1.1686,5.36425 2.02012,7.95812 -0.0877,-2.4872 -0.0185,-4.99099 0.214036,-7.47225 8.99116,2.06823 17.64272,5.78031 23.87883,10.64357 10.79272,8.41671 7.40344,14.6276 5.2441,25.56222 -9.92894,4.05392 -14.47445,8.65179 -24.82476,0.58009 -10.792702,-8.41671 -19.376444,-23.76374 -21.934005,-38.57789 -3.6e-4,-0.003 0.0061,-0.004 0.0061,-0.008 z"
       style="fill:#37a42c;fill-opacity:1;stroke:none" />
    <path
       id="path6021"
       d="m 199.69911,198.36218 c -5.3498,0 -10.11875,-2.47377 -13.23672,-6.33545 -2.27372,0.89658 -4.74623,1.39739 -7.3385,1.39739 -11.06035,0 -20.02655,-8.96619 -20.02655,-20.02654 0,-11.06036 8.9662,-20.02655 20.02655,-20.02655 7.88107,0 14.70067,4.55202 17.96903,11.17063 0.84988,-0.13073 1.71971,-0.19718 2.60619,-0.19718 2.55226,0 4.96871,0.5702 7.14131,1.57743 0.17984,-5.14476 4.40459,-9.25884 9.59321,-9.25884 5.30291,0 9.60176,4.29886 9.60176,9.60176 0,5.30292 -4.29885,9.60177 -9.60176,9.60177 -0.21502,0 -0.43149,-0.003 -0.64299,-0.0172 0.59095,1.72746 0.91732,3.57616 0.91732,5.50386 0,9.39373 -7.61512,17.00886 -17.00885,17.00886 z m -52.39823,-17.55752 c -4.69686,0 -8.50442,-3.80756 -8.50442,-8.50442 0,-4.69687 3.80756,-8.50443 8.50442,-8.50443 4.69687,0 8.50443,3.80756 8.50443,8.50443 0,4.69686 -3.80756,8.50442 -8.50443,8.50442 z m 10.97345,-21.94691 c -6.21198,0 -11.24779,-5.0358 -11.24779,-11.24778 0,-6.21198 5.03581,-11.24779 11.24779,-11.24779 6.21198,0 11.24779,5.03581 11.24779,11.24779 0,6.21198 -5.03581,11.24778 -11.24779,11.24778 z"
       style="opacity:0.15;fill:#caf2f4;fill-opacity:1;stroke:none" />
  </g>
</svg>
